{
.appVersion = "1273";
copyright = "Copyright 2010 Google Inc. All Rights Reserved.";
customParameters = (
{
name = glyphOrder;
value = (
.notdef,
.null,
nonmarkingreturn,
space,
exclam,
quotedbl,
numbersign,
dollar,
percent,
ampersand,
quotesingle,
parenleft,
parenright,
asterisk,
plus,
comma,
hyphen,
period,
slash,
zero,
one,
two,
three,
four,
five,
six,
seven,
eight,
nine,
colon,
semicolon,
less,
equal,
greater,
question,
at,
A,
B,
C,
D,
E,
F,
G,
H,
I,
J,
K,
L,
M,
N,
O,
P,
Q,
R,
S,
T,
U,
V,
W,
X,
Y,
Z,
bracketleft,
backslash,
bracketright,
asciicircum,
underscore,
grave,
a,
b,
c,
d,
e,
f,
g,
h,
i,
j,
k,
l,
m,
n,
o,
p,
q,
r,
s,
t,
u,
v,
w,
x,
y,
z,
braceleft,
bar,
braceright,
asciitilde,
Adieresis,
Aring,
Ccedilla,
Eacute,
Ntilde,
Odieresis,
Udieresis,
aacute,
agrave,
acircumflex,
adieresis,
atilde,
aring,
ccedilla,
eacute,
egrave,
ecircumflex,
edieresis,
iacute,
igrave,
icircumflex,
idieresis,
ntilde,
oacute,
ograve,
ocircumflex,
odieresis,
otilde,
uacute,
ugrave,
ucircumflex,
udieresis,
dagger,
degree,
cent,
sterling,
section,
bullet,
paragraph,
germandbls,
registered,
copyright,
trademark,
acute,
dieresis,
notequal,
AE,
Oslash,
infinity,
plusminus,
lessequal,
greaterequal,
yen,
mu1,
partialdiff,
summation,
product,
integral,
ordfeminine,
ordmasculine,
Ohm,
ae,
oslash,
questiondown,
exclamdown,
logicalnot,
radical,
florin,
approxequal,
uni2206,
guillemotleft,
guillemotright,
ellipsis,
Agrave,
Atilde,
Otilde,
OE,
oe,
endash,
emdash,
quotedblleft,
quotedblright,
quoteleft,
quoteright,
divide,
lozenge,
ydieresis,
Ydieresis,
fraction,
Euro,
guilsinglleft,
guilsinglright,
fi,
fl,
daggerdbl,
periodcentered,
quotesinglbase,
quotedblbase,
perthousand,
Acircumflex,
Ecircumflex,
Aacute,
Edieresis,
Egrave,
Iacute,
Icircumflex,
Idieresis,
Igrave,
Oacute,
Ocircumflex,
Ograve,
Uacute,
Ucircumflex,
Ugrave,
dotlessi,
circumflex,
tilde,
macron,
breve,
dotaccent,
ring,
cedilla,
hungarumlaut,
ogonek,
caron,
Lslash,
lslash,
Scaron,
scaron,
Zcaron,
zcaron,
brokenbar,
Eth,
eth,

glyphs = (
{
glyphname = .notdef;
lastChange = "2019-11-18 22:49:30 +0000";
layers = (
{
layerId = "B8E4E6F7-CD69-4587-8CB0-DED49904045E";
paths = (
{
closed = 1;
nodes = (
"205 0 LINE",
"1330 0 LINE",
"1330 1409 LINE",
"205 1409 LINE"
);
},
{
closed = 1;
nodes = (
"1254 1333 LINE",
"1254 76 LINE",
"281 76 LINE",
"281 1333 LINE"
);
}
);
width = 1536;
}
);
note = .notdef;
},
{
glyphname = exclam;
lastChange = "2019-11-18 22:49:30 +0000";
layers = (
{
layerId = "B8E4E6F7-CD69-4587-8CB0-DED49904045E";
paths = (
{
closed = 1;
nodes = (
"549 1409 LINE",
"353 1409 LINE",
"181 397 LINE",
"329 397 LINE"
);
},
{
closed = 1;
nodes = (
"271 0 LINE",
"311 201 LINE",
"117 201 LINE",
"77 0 LINE"
);
}
);
width = 569;
}
);
note = exclam;
unicode = 0021;
},
{
glyphname = quotedbl;
lastChange = "2019-11-18 22:49:30 +0000";
layers = (
{
layerId = "B8E4E6F7-CD69-4587-8CB0-DED49904045E";
paths = (
{
closed = 1;
nodes = (
"803 1409 LINE",
"619 1409 LINE",
"555 966 LINE",
"697 966 LINE"
);
},
{
closed = 1;
nodes = (
"434 1409 LINE",
"250 1409 LINE",
"187 966 LINE",
"328 966 LINE"
);
}
);
width = 727;
}
);
note = quotedbl;
unicode = 0022;
},
{
glyphname = numbersign;
lastChange = "2019-11-18 22:49:30 +0000";
layers = (
{
layerId = "B8E4E6F7-CD69-4587-8CB0-DED49904045E";
paths = (
{
closed = 1;
nodes = (
"1159 885 LINE",
"1159 993 LINE",
"948 993 LINE",
"1036 1401 LINE",
"926 1401 LINE",
"838 993 LINE",
"475 993 LINE",
"563 1401 LINE",
"453 1401 LINE",
"364 993 LINE",
"90 993 LINE",
"90 885 LINE",
"342 885 LINE",
"264 516 LINE",
"39 516 LINE",
"39 408 LINE",
"240 408 LINE",
"156 0 LINE",
"266 0 LINE",
"350 408 LINE",
"713 408 LINE",
"627 0 LINE",
"737 0 LINE",
"825 408 LINE",
"1108 408 LINE",
"1108 516 LINE",
"848 516 LINE",
"926 885 LINE"
);
},
{
closed = 1;
nodes = (
"815 885 LINE",
"737 516 LINE",
"375 516 LINE",
"455 885 LINE"
);
}
);
width = 1139;
}
);
note = numbersign;
unicode = 0023;
},
{
glyphname = dollar;
lastChange = "2019-11-18 22:49:30 +0000";
layers = (
{
layerId = "B8E4E6F7-CD69-4587-8CB0-DED49904045E";
paths = (
{
closed = 1;
nodes = (
"1072 558 OFFCURVE",
"886 742 OFFCURVE",
"690 795 QCURVE",
"776 1236 LINE",
"969 1209 OFFCURVE",
"1014 1042 QCURVE",
"1170 1087 LINE",
"1144 1210 OFFCURVE",
"959 1360 OFFCURVE",
"803 1379 QCURVE",
"830 1516 LINE",
"716 1516 LINE",
"691 1385 LINE",
"544 1384 OFFCURVE",
"311 1295 OFFCURVE",
"181 1130 OFFCURVE",
"181 1018 QCURVE SMOOTH",
"181 924 OFFCURVE",
"257 795 OFFCURVE",
"402 704 OFFCURVE",
"551 663 QCURVE",
"455 170 LINE",
"321 180 OFFCURVE",
"176 298 OFFCURVE",
"151 413 QCURVE",
"-12 376 LINE",
"15 217 OFFCURVE",
"226 37 OFFCURVE",
"427 23 QCURVE",
"395 -140 LINE",
"509 -140 LINE",
"540 21 LINE",
"797 29 OFFCURVE",
"1072 240 OFFCURVE",
"1072 425 QCURVE SMOOTH"
);
},
{
closed = 1;
nodes = (
"887 186 OFFCURVE",
"569 169 QCURVE",
"659 632 LINE",
"786 592 OFFCURVE",
"887 491 OFFCURVE",
"887 413 QCURVE SMOOTH"
);
},
{
closed = 1;
nodes = (
"363 1121 OFFCURVE",
"518 1235 OFFCURVE",
"663 1240 QCURVE",
"582 825 LINE",
"453 865 OFFCURVE",
"363 951 OFFCURVE",
"363 1018 QCURVE SMOOTH"
);
}
);
width = 1139;
}
);
note = dollar;
unicode = 0024;
},
{
glyphname = percent;
lastChange = "2019-11-18 22:49:30 +0000";
layers = (
{
layerId = "B8E4E6F7-CD69-4587-8CB0-DED49904045E";
paths = (
{
closed = 1;
nodes = (
"1613 1409 LINE",
"1446 1409 LINE",
"260 0 LINE",
"425 0 LINE"
);
},
{
closed = 1;
nodes = (
"415 1421 OFFCURVE",
"239 1273 OFFCURVE",
"146 988 OFFCURVE",
"146 841 QCURVE SMOOTH",
"146 689 OFFCURVE",
"282 524 OFFCURVE",
"406 524 QCURVE SMOOTH",
"495 524 OFFCURVE",
"640 609 OFFCURVE",
"750 776 OFFCURVE",
"804 1007 OFFCURVE",
"804 1113 QCURVE SMOOTH",
"804 1263 OFFCURVE",
"670 1421 OFFCURVE",
"545 1421 QCURVE SMOOTH"
);
},
{
closed = 1;
nodes = (
"665 1313 OFFCURVE",
"665 1131 QCURVE SMOOTH",
"665 1035 OFFCURVE",
"605 771 OFFCURVE",
"495 637 OFFCURVE",
"410 637 QCURVE SMOOTH",
"284 637 OFFCURVE",
"284 827 QCURVE SMOOTH",
"284 904 OFFCURVE",
"327 1118 OFFCURVE",
"391 1251 OFFCURVE",
"477 1313 OFFCURVE",
"544 1313 QCURVE SMOOTH"
);
},
{
closed = 1;
nodes = (
"1344 885 OFFCURVE",
"1168 737 OFFCURVE",
"1075 452 OFFCURVE",
"1075 305 QCURVE SMOOTH",
"1075 153 OFFCURVE",
"1211 -12 OFFCURVE",
"1335 -12 QCURVE SMOOTH",
"1424 -12 OFFCURVE",
"1569 73 OFFCURVE",
"1679 240 OFFCURVE",
"1733 471 OFFCURVE",
"1733 577 QCURVE SMOOTH",
"1733 727 OFFCURVE",
"1599 885 OFFCURVE",
"1474 885 QCURVE SMOOTH"
);
},
{
closed = 1;
nodes = (
"1594 777 OFFCURVE",
"1594 595 QCURVE SMOOTH",
"1594 499 OFFCURVE",
"1534 235 OFFCURVE",
"1424 101 OFFCURVE",
"1339 101 QCURVE SMOOTH",
"1213 101 OFFCURVE",
"1213 291 QCURVE SMOOTH",
"1213 368 OFFCURVE",
"1256 582 OFFCURVE",
"1320 715 OFFCURVE",
"1406 777 OFFCURVE",
"1473 777 QCURVE SMOOTH"
);
}
);
width = 1821;
}
);
note = percent;
unicode = 0025;
},
{
glyphname = ampersand;
lastChange = "2019-11-18 22:49:30 +0000";
layers = (
{
layerId = "B8E4E6F7-CD69-4587-8CB0-DED49904045E";
paths = (
{
closed = 1;
nodes = (
"1116 739 LINE",
"1038 571 OFFCURVE",
"924 383 OFFCURVE",
"864 315 QCURVE",
"722 510 OFFCURVE",
"646 734 QCURVE",
"771 784 LINE SMOOTH",
"981 867 OFFCURVE",
"1144 1039 OFFCURVE",
"1144 1155 QCURVE SMOOTH",
"1144 1273 OFFCURVE",
"971 1417 OFFCURVE",
"833 1417 QCURVE SMOOTH",
"651 1417 OFFCURVE",
"434 1209 OFFCURVE",
"434 1036 QCURVE SMOOTH",
"434 925 OFFCURVE",
"462 806 QCURVE",
"219 713 OFFCURVE",
"33 508 OFFCURVE",
"33 351 QCURVE SMOOTH",
"33 181 OFFCURVE",
"251 -20 OFFCURVE",
"440 -20 QCURVE SMOOTH",
"669 -20 OFFCURVE",
"847 110 QCURVE",
"969 -12 OFFCURVE",
"1118 -12 QCURVE SMOOTH",
"1183 -12 OFFCURVE",
"1243 10 QCURVE",
"1256 145 LINE",
"1204 129 OFFCURVE",
"1144 129 QCURVE SMOOTH",
"1098 129 OFFCURVE",
"997 170 OFFCURVE",
"957 208 QCURVE",
"1109 369 OFFCURVE",
"1248 684 QCURVE"
);
},
{
closed = 1;
nodes = (
"340 111 OFFCURVE",
"203 243 OFFCURVE",
"203 354 QCURVE SMOOTH",
"203 464 OFFCURVE",
"334 609 OFFCURVE",
"502 675 QCURVE",
"546 547 OFFCURVE",
"680 302 OFFCURVE",
"753 212 QCURVE",
"615 111 OFFCURVE",
"452 111 QCURVE SMOOTH"
);
},
{
closed = 1;
nodes = (
"592 1161 OFFCURVE",
"714 1296 OFFCURVE",
"826 1296 QCURVE SMOOTH",
"899 1296 OFFCURVE",
"990 1213 OFFCURVE",
"990 1148 QCURVE SMOOTH",
"990 1090 OFFCURVE",
"931 1008 OFFCURVE",
"828 944 OFFCURVE",
"690 892 OFFCURVE",
"611 863 QCURVE",
"592 963 OFFCURVE",
"592 1041 QCURVE SMOOTH"
);
}
);
width = 1366;
}
);
note = ampersand;
unicode = 0026;
},
{
glyphname = quotesingle;
lastChange = "2019-11-18 22:49:30 +0000";
layers = (
{
layerId = "B8E4E6F7-CD69-4587-8CB0-DED49904045E";
paths = (
{
closed = 1;
nodes = (
"449 1409 LINE",
"265 1409 LINE",
"202 966 LINE",
"343 966 LINE"
);
}
);
width = 391;
}
);
note = quotesingle;
unicode = 0027;
},
{
glyphname = parenleft;
lastChange = "2019-11-18 22:49:30 +0000";
layers = (
{
layerId = "B8E4E6F7-CD69-4587-8CB0-DED49904045E";
paths = (
{
closed = 1;
nodes = (
"681 1484 LINE",
"396 1264 OFFCURVE",
"96 650 OFFCURVE",
"96 278 QCURVE SMOOTH",
"96 -128 OFFCURVE",
"310 -424 QCURVE",
"484 -424 LINE",
"277 -127 OFFCURVE",
"277 262 QCURVE SMOOTH",
"277 975 OFFCURVE",
"855 1484 QCURVE"
);
}
);
width = 682;
}
);
note = parenleft;
unicode = 0028;
},
{
glyphname = parenright;
lastChange = "2019-11-18 22:49:30 +0000";
layers = (
{
layerId = "B8E4E6F7-CD69-4587-8CB0-DED49904045E";
paths = (
{
closed = 1;
nodes = (
"-25 -424 LINE",
"260 -204 OFFCURVE",
"560 410 OFFCURVE",
"560 782 QCURVE SMOOTH",
"560 1188 OFFCURVE",
"346 1484 QCURVE",
"172 1484 LINE",
"379 1187 OFFCURVE",
"379 798 QCURVE SMOOTH",
"379 85 OFFCURVE",
"-199 -424 QCURVE"
);
}
);
width = 682;
}
);
note = parenright;
unicode = 0029;
},
{
glyphname = asterisk;
lastChange = "2019-11-18 22:49:30 +0000";
layers = (
{
layerId = "B8E4E6F7-CD69-4587-8CB0-DED49904045E";
paths = (
{
closed = 1;
nodes = (
"556 1409 LINE",
"420 1409 LINE",
"432 1112 LINE",
"165 1219 LINE",
"120 1085 LINE",
"400 1012 LINE",
"211 764 LINE",
"330 692 LINE",
"486 948 LINE",
"636 690 LINE",
"755 762 LINE",
"570 1012 LINE",
"852 1085 LINE",
"807 1217 LINE",
"543 1114 LINE"
);
}
);
width = 797;
}
);
note = asterisk;
unicode = 002A;
},
{
glyphname = plus;
lastChange = "2019-11-18 22:49:30 +0000";
layers = (
{
layerId = "B8E4E6F7-CD69-4587-8CB0-DED49904045E";
paths = (
{
closed = 1;
nodes = (
"1125 608 LINE",
"1125 754 LINE",
"701 754 LINE",
"701 1182 LINE",
"554 1182 LINE",
"554 754 LINE",
"130 754 LINE",
"130 608 LINE",
"554 608 LINE",
"554 180 LINE",
"701 180 LINE",
"701 608 LINE"
);
}
);
width = 1196;
}
);
note = plus;
unicode = 002B;
},
{
glyphname = comma;
lastChange = "2019-11-18 22:49:30 +0000";
layers = (
{
layerId = "B8E4E6F7-CD69-4587-8CB0-DED49904045E";
paths = (
{
closed = 1;
nodes = (
"215 -194 OFFCURVE",
"281 -44 OFFCURVE",
"299 51 QCURVE SMOOTH",
"331 219 LINE",
"136 219 LINE",
"94 0 LINE",
"182 0 LINE",
"157 -125 OFFCURVE",
"37 -262 QCURVE",
"160 -262 LINE"
);
}
);
width = 569;
}
);
note = comma;
unicode = 002C;
},
{
glyphname = hyphen;
lastChange = "2019-11-18 22:49:30 +0000";
layers = (
{
layerId = "B8E4E6F7-CD69-4587-8CB0-DED49904045E";
paths = (
{
closed = 1;
nodes = (
"605 464 LINE",
"636 624 LINE",
"136 624 LINE",
"105 464 LINE"
);
}
);
width = 682;
}
);
note = hyphen;
unicode = "002D,00AD";
},
{
glyphname = period;
lastChange = "2019-11-18 22:49:30 +0000";
layers = (
{
layerId = "B8E4E6F7-CD69-4587-8CB0-DED49904045E";
paths = (
{
closed = 1;
nodes = (
"275 0 LINE",
"318 219 LINE",
"123 219 LINE",
"80 0 LINE"
);
}
);
width = 569;
}
);
note = period;
unicode = 002E;
},
{
glyphname = slash;
lastChange = "2019-11-18 22:49:30 +0000";
layers = (
{
layerId = "B8E4E6F7-CD69-4587-8CB0-DED49904045E";
paths = (
{
closed = 1;
nodes = (
"45 -20 LINE",
"745 1484 LINE",
"587 1484 LINE",
"-116 -20 LINE"
);
}
);
width = 569;
}
);
note = slash;
unicode = 002F;
},
{
glyphname = zero;
lastChange = "2019-11-18 22:49:30 +0000";
layers = (
{
layerId = "B8E4E6F7-CD69-4587-8CB0-DED49904045E";
paths = (
{
closed = 1;
nodes = (
"572 1430 OFFCURVE",
"337 1289 OFFCURVE",
"178 1017 OFFCURVE",
"89 645 OFFCURVE",
"89 465 QCURVE SMOOTH",
"89 238 OFFCURVE",
"295 -20 OFFCURVE",
"476 -20 QCURVE SMOOTH",
"680 -20 OFFCURVE",
"966 229 OFFCURVE",
"1122 708 OFFCURVE",
"1122 964 QCURVE SMOOTH",
"1122 1184 OFFCURVE",
"915 1430 OFFCURVE",
"732 1430 QCURVE SMOOTH"
);
},
{
closed = 1;
nodes = (
"383 127 OFFCURVE",
"264 283 OFFCURVE",
"264 438 QCURVE SMOOTH",
"264 625 OFFCURVE",
"378 1072 OFFCURVE",
"569 1284 OFFCURVE",
"720 1284 QCURVE SMOOTH",
"828 1284 OFFCURVE",
"947 1128 OFFCURVE",
"947 973 QCURVE SMOOTH",
"947 786 OFFCURVE",
"833 339 OFFCURVE",
"642 127 OFFCURVE",
"491 127 QCURVE SMOOTH"
);
}
);
width = 1139;
}
);
note = zero;
unicode = 0030;
},
{
glyphname = one;
lastChange = "2019-11-18 22:49:30 +0000";
layers = (
{
layerId = "B8E4E6F7-CD69-4587-8CB0-DED49904045E";
paths = (
{
closed = 1;
nodes = (
"936 0 LINE",
"966 153 LINE",
"623 153 LINE",
"867 1409 LINE",
"701 1409 LINE",
"324 1180 LINE",
"289 1000 LINE",
"650 1223 LINE",
"442 153 LINE",
"83 153 LINE",
"53 0 LINE"
);
}
);
width = 1139;
}
);
note = one;
unicode = 0031;
},
{
glyphname = two;
lastChange = "2019-11-18 22:49:30 +0000";
layers = (
{
layerId = "B8E4E6F7-CD69-4587-8CB0-DED49904045E";
paths = (
{
closed = 1;
nodes = (
"920 0 LINE",
"949 153 LINE",
"222 153 LINE",
"268 225 OFFCURVE",
"449 377 OFFCURVE",
"596 470 QCURVE SMOOTH",
"802 600 OFFCURVE",
"1007 778 OFFCURVE",
"1109 972 OFFCURVE",
"1109 1078 QCURVE SMOOTH",
"1109 1234 OFFCURVE",
"882 1430 OFFCURVE",
"700 1430 QCURVE SMOOTH",
"513 1430 OFFCURVE",
"265 1251 OFFCURVE",
"211 1081 QCURVE",
"381 1044 LINE",
"418 1163 OFFCURVE",
"580 1282 OFFCURVE",
"689 1282 QCURVE SMOOTH",
"795 1282 OFFCURVE",
"920 1161 OFFCURVE",
"920 1063 QCURVE SMOOTH",
"920 987 OFFCURVE",
"866 866 OFFCURVE",
"772 764 OFFCURVE",
"647 674 OFFCURVE",
"504 583 OFFCURVE",
"351 485 OFFCURVE",
"203 366 OFFCURVE",
"67 220 OFFCURVE",
"12 127 QCURVE",
"-12 0 LINE"
);
}
);
width = 1139;
}
);
note = two;
unicode = 0032;
},
{
glyphname = three;
lastChange = "2019-11-18 22:49:30 +0000";
layers = (
{
layerId = "B8E4E6F7-CD69-4587-8CB0-DED49904045E";
paths = (
{
closed = 1;
nodes = (
"468 795 LINE",
"438 639 LINE",
"562 639 LINE SMOOTH",
"691 639 OFFCURVE",
"841 516 OFFCURVE",
"841 404 QCURVE SMOOTH",
"841 278 OFFCURVE",
"682 129 OFFCURVE",
"541 129 QCURVE SMOOTH",
"418 129 OFFCURVE",
"242 270 OFFCURVE",
"212 386 QCURVE",
"48 338 LINE",
"73 229 OFFCURVE",
"202 68 OFFCURVE",
"398 -20 OFFCURVE",
"526 -20 QCURVE SMOOTH",
"679 -20 OFFCURVE",
"908 87 OFFCURVE",
"1029 282 OFFCURVE",
"1029 407 QCURVE SMOOTH",
"1029 530 OFFCURVE",
"883 687 OFFCURVE",
"752 713 QCURVE",
"753 717 LINE",
"928 740 OFFCURVE",
"1121 933 OFFCURVE",
"1121 1086 QCURVE SMOOTH",
"1121 1246 OFFCURVE",
"905 1430 OFFCURVE",
"718 1430 QCURVE SMOOTH",
"531 1430 OFFCURVE",
"264 1249 OFFCURVE",
"206 1063 QCURVE",
"384 1049 LINE",
"418 1160 OFFCURVE",
"589 1282 OFFCURVE",
"708 1282 QCURVE SMOOTH",
"809 1282 OFFCURVE",
"930 1174 OFFCURVE",
"930 1081 QCURVE SMOOTH",
"930 941 OFFCURVE",
"749 795 OFFCURVE",
"566 795 QCURVE SMOOTH"
);
}
);
width = 1139;
}
);
note = three;
unicode = 0033;
},
{
glyphname = four;
lastChange = "2019-11-18 22:49:30 +0000";
layers = (
{
layerId = "B8E4E6F7-CD69-4587-8CB0-DED49904045E";
paths = (
{
closed = 1;
nodes = (
"1034 319 LINE",
"1062 461 LINE",
"874 461 LINE",
"1058 1409 LINE",
"859 1409 LINE",
"40 459 LINE",
"13 319 LINE",
"666 319 LINE",
"604 0 LINE",
"784 0 LINE",
"846 319 LINE"
);
},
{
closed = 1;
nodes = (
"694 461 LINE",
"227 461 LINE",
"826 1157 LINE"
);
}
);
width = 1139;
}
);
note = four;
unicode = 0034;
},
{
glyphname = five;
lastChange = "2019-11-18 22:49:30 +0000";
layers = (
{
layerId = "B8E4E6F7-CD69-4587-8CB0-DED49904045E";
paths = (
{
closed = 1;
nodes = (
"149 651 LINE",
"325 651 LINE",
"444 752 OFFCURVE",
"607 752 QCURVE SMOOTH",
"723 752 OFFCURVE",
"861 608 OFFCURVE",
"861 486 QCURVE SMOOTH",
"861 314 OFFCURVE",
"681 127 OFFCURVE",
"515 127 QCURVE SMOOTH",
"398 127 OFFCURVE",
"240 238 OFFCURVE",
"209 352 QCURVE",
"46 309 LINE",
"134 -20 OFFCURVE",
"505 -20 QCURVE SMOOTH",
"763 -20 OFFCURVE",
"1051 260 OFFCURVE",
"1051 506 QCURVE SMOOTH",
"1051 686 OFFCURVE",
"825 899 OFFCURVE",
"641 899 QCURVE SMOOTH",
"558 899 OFFCURVE",
"414 851 OFFCURVE",
"364 809 QCURVE",
"478 1256 LINE",
"1115 1256 LINE",
"1144 1409 LINE",
"343 1409 LINE"
);
}
);
width = 1139;
}
);
note = five;
unicode = 0035;
},
{
glyphname = six;
lastChange = "2019-11-18 22:49:30 +0000";
layers = (
{
layerId = "B8E4E6F7-CD69-4587-8CB0-DED49904045E";
paths = (
{
closed = 1;
nodes = (
"679 -20 OFFCURVE",
"914 124 OFFCURVE",
"1047 381 OFFCURVE",
"1047 533 QCURVE SMOOTH",
"1047 701 OFFCURVE",
"835 911 OFFCURVE",
"663 911 QCURVE SMOOTH",
"550 911 OFFCURVE",
"367 816 OFFCURVE",
"307 726 QCURVE",
"359 992 OFFCURVE",
"589 1284 OFFCURVE",
"753 1284 QCURVE SMOOTH",
"834 1284 OFFCURVE",
"948 1196 OFFCURVE",
"973 1115 QCURVE",
"1139 1151 LINE",
"1104 1287 OFFCURVE",
"911 1430 OFFCURVE",
"761 1430 QCURVE SMOOTH",
"572 1430 OFFCURVE",
"282 1176 OFFCURVE",
"115 705 OFFCURVE",
"115 464 QCURVE SMOOTH",
"115 248 OFFCURVE",
"341 -20 OFFCURVE",
"534 -20 QCURVE SMOOTH"
);
},
{
closed = 1;
nodes = (
"288 531 OFFCURVE",
"380 687 OFFCURVE",
"537 772 OFFCURVE",
"630 772 QCURVE SMOOTH",
"742 772 OFFCURVE",
"861 637 OFFCURVE",
"861 522 QCURVE SMOOTH",
"861 350 OFFCURVE",
"677 125 OFFCURVE",
"538 125 QCURVE SMOOTH",
"424 125 OFFCURVE",
"288 290 OFFCURVE",
"288 421 QCURVE SMOOTH"
);
}
);
width = 1139;
}
);
note = six;
unicode = 0036;
},
{
glyphname = seven;
lastChange = "2019-11-18 22:49:30 +0000";
layers = (
{
layerId = "B8E4E6F7-CD69-4587-8CB0-DED49904045E";
paths = (
{
closed = 1;
nodes = (
"460 128 OFFCURVE",
"539 360 OFFCURVE",
"645 573 OFFCURVE",
"781 781 OFFCURVE",
"951 1001 OFFCURVE",
"1174 1263 QCURVE",
"1202 1409 LINE",
"241 1409 LINE",
"212 1256 LINE",
"986 1256 LINE",
"704 934 OFFCURVE",
"455 572 OFFCURVE",
"288 204 OFFCURVE",
"247 0 QCURVE",
"435 0 LINE"
);
}
);
width = 1139;
}
);
note = seven;
unicode = 0037;
},
{
glyphname = eight;
lastChange = "2019-11-18 22:49:30 +0000";
layers = (
{
layerId = "B8E4E6F7-CD69-4587-8CB0-DED49904045E";
paths = (
{
closed = 1;
nodes = (
"480 1429 OFFCURVE",
"220 1229 OFFCURVE",
"220 1052 QCURVE SMOOTH",
"220 949 OFFCURVE",
"320 798 OFFCURVE",
"411 760 QCURVE",
"411 756 LINE",
"236 717 OFFCURVE",
"54 510 OFFCURVE",
"54 360 QCURVE SMOOTH",
"54 182 OFFCURVE",
"287 -20 OFFCURVE",
"500 -20 QCURVE SMOOTH",
"749 -20 OFFCURVE",
"1033 224 OFFCURVE",
"1033 432 QCURVE SMOOTH",
"1033 542 OFFCURVE",
"916 696 OFFCURVE",
"806 729 QCURVE",
"807 733 LINE",
"954 755 OFFCURVE",
"1127 951 OFFCURVE",
"1127 1091 QCURVE SMOOTH",
"1127 1246 OFFCURVE",
"895 1429 OFFCURVE",
"704 1429 QCURVE SMOOTH"
);
},
{
closed = 1;
nodes = (
"537 811 OFFCURVE",
"400 930 OFFCURVE",
"400 1033 QCURVE SMOOTH",
"400 1160 OFFCURVE",
"550 1294 OFFCURVE",
"683 1294 QCURVE SMOOTH",
"810 1294 OFFCURVE",
"941 1185 OFFCURVE",
"941 1087 QCURVE SMOOTH",
"941 954 OFFCURVE",
"792 811 OFFCURVE",
"658 811 QCURVE SMOOTH"
);
},
{
closed = 1;
nodes = (
"697 672 OFFCURVE",
"850 547 OFFCURVE",
"850 436 QCURVE SMOOTH",
"850 289 OFFCURVE",
"667 117 OFFCURVE",
"519 117 QCURVE SMOOTH",
"387 117 OFFCURVE",
"239 244 OFFCURVE",
"239 356 QCURVE SMOOTH",
"239 506 OFFCURVE",
"410 672 OFFCURVE",
"566 672 QCURVE SMOOTH"
);
}
);
width = 1139;
}
);
note = eight;
unicode = 0038;
},
{
glyphname = nine;
lastChange = "2019-11-18 22:49:30 +0000";
layers = (
{
layerId = "B8E4E6F7-CD69-4587-8CB0-DED49904045E";
paths = (
{
closed = 1;
nodes = (
"842 414 OFFCURVE",
"619 125 OFFCURVE",
"461 125 QCURVE SMOOTH",
"370 125 OFFCURVE",
"252 217 OFFCURVE",
"228 302 QCURVE",
"70 257 LINE",
"145 -20 OFFCURVE",
"453 -20 QCURVE SMOOTH",
"550 -20 OFFCURVE",
"736 54 OFFCURVE",
"896 215 OFFCURVE",
"1022 465 OFFCURVE",
"1097 802 OFFCURVE",
"1097 957 QCURVE SMOOTH",
"1097 1176 OFFCURVE",
"878 1430 OFFCURVE",
"682 1430 QCURVE SMOOTH",
"534 1430 OFFCURVE",
"295 1286 OFFCURVE",
"163 1033 OFFCURVE",
"163 881 QCURVE SMOOTH",
"163 768 OFFCURVE",
"261 584 OFFCURVE",
"441 481 OFFCURVE",
"559 481 QCURVE SMOOTH",
"764 481 OFFCURVE",
"898 684 QCURVE"
);
},
{
closed = 1;
nodes = (
"925 895 OFFCURVE",
"839 725 OFFCURVE",
"674 623 OFFCURVE",
"580 623 QCURVE SMOOTH",
"472 623 OFFCURVE",
"346 757 OFFCURVE",
"346 879 QCURVE SMOOTH",
"346 1068 OFFCURVE",
"530 1284 OFFCURVE",
"678 1284 QCURVE SMOOTH",
"787 1284 OFFCURVE",
"925 1138 OFFCURVE",
"925 1017 QCURVE SMOOTH"
);
}
);
width = 1139;
}
);
note = nine;
unicode = 0039;
},
{
glyphname = colon;
lastChange = "2019-11-18 22:49:30 +0000";
layers = (
{
layerId = "B8E4E6F7-CD69-4587-8CB0-DED49904045E";
paths = (
{
closed = 1;
nodes = (
"446 875 LINE",
"487 1082 LINE",
"292 1082 LINE",
"251 875 LINE"
);
},
{
closed = 1;
nodes = (
"276 0 LINE",
"317 207 LINE",
"122 207 LINE",
"81 0 LINE"
);
}
);
width = 569;
}
);
note = colon;
unicode = 003A;
},
{
glyphname = semicolon;
lastChange = "2019-11-18 22:49:30 +0000";
layers = (
{
layerId = "B8E4E6F7-CD69-4587-8CB0-DED49904045E";
paths = (
{
closed = 1;
nodes = (
"216 -194 OFFCURVE",
"282 -44 OFFCURVE",
"300 51 QCURVE SMOOTH",
"330 207 LINE",
"135 207 LINE",
"95 0 LINE",
"183 0 LINE",
"158 -125 OFFCURVE",
"38 -262 QCURVE",
"161 -262 LINE"
);
},
{
closed = 1;
nodes = (
"460 875 LINE",
"500 1082 LINE",
"305 1082 LINE",
"265 875 LINE"
);
}
);
width = 569;
}
);
note = semicolon;
unicode = "003B,037E";
},
{
glyphname = less;
lastChange = "2019-11-18 22:49:30 +0000";
layers = (
{
layerId = "B8E4E6F7-CD69-4587-8CB0-DED49904045E";
paths = (
{
closed = 1;
nodes = (
"1126 154 LINE",
"1126 307 LINE",
"268 674 LINE",
"1126 1040 LINE",
"1126 1194 LINE",
"131 776 LINE",
"131 571 LINE"
);
}
);
width = 1196;
}
);
note = less;
unicode = 003C;
},
{
glyphname = equal;
lastChange = "2019-11-18 22:49:30 +0000";
layers = (
{
layerId = "B8E4E6F7-CD69-4587-8CB0-DED49904045E";
paths = (
{
closed = 1;
nodes = (
"1125 856 LINE",
"1125 1004 LINE",
"130 1004 LINE",
"130 856 LINE"
);
},
{
closed = 1;
nodes = (
"1125 344 LINE",
"1125 492 LINE",
"130 492 LINE",
"130 344 LINE"
);
}
);
width = 1196;
}
);
note = equal;
unicode = 003D;
},
{
glyphname = greater;
lastChange = "2019-11-18 22:49:30 +0000";
layers = (
{
layerId = "B8E4E6F7-CD69-4587-8CB0-DED49904045E";
paths = (
{
closed = 1;
nodes = (
"1126 571 LINE",
"1126 776 LINE",
"131 1194 LINE",
"131 1040 LINE",
"989 674 LINE",
"131 307 LINE",
"131 154 LINE"
);
}
);
width = 1196;
}
);
note = greater;
unicode = 003E;
},
{
glyphname = question;
lastChange = "2019-11-18 22:49:30 +0000";
layers = (
{
layerId = "B8E4E6F7-CD69-4587-8CB0-DED49904045E";
paths = (
{
closed = 1;
nodes = (
"495 1430 OFFCURVE",
"222 1243 OFFCURVE",
"159 1048 QCURVE",
"324 1008 LINE",
"362 1130 OFFCURVE",
"544 1270 OFFCURVE",
"684 1270 QCURVE SMOOTH",
"800 1270 OFFCURVE",
"946 1150 OFFCURVE",
"946 1052 QCURVE SMOOTH",
"946 989 OFFCURVE",
"900 889 OFFCURVE",
"808 806 OFFCURVE",
"702 746 QCURVE SMOOTH",
"568 670 OFFCURVE",
"463 576 OFFCURVE",
"393 457 OFFCURVE",
"380 377 QCURVE",
"555 377 LINE",
"569 445 OFFCURVE",
"667 557 OFFCURVE",
"794 629 QCURVE SMOOTH",
"854 664 OFFCURVE",
"975 738 OFFCURVE",
"1072 839 OFFCURVE",
"1133 976 OFFCURVE",
"1133 1073 QCURVE SMOOTH",
"1133 1230 OFFCURVE",
"898 1430 OFFCURVE",
"701 1430 QCURVE SMOOTH"
);
},
{
closed = 1;
nodes = (
"494 0 LINE",
"533 201 LINE",
"338 201 LINE",
"299 0 LINE"
);
}
);
width = 1139;
}
);
note = question;
unicode = 003F;
},
{
glyphname = at;
lastChange = "2019-11-18 22:49:30 +0000";
layers = (
{
layerId = "B8E4E6F7-CD69-4587-8CB0-DED49904045E";
paths = (
{
closed = 1;
nodes = (
"1935 973 OFFCURVE",
"1750 1303 OFFCURVE",
"1400 1484 OFFCURVE",
"1159 1484 QCURVE SMOOTH",
"885 1484 OFFCURVE",
"443 1229 OFFCURVE",
"194 771 OFFCURVE",
"194 491 QCURVE SMOOTH",
"194 261 OFFCURVE",
"388 -93 OFFCURVE",
"747 -283 OFFCURVE",
"987 -283 QCURVE SMOOTH",
"1161 -283 OFFCURVE",
"1500 -192 OFFCURVE",
"1645 -105 QCURVE",
"1590 7 LINE",
"1300 -155 OFFCURVE",
"987 -155 QCURVE SMOOTH",
"789 -155 OFFCURVE",
"492 3 OFFCURVE",
"335 298 OFFCURVE",
"335 491 QCURVE SMOOTH",
"335 741 OFFCURVE",
"547 1144 OFFCURVE",
"919 1358 OFFCURVE",
"1161 1358 QCURVE SMOOTH",
"1355 1358 OFFCURVE",
"1645 1209 OFFCURVE",
"1799 932 OFFCURVE",
"1799 753 QCURVE SMOOTH",
"1799 606 OFFCURVE",
"1721 364 OFFCURVE",
"1586 226 OFFCURVE",
"1506 226 QCURVE SMOOTH",
"1425 226 OFFCURVE",
"1425 320 QCURVE SMOOTH",
"1425 409 OFFCURVE",
"1462 573 QCURVE SMOOTH",
"1578 1079 LINE",
"1422 1079 LINE",
"1383 919 LINE",
"1377 919 LINE",
"1295 1101 OFFCURVE",
"1076 1101 QCURVE SMOOTH",
"935 1101 OFFCURVE",
"703 935 OFFCURVE",
"574 653 OFFCURVE",
"574 489 QCURVE SMOOTH",
"574 308 OFFCURVE",
"747 104 OFFCURVE",
"904 104 QCURVE SMOOTH",
"1017 104 OFFCURVE",
"1212 227 OFFCURVE",
"1278 350 QCURVE",
"1284 350 LINE",
"1281 280 LINE SMOOTH",
"1281 195 OFFCURVE",
"1387 104 OFFCURVE",
"1488 104 QCURVE SMOOTH",
"1615 104 OFFCURVE",
"1820 268 OFFCURVE",
"1935 569 OFFCURVE",
"1935 755 QCURVE SMOOTH"
);
},
{
closed = 1;
nodes = (
"1329 675 OFFCURVE",
"1269 478 OFFCURVE",
"1159 323 OFFCURVE",
"1013 235 OFFCURVE",
"933 235 QCURVE SMOOTH",
"834 235 OFFCURVE",
"739 371 OFFCURVE",
"739 491 QCURVE SMOOTH",
"739 619 OFFCURVE",
"829 847 OFFCURVE",
"986 974 OFFCURVE",
"1087 974 QCURVE SMOOTH",
"1197 974 OFFCURVE",
"1329 849 OFFCURVE",
"1329 747 QCURVE SMOOTH"
);
}
);
width = 2079;
}
);
note = at;
unicode = 0040;
},
{
glyphname = A;
lastChange = "2019-11-18 22:49:30 +0000";
layers = (
{
layerId = "B8E4E6F7-CD69-4587-8CB0-DED49904045E";
paths = (
{
closed = 1;
nodes = (
"1256 0 LINE",
"964 1409 LINE",
"747 1409 LINE",
"-101 0 LINE",
"107 0 LINE",
"347 412 LINE",
"986 412 LINE",
"1061 0 LINE"
);
},
{
closed = 1;
nodes = (
"856 1114 LINE",
"958 561 LINE",
"431 561 LINE",
"769 1153 OFFCURVE",
"817 1239 OFFCURVE",
"830 1265 QCURVE"
);
}
);
width = 1366;
}
);
note = A;
unicode = 0041;
},
{
glyphname = B;
lastChange = "2019-11-18 22:49:30 +0000";
layers = (
{
layerId = "B8E4E6F7-CD69-4587-8CB0-DED49904045E";
paths = (
{
closed = 1;
nodes = (
"63 0 LINE",
"658 0 LINE SMOOTH",
"935 0 OFFCURVE",
"1247 226 OFFCURVE",
"1247 439 QCURVE SMOOTH",
"1247 557 OFFCURVE",
"1095 720 OFFCURVE",
"957 743 QCURVE",
"1296 802 OFFCURVE",
"1296 1087 QCURVE SMOOTH",
"1296 1236 OFFCURVE",
"1055 1409 OFFCURVE",
"846 1409 QCURVE SMOOTH",
"336 1409 LINE"
);
},
{
closed = 1;
nodes = (
"498 1256 LINE",
"829 1256 LINE SMOOTH",
"1097 1256 OFFCURVE",
"1097 1068 QCURVE SMOOTH",
"1097 810 OFFCURVE",
"742 810 QCURVE SMOOTH",
"411 810 LINE"
);
},
{
closed = 1;
nodes = (
"382 661 LINE",
"748 661 LINE SMOOTH",
"897 661 OFFCURVE",
"1056 549 OFFCURVE",
"1056 442 QCURVE SMOOTH",
"1056 300 OFFCURVE",
"861 153 OFFCURVE",
"651 153 QCURVE SMOOTH",
"283 153 LINE"
);
}
);
width = 1366;
}
);
note = B;
unicode = 0042;
},
{
glyphname = C;
lastChange = "2019-11-18 22:49:30 +0000";
layers = (
{
layerId = "B8E4E6F7-CD69-4587-8CB0-DED49904045E";
paths = (
{
closed = 1;
nodes = (
"1215 426 LINE",
"1117 282 OFFCURVE",
"861 135 OFFCURVE",
"713 135 QCURVE SMOOTH",
"520 135 OFFCURVE",
"302 366 OFFCURVE",
"302 566 QCURVE SMOOTH",
"302 776 OFFCURVE",
"452 1097 OFFCURVE",
"732 1274 OFFCURVE",
"916 1274 QCURVE SMOOTH",
"1067 1274 OFFCURVE",
"1274 1142 OFFCURVE",
"1310 1030 QCURVE",
"1490 1085 LINE",
"1442 1249 OFFCURVE",
"1143 1430 OFFCURVE",
"926 1430 QCURVE SMOOTH",
"696 1430 OFFCURVE",
"323 1213 OFFCURVE",
"113 815 OFFCURVE",
"113 569 QCURVE SMOOTH",
"113 393 OFFCURVE",
"252 125 OFFCURVE",
"519 -20 OFFCURVE",
"700 -20 QCURVE SMOOTH",
"912 -20 OFFCURVE",
"1232 149 OFFCURVE",
"1358 337 QCURVE"
);
}
);
width = 1479;
}
);
note = C;
unicode = 0043;
},
{
glyphname = D;
lastChange = "2019-11-18 22:49:30 +0000";
layers = (
{
layerId = "B8E4E6F7-CD69-4587-8CB0-DED49904045E";
paths = (
{
closed = 1;
nodes = (
"336 1409 LINE",
"63 0 LINE",
"575 0 LINE SMOOTH",
"820 0 OFFCURVE",
"1207 201 OFFCURVE",
"1413 555 OFFCURVE",
"1413 791 QCURVE SMOOTH",
"1413 1080 OFFCURVE",
"1056 1409 OFFCURVE",
"744 1409 QCURVE SMOOTH"
);
},
{
closed = 1;
nodes = (
"498 1256 LINE",
"740 1256 LINE SMOOTH",
"967 1256 OFFCURVE",
"1219 1012 OFFCURVE",
"1219 793 QCURVE SMOOTH",
"1219 599 OFFCURVE",
"1060 308 OFFCURVE",
"762 153 OFFCURVE",
"567 153 QCURVE SMOOTH",
"283 153 LINE"
);
}
);
width = 1479;
}
);
note = D;
unicode = 0044;
},
{
glyphname = E;
lastChange = "2019-11-18 22:49:30 +0000";
layers = (
{
layerId = "B8E4E6F7-CD69-4587-8CB0-DED49904045E";
paths = (
{
closed = 1;
nodes = (
"1153 0 LINE",
"1183 156 LINE",
"284 156 LINE",
"379 647 LINE",
"1177 647 LINE",
"1207 801 LINE",
"409 801 LINE",
"497 1253 LINE",
"1355 1253 LINE",
"1385 1409 LINE",
"336 1409 LINE",
"63 0 LINE"
);
}
);
width = 1366;
}
);
note = E;
unicode = 0045;
},
{
glyphname = F;
lastChange = "2019-11-18 22:49:30 +0000";
layers = (
{
layerId = "B8E4E6F7-CD69-4587-8CB0-DED49904045E";
paths = (
{
closed = 1;
nodes = (
"1317 1253 LINE",
"1347 1409 LINE",
"336 1409 LINE",
"63 0 LINE",
"254 0 LINE",
"364 571 LINE",
"1160 571 LINE",
"1191 729 LINE",
"395 729 LINE",
"497 1253 LINE"
);
}
);
width = 1251;
}
);
note = F;
unicode = 0046;
},
{
glyphname = G;
lastChange = "2019-11-18 22:49:30 +0000";
layers = (
{
layerId = "B8E4E6F7-CD69-4587-8CB0-DED49904045E";
paths = (
{
closed = 1;
nodes = (
"933 -20 OFFCURVE",
"1250 90 OFFCURVE",
"1390 210 QCURVE",
"1490 705 LINE",
"893 705 LINE",
"861 545 LINE",
"1282 545 LINE",
"1231 291 LINE",
"1138 214 OFFCURVE",
"886 135 OFFCURVE",
"748 135 QCURVE SMOOTH",
"533 135 OFFCURVE",
"297 366 OFFCURVE",
"297 577 QCURVE SMOOTH",
"297 785 OFFCURVE",
"451 1102 OFFCURVE",
"740 1274 OFFCURVE",
"932 1274 QCURVE SMOOTH",
"1081 1274 OFFCURVE",
"1275 1159 OFFCURVE",
"1312 1044 QCURVE",
"1505 1098 LINE",
"1450 1262 OFFCURVE",
"1166 1430 OFFCURVE",
"944 1430 QCURVE SMOOTH",
"696 1430 OFFCURVE",
"311 1215 OFFCURVE",
"101 822 OFFCURVE",
"101 573 QCURVE SMOOTH",
"101 292 OFFCURVE",
"437 -20 OFFCURVE",
"742 -20 QCURVE SMOOTH"
);
}
);
width = 1593;
}
);
note = G;
unicode = 0047;
},
{
glyphname = H;
lastChange = "2019-11-18 22:49:30 +0000";
layers = (
{
layerId = "B8E4E6F7-CD69-4587-8CB0-DED49904045E";
paths = (
{
closed = 1;
nodes = (
"1207 0 LINE",
"1481 1409 LINE",
"1295 1409 LINE",
"1179 813 LINE",
"412 813 LINE",
"528 1409 LINE",
"337 1409 LINE",
"63 0 LINE",
"254 0 LINE",
"381 653 LINE",
"1148 653 LINE",
"1021 0 LINE"
);
}
);
width = 1479;
}
);
note = H;
unicode = 0048;
},
{
glyphname = I;
lastChange = "2019-11-18 22:49:30 +0000";
layers = (
{
layerId = "B8E4E6F7-CD69-4587-8CB0-DED49904045E";
paths = (
{
closed = 1;
nodes = (
"272 0 LINE",
"546 1409 LINE",
"355 1409 LINE",
"81 0 LINE"
);
}
);
width = 569;
}
);
note = I;
unicode = 0049;
},
{
glyphname = J;
lastChange = "2019-11-18 22:49:30 +0000";
layers = (
{
layerId = "B8E4E6F7-CD69-4587-8CB0-DED49904045E";
paths = (
{
closed = 1;
nodes = (
"576 -20 OFFCURVE",
"804 199 OFFCURVE",
"847 423 QCURVE SMOOTH",
"1040 1409 LINE",
"559 1409 LINE",
"529 1253 LINE",
"820 1253 LINE",
"663 440 LINE SMOOTH",
"633 280 OFFCURVE",
"503 135 OFFCURVE",
"398 135 QCURVE SMOOTH",
"298 135 OFFCURVE",
"186 259 OFFCURVE",
"163 376 QCURVE",
"-5 343 LINE",
"21 166 OFFCURVE",
"222 -20 OFFCURVE",
"381 -20 QCURVE SMOOTH"
);
}
);
width = 1024;
}
);
note = J;
unicode = 004A;
},
{
glyphname = K;
lastChange = "2019-11-18 22:49:30 +0000";
layers = (
{
layerId = "B8E4E6F7-CD69-4587-8CB0-DED49904045E";
paths = (
{
closed = 1;
nodes = (
"1248 0 LINE",
"691 779 LINE",
"1441 1409 LINE",
"1196 1409 LINE",
"531 847 LINE",
"391 718 LINE",
"527 1409 LINE",
"336 1409 LINE",
"63 0 LINE",
"254 0 LINE",
"360 545 LINE",
"550 674 LINE",
"1022 0 LINE"
);
}
);
width = 1366;
}
);
note = K;
unicode = 004B;
},
{
glyphname = L;
lastChange = "2019-11-18 22:49:30 +0000";
layers = (
{
layerId = "B8E4E6F7-CD69-4587-8CB0-DED49904045E";
paths = (
{
closed = 1;
nodes = (
"966 0 LINE",
"996 156 LINE",
"284 156 LINE",
"527 1409 LINE",
"336 1409 LINE",
"63 0 LINE"
);
}
);
width = 1139;
}
);
note = L;
unicode = 004C;
},
{
glyphname = M;
lastChange = "2019-11-18 22:49:30 +0000";
layers = (
{
layerId = "B8E4E6F7-CD69-4587-8CB0-DED49904045E";
paths = (
{
closed = 1;
nodes = (
"1433 0 LINE",
"1706 1409 LINE",
"1450 1409 LINE",
"897 440 LINE",
"793 227 LINE",
"769 393 OFFCURVE",
"761 432 QCURVE SMOOTH",
"572 1409 LINE",
"336 1409 LINE",
"63 0 LINE",
"233 0 LINE",
"412 913 OFFCURVE",
"454 1168 OFFCURVE",
"463 1228 QCURVE",
"498 977 OFFCURVE",
"504 948 QCURVE SMOOTH",
"689 0 LINE",
"813 0 LINE",
"1361 948 LINE SMOOTH",
"1415 1039 OFFCURVE",
"1506 1228 QCURVE",
"1477 1113 OFFCURVE",
"1441 928 QCURVE SMOOTH",
"1261 0 LINE"
);
}
);
width = 1706;
}
);
note = M;
unicode = 004D;
},
{
glyphname = N;
lastChange = "2019-11-18 22:49:30 +0000";
layers = (
{
layerId = "B8E4E6F7-CD69-4587-8CB0-DED49904045E";
paths = (
{
closed = 1;
nodes = (
"1207 0 LINE",
"1480 1409 LINE",
"1308 1409 LINE",
"1127 478 LINE SMOOTH",
"1108 383 OFFCURVE",
"1082 194 QCURVE",
"548 1409 LINE",
"336 1409 LINE",
"63 0 LINE",
"233 0 LINE",
"414 943 LINE SMOOTH",
"434 1039 OFFCURVE",
"456 1210 QCURVE",
"987 0 LINE"
);
}
);
width = 1479;
}
);
note = N;
unicode = 004E;
},
{
glyphname = O;
lastChange = "2019-11-18 22:49:30 +0000";
layers = (
{
layerId = "B8E4E6F7-CD69-4587-8CB0-DED49904045E";
paths = (
{
closed = 1;
nodes = (
"700 1430 OFFCURVE",
"322 1213 OFFCURVE",
"111 812 OFFCURVE",
"111 573 QCURVE SMOOTH",
"111 295 OFFCURVE",
"425 -20 OFFCURVE",
"709 -20 QCURVE SMOOTH",
"945 -20 OFFCURVE",
"1317 192 OFFCURVE",
"1531 583 OFFCURVE",
"1536 851 QCURVE SMOOTH",
"1536 1116 OFFCURVE",
"1215 1430 OFFCURVE",
"938 1430 QCURVE SMOOTH"
);
},
{
closed = 1;
nodes = (
"1128 1276 OFFCURVE",
"1345 1054 OFFCURVE",
"1345 847 QCURVE SMOOTH",
"1345 654 OFFCURVE",
"1192 308 OFFCURVE",
"915 135 OFFCURVE",
"718 135 QCURVE SMOOTH",
"515 135 OFFCURVE",
"302 354 OFFCURVE",
"302 563 QCURVE SMOOTH",
"302 744 OFFCURVE",
"450 1098 OFFCURVE",
"729 1276 OFFCURVE",
"929 1276 QCURVE SMOOTH"
);
}
);
width = 1593;
}
);
note = O;
unicode = 004F;
},
{
glyphname = P;
lastChange = "2019-11-18 22:49:30 +0000";
layers = (
{
layerId = "B8E4E6F7-CD69-4587-8CB0-DED49904045E";
paths = (
{
closed = 1;
nodes = (
"336 1409 LINE",
"63 0 LINE",
"254 0 LINE",
"360 549 LINE",
"784 549 LINE SMOOTH",
"1048 549 OFFCURVE",
"1353 800 OFFCURVE",
"1353 1020 QCURVE SMOOTH",
"1353 1201 OFFCURVE",
"1083 1409 OFFCURVE",
"852 1409 QCURVE SMOOTH"
);
},
{
closed = 1;
nodes = (
"498 1256 LINE",
"847 1256 LINE SMOOTH",
"1001 1256 OFFCURVE",
"1159 1130 OFFCURVE",
"1159 1011 QCURVE SMOOTH",
"1159 700 OFFCURVE",
"777 700 QCURVE SMOOTH",
"390 700 LINE"
);
}
);
width = 1366;
}
);
note = P;
unicode = 0050;
},
{
glyphname = Q;
lastChange = "2019-11-18 22:49:30 +0000";
layers = (
{
layerId = "B8E4E6F7-CD69-4587-8CB0-DED49904045E";
paths = (
{
closed = 1;
nodes = (
"690 1430 OFFCURVE",
"312 1213 OFFCURVE",
"101 812 OFFCURVE",
"101 573 QCURVE SMOOTH",
"101 310 OFFCURVE",
"385 0 OFFCURVE",
"638 -17 QCURVE",
"661 -215 OFFCURVE",
"823 -387 OFFCURVE",
"974 -387 QCURVE SMOOTH",
"1067 -387 OFFCURVE",
"1143 -365 QCURVE",
"1161 -231 LINE",
"1096 -244 OFFCURVE",
"1038 -244 QCURVE SMOOTH",
"939 -244 OFFCURVE",
"839 -133 OFFCURVE",
"822 -12 QCURVE",
"1028 15 OFFCURVE",
"1343 239 OFFCURVE",
"1521 607 OFFCURVE",
"1526 851 QCURVE SMOOTH",
"1526 1116 OFFCURVE",
"1205 1430 OFFCURVE",
"928 1430 QCURVE SMOOTH"
);
},
{
closed = 1;
nodes = (
"1118 1276 OFFCURVE",
"1335 1054 OFFCURVE",
"1335 847 QCURVE SMOOTH",
"1335 654 OFFCURVE",
"1182 308 OFFCURVE",
"905 135 OFFCURVE",
"708 135 QCURVE SMOOTH",
"505 135 OFFCURVE",
"292 354 OFFCURVE",
"292 563 QCURVE SMOOTH",
"292 744 OFFCURVE",
"440 1098 OFFCURVE",
"719 1276 OFFCURVE",
"919 1276 QCURVE SMOOTH"
);
}
);
width = 1593;
}
);
note = Q;
unicode = 0051;
},
{
glyphname = R;
lastChange = "2019-11-18 22:49:30 +0000";
layers = (
{
layerId = "B8E4E6F7-CD69-4587-8CB0-DED49904045E";
paths = (
{
closed = 1;
nodes = (
"1257 0 LINE",
"989 602 LINE",
"1200 631 OFFCURVE",
"1416 851 OFFCURVE",
"1416 1039 QCURVE SMOOTH",
"1416 1205 OFFCURVE",
"1162 1409 OFFCURVE",
"948 1409 QCURVE SMOOTH",
"336 1409 LINE",
"63 0 LINE",
"254 0 LINE",
"367 585 LINE",
"808 585 LINE",
"1051 0 LINE"
);
},
{
closed = 1;
nodes = (
"397 736 LINE",
"498 1256 LINE",
"925 1256 LINE SMOOTH",
"1073 1256 OFFCURVE",
"1222 1136 OFFCURVE",
"1222 1024 QCURVE SMOOTH",
"1222 887 OFFCURVE",
"1038 736 OFFCURVE",
"857 736 QCURVE SMOOTH"
);
}
);
width = 1479;
}
);
note = R;
unicode = 0052;
},
{
glyphname = S;
lastChange = "2019-11-18 22:49:30 +0000";
layers = (
{
layerId = "B8E4E6F7-CD69-4587-8CB0-DED49904045E";
paths = (
{
closed = 1;
nodes = (
"936 -20 OFFCURVE",
"1246 202 OFFCURVE",
"1246 408 QCURVE SMOOTH",
"1246 513 OFFCURVE",
"1155 656 OFFCURVE",
"984 756 OFFCURVE",
"789 810 QCURVE SMOOTH",
"615 857 OFFCURVE",
"498 914 OFFCURVE",
"447 990 OFFCURVE",
"447 1050 QCURVE SMOOTH",
"447 1286 OFFCURVE",
"823 1286 QCURVE SMOOTH",
"967 1286 OFFCURVE",
"1138 1186 OFFCURVE",
"1171 1081 QCURVE",
"1344 1132 LINE",
"1310 1278 OFFCURVE",
"1044 1430 OFFCURVE",
"824 1430 QCURVE SMOOTH",
"562 1430 OFFCURVE",
"255 1223 OFFCURVE",
"255 1041 QCURVE SMOOTH",
"255 943 OFFCURVE",
"342 803 OFFCURVE",
"511 704 OFFCURVE",
"682 657 QCURVE SMOOTH",
"853 609 OFFCURVE",
"993 544 OFFCURVE",
"1051 463 OFFCURVE",
"1051 396 QCURVE SMOOTH",
"1051 261 OFFCURVE",
"849 130 OFFCURVE",
"630 130 QCURVE SMOOTH",
"448 130 OFFCURVE",
"262 246 OFFCURVE",
"235 375 QCURVE",
"58 338 LINE",
"92 157 OFFCURVE",
"367 -20 OFFCURVE",
"616 -20 QCURVE SMOOTH"
);
}
);
width = 1366;
}
);
note = S;
unicode = 0053;
},
{
glyphname = T;
lastChange = "2019-11-18 22:49:30 +0000";
layers = (
{
layerId = "B8E4E6F7-CD69-4587-8CB0-DED49904045E";
paths = (
{
closed = 1;
nodes = (
"1342 1253 LINE",
"1372 1409 LINE",
"214 1409 LINE",
"184 1253 LINE",
"668 1253 LINE",
"424 0 LINE",
"614 0 LINE",
"858 1253 LINE"
);
}
);
width = 1251;
}
);
note = T;
unicode = 0054;
},
{
glyphname = U;
lastChange = "2019-11-18 22:49:30 +0000";
layers = (
{
layerId = "B8E4E6F7-CD69-4587-8CB0-DED49904045E";
paths = (
{
closed = 1;
nodes = (
"929 -20 OFFCURVE",
"1265 257 OFFCURVE",
"1319 530 QCURVE SMOOTH",
"1489 1409 LINE",
"1299 1409 LINE",
"1131 541 LINE SMOOTH",
"1054 135 OFFCURVE",
"670 135 QCURVE SMOOTH",
"513 135 OFFCURVE",
"338 287 OFFCURVE",
"338 423 QCURVE SMOOTH",
"338 479 OFFCURVE",
"355 566 QCURVE SMOOTH",
"517 1409 LINE",
"326 1409 LINE",
"176 635 LINE SMOOTH",
"168 598 OFFCURVE",
"153 475 OFFCURVE",
"153 431 QCURVE SMOOTH",
"153 221 OFFCURVE",
"421 -20 OFFCURVE",
"654 -20 QCURVE SMOOTH"
);
}
);
width = 1479;
}
);
note = U;
unicode = 0055;
},
{
glyphname = V;
lastChange = "2019-11-18 22:49:30 +0000";
layers = (
{
layerId = "B8E4E6F7-CD69-4587-8CB0-DED49904045E";
paths = (
{
closed = 1;
nodes = (
"1525 1409 LINE",
"1317 1409 LINE",
"737 417 LINE",
"604 168 LINE",
"569 417 LINE",
"371 1409 LINE",
"177 1409 LINE",
"479 0 LINE",
"677 0 LINE"
);
}
);
width = 1366;
}
);
note = V;
unicode = 0056;
},
{
glyphname = W;
lastChange = "2019-11-18 22:49:30 +0000";
layers = (
{
layerId = "B8E4E6F7-CD69-4587-8CB0-DED49904045E";
paths = (
{
closed = 1;
nodes = (
"2094 1409 LINE",
"1893 1409 LINE",
"1442 456 OFFCURVE",
"1382 318 OFFCURVE",
"1334 203 QCURVE SMOOTH",
"1318 168 LINE",
"1315 378 OFFCURVE",
"1301 532 QCURVE SMOOTH",
"1226 1409 LINE",
"1043 1409 LINE",
"651 584 OFFCURVE",
"548 356 OFFCURVE",
"469 168 QCURVE",
"465 359 OFFCURVE",
"453 514 QCURVE SMOOTH",
"374 1409 LINE",
"177 1409 LINE",
"319 0 LINE",
"542 0 LINE",
"961 895 LINE SMOOTH",
"1020 1020 OFFCURVE",
"1096 1219 QCURVE",
"1098 1170 OFFCURVE",
"1112 895 QCURVE",
"1183 0 LINE",
"1406 0 LINE"
);
}
);
width = 1933;
}
);
note = W;
unicode = 0057;
},
{
glyphname = X;
lastChange = "2019-11-18 22:49:30 +0000";
layers = (
{
layerId = "B8E4E6F7-CD69-4587-8CB0-DED49904045E";
paths = (
{
closed = 1;
nodes = (
"1198 0 LINE",
"830 733 LINE",
"1430 1409 LINE",
"1219 1409 LINE",
"744 858 LINE",
"474 1409 LINE",
"275 1409 LINE",
"615 746 LINE",
"-39 0 LINE",
"172 0 LINE",
"696 606 LINE",
"999 0 LINE"
);
}
);
width = 1366;
}
);
note = X;
unicode = 0058;
},
{
glyphname = Y;
lastChange = "2019-11-18 22:49:30 +0000";
layers = (
{
layerId = "B8E4E6F7-CD69-4587-8CB0-DED49904045E";
paths = (
{
closed = 1;
nodes = (
"785 584 LINE",
"1489 1409 LINE",
"1275 1409 LINE",
"715 735 LINE",
"409 1409 LINE",
"213 1409 LINE",
"597 584 LINE",
"482 0 LINE",
"672 0 LINE"
);
}
);
width = 1366;
}
);
note = Y;
unicode = 0059;
},
{
glyphname = Z;
lastChange = "2019-11-18 22:49:30 +0000";
layers = (
{
layerId = "B8E4E6F7-CD69-4587-8CB0-DED49904045E";
paths = (
{
closed = 1;
nodes = (
"1112 156 LINE",
"227 156 LINE",
"1281 1270 LINE",
"1308 1409 LINE",
"306 1409 LINE",
"276 1253 LINE",
"1041 1253 LINE",
"-13 143 LINE",
"-40 0 LINE",
"1082 0 LINE"
);
}
);
width = 1251;
}
);
note = Z;
unicode = 005A;
},
{
glyphname = bracketleft;
lastChange = "2019-11-18 22:49:30 +0000";
layers = (
{
layerId = "B8E4E6F7-CD69-4587-8CB0-DED49904045E";
paths = (
{
closed = 1;
nodes = (
"367 -425 LINE",
"392 -296 LINE",
"159 -296 LINE",
"480 1355 LINE",
"713 1355 LINE",
"738 1484 LINE",
"331 1484 LINE",
"-39 -425 LINE"
);
}
);
width = 569;
}
);
note = bracketleft;
unicode = 005B;
},
{
glyphname = backslash;
lastChange = "2019-11-18 22:49:30 +0000";
layers = (
{
layerId = "B8E4E6F7-CD69-4587-8CB0-DED49904045E";
paths = (
{
closed = 1;
nodes = (
"472 -20 LINE",
"294 1484 LINE",
"146 1484 LINE",
"320 -20 LINE"
);
}
);
width = 569;
}
);
note = backslash;
unicode = 005C;
},
{
glyphname = bracketright;
lastChange = "2019-11-18 22:49:30 +0000";
layers = (
{
layerId = "B8E4E6F7-CD69-4587-8CB0-DED49904045E";
paths = (
{
closed = 1;
nodes = (
"237 -425 LINE",
"608 1484 LINE",
"201 1484 LINE",
"176 1355 LINE",
"409 1355 LINE",
"88 -296 LINE",
"-144 -296 LINE",
"-169 -425 LINE"
);
}
);
width = 569;
}
);
note = bracketright;
unicode = 005D;
},
{
glyphname = asciicircum;
lastChange = "2019-11-18 22:49:30 +0000";
layers = (
{
layerId = "B8E4E6F7-CD69-4587-8CB0-DED49904045E";
paths = (
{
closed = 1;
nodes = (
"981 673 LINE",
"611 1409 LINE",
"408 1409 LINE",
"40 673 LINE",
"202 673 LINE",
"508 1306 LINE",
"817 673 LINE"
);
}
);
width = 961;
}
);
note = asciicircum;
unicode = 005E;
},
{
glyphname = underscore;
lastChange = "2019-11-18 22:49:30 +0000";
layers = (
{
layerId = "B8E4E6F7-CD69-4587-8CB0-DED49904045E";
paths = (
{
closed = 1;
nodes = (
"1018 -250 LINE",
"1018 -174 LINE",
"-160 -174 LINE",
"-160 -250 LINE"
);
}
);
width = 1139;
}
);
note = underscore;
unicode = 005F;
},
{
glyphname = grave;
lastChange = "2019-11-18 22:49:30 +0000";
layers = (
{
layerId = "B8E4E6F7-CD69-4587-8CB0-DED49904045E";
paths = (
{
closed = 1;
nodes = (
"500 1201 LINE",
"503 1221 LINE",
"342 1508 LINE",
"135 1508 LINE",
"130 1479 LINE",
"412 1201 LINE"
);
}
);
width = 682;
}
);
note = grave;
unicode = 0060;
},
{
glyphname = a;
lastChange = "2019-11-18 22:49:30 +0000";
layers = (
{
layerId = "B8E4E6F7-CD69-4587-8CB0-DED49904045E";
paths = (
{
closed = 1;
nodes = (
"989 -10 OFFCURVE",
"1055 6 QCURVE",
"1069 118 LINE",
"1036 111 OFFCURVE",
"1009 111 QCURVE SMOOTH",
"928 111 OFFCURVE",
"928 184 QCURVE SMOOTH",
"928 224 OFFCURVE",
"939 272 QCURVE SMOOTH",
"1013 650 LINE SMOOTH",
"1032 743 OFFCURVE",
"1032 807 QCURVE SMOOTH",
"1032 942 OFFCURVE",
"833 1102 OFFCURVE",
"662 1102 QCURVE SMOOTH",
"474 1102 OFFCURVE",
"251 969 OFFCURVE",
"206 822 QCURVE",
"384 793 LINE",
"411 880 OFFCURVE",
"533 965 OFFCURVE",
"652 965 QCURVE SMOOTH",
"746 965 OFFCURVE",
"852 878 OFFCURVE",
"852 787 QCURVE SMOOTH",
"852 758 OFFCURVE",
"833 660 QCURVE",
"601 657 LINE SMOOTH",
"311 653 OFFCURVE",
"46 463 OFFCURVE",
"46 278 QCURVE SMOOTH",
"46 148 OFFCURVE",
"221 -20 OFFCURVE",
"361 -20 QCURVE SMOOTH",
"487 -20 OFFCURVE",
"665 81 OFFCURVE",
"748 207 QCURVE",
"754 207 LINE",
"749 143 LINE",
"749 67 OFFCURVE",
"834 -10 OFFCURVE",
"927 -10 QCURVE SMOOTH"
);
},
{
closed = 1;
nodes = (
"782 411 LINE SMOOTH",
"766 334 OFFCURVE",
"664 200 OFFCURVE",
"508 117 OFFCURVE",
"411 117 QCURVE SMOOTH",
"334 117 OFFCURVE",
"237 211 OFFCURVE",
"237 286 QCURVE SMOOTH",
"237 348 OFFCURVE",
"280 435 OFFCURVE",
"355 492 OFFCURVE",
"491 529 OFFCURVE",
"610 532 QCURVE SMOOTH",
"809 536 LINE"
);
}
);
width = 1139;
}
);
note = a;
unicode = 0061;
},
{
glyphname = b;
lastChange = "2019-11-18 22:49:30 +0000";
layers = (
{
layerId = "B8E4E6F7-CD69-4587-8CB0-DED49904045E";
paths = (
{
closed = 1;
nodes = (
"625 1102 OFFCURVE",
"463 1016 OFFCURVE",
"390 921 QCURVE",
"386 921 LINE",
"412 1015 OFFCURVE",
"420 1061 QCURVE SMOOTH",
"503 1484 LINE",
"323 1484 LINE",
"78 223 LINE SMOOTH",
"63 149 OFFCURVE",
"34 15 OFFCURVE",
"29 0 QCURVE",
"202 0 LINE",
"204 3 OFFCURVE",
"238 141 OFFCURVE",
"245 178 QCURVE",
"248 178 LINE",
"280 84 OFFCURVE",
"434 -20 OFFCURVE",
"557 -20 QCURVE SMOOTH",
"730 -20 OFFCURVE",
"953 164 OFFCURVE",
"1076 545 OFFCURVE",
"1076 748 QCURVE SMOOTH",
"1076 913 OFFCURVE",
"901 1102 OFFCURVE",
"744 1102 QCURVE SMOOTH"
);
},
{
closed = 1;
nodes = (
"794 963 OFFCURVE",
"888 839 OFFCURVE",
"888 716 QCURVE SMOOTH",
"888 593 OFFCURVE",
"806 264 OFFCURVE",
"662 113 OFFCURVE",
"538 113 QCURVE SMOOTH",
"425 113 OFFCURVE",
"298 252 OFFCURVE",
"298 377 QCURVE SMOOTH",
"298 474 OFFCURVE",
"354 719 OFFCURVE",
"452 882 OFFCURVE",
"593 963 OFFCURVE",
"692 963 QCURVE SMOOTH"
);
}
);
width = 1139;
}
);
note = b;
unicode = 0062;
},
{
glyphname = c;
lastChange = "2019-11-18 22:49:30 +0000";
layers = (
{
layerId = "B8E4E6F7-CD69-4587-8CB0-DED49904045E";
paths = (
{
closed = 1;
nodes = (
"251 122 OFFCURVE",
"251 389 QCURVE SMOOTH",
"251 532 OFFCURVE",
"337 826 OFFCURVE",
"493 961 OFFCURVE",
"619 961 QCURVE SMOOTH",
"710 961 OFFCURVE",
"818 856 OFFCURVE",
"824 759 QCURVE",
"1001 784 LINE",
"991 932 OFFCURVE",
"794 1102 OFFCURVE",
"625 1102 QCURVE SMOOTH",
"451 1102 OFFCURVE",
"212 939 OFFCURVE",
"67 595 OFFCURVE",
"67 395 QCURVE SMOOTH",
"67 198 OFFCURVE",
"273 -20 OFFCURVE",
"465 -20 QCURVE SMOOTH",
"793 -20 OFFCURVE",
"914 303 QCURVE",
"758 352 LINE",
"674 122 OFFCURVE",
"469 122 QCURVE SMOOTH"
);
}
);
width = 1024;
}
);
note = c;
unicode = 0063;
},
{
glyphname = d;
lastChange = "2019-11-18 22:49:30 +0000";
layers = (
{
layerId = "B8E4E6F7-CD69-4587-8CB0-DED49904045E";
paths = (
{
closed = 1;
nodes = (
"519 -21 OFFCURVE",
"681 65 OFFCURVE",
"754 160 QCURVE",
"759 160 LINE",
"738 51 OFFCURVE",
"738 0 QCURVE",
"910 0 LINE",
"919 82 OFFCURVE",
"948 223 QCURVE SMOOTH",
"1193 1484 LINE",
"1013 1484 LINE",
"931 1065 LINE",
"903 903 LINE",
"898 903 LINE",
"866 997 OFFCURVE",
"711 1101 OFFCURVE",
"588 1101 QCURVE SMOOTH",
"415 1101 OFFCURVE",
"192 917 OFFCURVE",
"69 536 OFFCURVE",
"69 333 QCURVE SMOOTH",
"69 168 OFFCURVE",
"244 -21 OFFCURVE",
"401 -21 QCURVE SMOOTH"
);
},
{
closed = 1;
nodes = (
"351 118 OFFCURVE",
"257 242 OFFCURVE",
"257 365 QCURVE SMOOTH",
"257 494 OFFCURVE",
"343 823 OFFCURVE",
"485 968 OFFCURVE",
"607 968 QCURVE SMOOTH",
"720 968 OFFCURVE",
"847 829 OFFCURVE",
"847 704 QCURVE SMOOTH",
"847 607 OFFCURVE",
"791 362 OFFCURVE",
"693 199 OFFCURVE",
"552 118 OFFCURVE",
"453 118 QCURVE SMOOTH"
);
}
);
width = 1139;
}
);
note = d;
unicode = 0064;
},
{
glyphname = e;
lastChange = "2019-11-18 22:49:30 +0000";
layers = (
{
layerId = "B8E4E6F7-CD69-4587-8CB0-DED49904045E";
paths = (
{
closed = 1;
nodes = (
"1039 503 LINE",
"1063 603 OFFCURVE",
"1063 708 QCURVE SMOOTH",
"1063 896 OFFCURVE",
"835 1102 OFFCURVE",
"630 1102 QCURVE SMOOTH",
"469 1102 OFFCURVE",
"211 925 OFFCURVE",
"69 606 OFFCURVE",
"69 405 QCURVE SMOOTH",
"69 203 OFFCURVE",
"292 -20 OFFCURVE",
"493 -20 QCURVE SMOOTH",
"653 -20 OFFCURVE",
"878 100 OFFCURVE",
"951 231 QCURVE",
"813 294 LINE",
"769 211 OFFCURVE",
"611 115 OFFCURVE",
"514 115 QCURVE SMOOTH",
"380 115 OFFCURVE",
"247 257 OFFCURVE",
"247 390 QCURVE SMOOTH",
"250 468 OFFCURVE",
"256 503 QCURVE"
);
},
{
closed = 1;
nodes = (
"280 641 LINE",
"317 798 OFFCURVE",
"500 969 OFFCURVE",
"634 969 QCURVE SMOOTH",
"755 969 OFFCURVE",
"884 837 OFFCURVE",
"884 713 QCURVE",
"880 641 LINE"
);
}
);
width = 1139;
}
);
note = e;
unicode = 0065;
},
{
glyphname = f;
lastChange = "2019-11-18 22:49:30 +0000";
layers = (
{
layerId = "B8E4E6F7-CD69-4587-8CB0-DED49904045E";
paths = (
{
closed = 1;
nodes = (
"645 951 LINE",
"671 1082 LINE",
"460 1082 LINE",
"479 1179 LINE SMOOTH",
"499 1278 OFFCURVE",
"566 1343 OFFCURVE",
"629 1343 QCURVE SMOOTH",
"675 1341 LINE",
"720 1335 LINE",
"746 1472 LINE",
"696 1484 OFFCURVE",
"622 1484 QCURVE SMOOTH",
"525 1484 OFFCURVE",
"401 1427 OFFCURVE",
"326 1316 OFFCURVE",
"303 1204 QCURVE SMOOTH",
"280 1082 LINE",
"128 1082 LINE",
"102 951 LINE",
"254 951 LINE",
"69 0 LINE",
"249 0 LINE",
"434 951 LINE"
);
}
);
width = 569;
}
);
note = f;
unicode = 0066;
},
{
glyphname = g;
lastChange = "2019-11-18 22:49:30 +0000";
layers = (
{
layerId = "B8E4E6F7-CD69-4587-8CB0-DED49904045E";
paths = (
{
closed = 1;
nodes = (
"615 -425 OFFCURVE",
"863 -211 OFFCURVE",
"911 31 QCURVE SMOOTH",
"1072 858 LINE",
"1102 1000 LINE",
"1121 1082 LINE",
"950 1082 LINE",
"945 1073 OFFCURVE",
"909 934 OFFCURVE",
"902 897 QCURVE",
"900 897 LINE",
"876 987 OFFCURVE",
"709 1101 OFFCURVE",
"588 1101 QCURVE SMOOTH",
"461 1101 OFFCURVE",
"275 1004 OFFCURVE",
"145 800 OFFCURVE",
"70 492 OFFCURVE",
"70 359 QCURVE SMOOTH",
"70 193 OFFCURVE",
"257 -8 OFFCURVE",
"410 -8 QCURVE SMOOTH",
"487 -8 OFFCURVE",
"606 34 OFFCURVE",
"701 112 OFFCURVE",
"763 201 QCURVE",
"765 201 LINE",
"731 27 LINE SMOOTH",
"699 -141 OFFCURVE",
"543 -288 OFFCURVE",
"401 -288 QCURVE SMOOTH",
"202 -288 OFFCURVE",
"167 -131 QCURVE",
"4 -173 LINE",
"58 -425 OFFCURVE",
"397 -425 QCURVE SMOOTH"
);
},
{
closed = 1;
nodes = (
"259 473 OFFCURVE",
"315 736 OFFCURVE",
"397 894 OFFCURVE",
"517 968 OFFCURVE",
"607 968 QCURVE SMOOTH",
"719 968 OFFCURVE",
"847 829 OFFCURVE",
"847 704 QCURVE SMOOTH",
"847 556 OFFCURVE",
"750 282 OFFCURVE",
"574 125 OFFCURVE",
"466 125 QCURVE SMOOTH",
"364 125 OFFCURVE",
"259 252 OFFCURVE",
"259 373 QCURVE SMOOTH"
);
}
);
width = 1139;
}
);
note = g;
unicode = 0067;
},
{
glyphname = h;
lastChange = "2019-11-18 22:49:30 +0000";
layers = (
{
layerId = "B8E4E6F7-CD69-4587-8CB0-DED49904045E";
paths = (
{
closed = 1;
nodes = (
"380 897 LINE",
"409 998 OFFCURVE",
"427 1098 QCURVE SMOOTH",
"502 1484 LINE",
"322 1484 LINE",
"34 0 LINE",
"213 0 LINE",
"331 606 LINE SMOOTH",
"363 770 OFFCURVE",
"555 962 OFFCURVE",
"681 962 QCURVE SMOOTH",
"860 962 OFFCURVE",
"860 795 QCURVE SMOOTH",
"860 733 OFFCURVE",
"842 645 QCURVE SMOOTH",
"716 0 LINE",
"897 0 LINE",
"1024 653 LINE SMOOTH",
"1045 753 OFFCURVE",
"1045 817 QCURVE SMOOTH",
"1045 955 OFFCURVE",
"896 1101 OFFCURVE",
"748 1101 QCURVE SMOOTH",
"633 1101 OFFCURVE",
"466 1012 OFFCURVE",
"383 897 QCURVE"
);
}
);
width = 1139;
}
);
note = h;
unicode = 0068;
},
{
glyphname = i;
lastChange = "2019-11-18 22:49:30 +0000";
layers = (
{
layerId = "B8E4E6F7-CD69-4587-8CB0-DED49904045E";
paths = (
{
closed = 1;
nodes = (
"467 1312 LINE",
"501 1484 LINE",
"321 1484 LINE",
"287 1312 LINE"
);
},
{
closed = 1;
nodes = (
"212 0 LINE",
"423 1082 LINE",
"243 1082 LINE",
"33 0 LINE"
);
}
);
width = 455;
}
);
note = i;
unicode = 0069;
},
{
glyphname = j;
lastChange = "2019-11-18 22:49:30 +0000";
layers = (
{
layerId = "B8E4E6F7-CD69-4587-8CB0-DED49904045E";
paths = (
{
closed = 1;
nodes = (
"469 1312 LINE",
"502 1484 LINE",
"322 1484 LINE",
"289 1312 LINE"
);
},
{
closed = 1;
nodes = (
"16 -425 OFFCURVE",
"156 -292 OFFCURVE",
"187 -134 QCURVE SMOOTH",
"424 1082 LINE",
"244 1082 LINE",
"13 -107 LINE SMOOTH",
"-4 -199 OFFCURVE",
"-64 -283 OFFCURVE",
"-123 -283 QCURVE SMOOTH",
"-154 -283 OFFCURVE",
"-206 -275 QCURVE",
"-229 -411 LINE",
"-156 -425 OFFCURVE",
"-100 -425 QCURVE SMOOTH"
);
}
);
width = 455;
}
);
note = j;
unicode = 006A;
},
{
glyphname = k;
lastChange = "2019-11-18 22:49:30 +0000";
layers = (
{
layerId = "B8E4E6F7-CD69-4587-8CB0-DED49904045E";
paths = (
{
closed = 1;
nodes = (
"916 0 LINE",
"580 617 LINE",
"1110 1082 LINE",
"888 1082 LINE",
"527 757 LINE",
"323 567 LINE",
"502 1484 LINE",
"322 1484 LINE",
"34 0 LINE",
"213 0 LINE",
"285 378 LINE",
"453 502 LINE",
"721 0 LINE"
);
}
);
width = 1024;
}
);
note = k;
unicode = 006B;
},
{
glyphname = l;
lastChange = "2019-11-18 22:49:30 +0000";
layers = (
{
layerId = "B8E4E6F7-CD69-4587-8CB0-DED49904045E";
paths = (
{
closed = 1;
nodes = (
"212 0 LINE",
"501 1484 LINE",
"321 1484 LINE",
"33 0 LINE"
);
}
);
width = 455;
}
);
note = l;
unicode = 006C;
},
{
glyphname = m;
lastChange = "2019-11-18 22:49:30 +0000";
layers = (
{
layerId = "B8E4E6F7-CD69-4587-8CB0-DED49904045E";
paths = (
{
closed = 1;
nodes = (
"838 0 LINE",
"956 607 LINE SMOOTH",
"984 767 OFFCURVE",
"1156 962 OFFCURVE",
"1272 962 QCURVE SMOOTH",
"1358 962 OFFCURVE",
"1434 883 OFFCURVE",
"1434 808 QCURVE SMOOTH",
"1434 759 OFFCURVE",
"1409 634 QCURVE SMOOTH",
"1285 0 LINE",
"1463 0 LINE",
"1590 653 LINE SMOOTH",
"1611 753 OFFCURVE",
"1611 817 QCURVE SMOOTH",
"1611 955 OFFCURVE",
"1466 1101 OFFCURVE",
"1331 1101 QCURVE SMOOTH",
"1227 1101 OFFCURVE",
"1066 999 OFFCURVE",
"983 869 QCURVE",
"969 982 OFFCURVE",
"827 1101 OFFCURVE",
"706 1101 QCURVE SMOOTH",
"604 1101 OFFCURVE",
"457 1011 OFFCURVE",
"384 897 QCURVE",
"381 897 LINE",
"388 938 OFFCURVE",
"409 1071 OFFCURVE",
"409 1082 QCURVE",
"239 1082 LINE",
"220 946 OFFCURVE",
"200 851 QCURVE SMOOTH",
"34 0 LINE",
"213 0 LINE",
"331 604 LINE",
"358 764 OFFCURVE",
"531 962 OFFCURVE",
"647 962 QCURVE SMOOTH",
"733 962 OFFCURVE",
"809 883 OFFCURVE",
"809 808 QCURVE SMOOTH",
"809 759 OFFCURVE",
"784 634 QCURVE SMOOTH",
"660 0 LINE"
);
}
);
width = 1706;
}
);
note = m;
unicode = 006D;
},
{
glyphname = n;
lastChange = "2019-11-18 22:49:30 +0000";
layers = (
{
layerId = "B8E4E6F7-CD69-4587-8CB0-DED49904045E";
paths = (
{
closed = 1;
nodes = (
"898 0 LINE",
"1025 653 LINE SMOOTH",
"1046 753 OFFCURVE",
"1046 817 QCURVE SMOOTH",
"1046 955 OFFCURVE",
"897 1101 OFFCURVE",
"749 1101 QCURVE SMOOTH",
"634 1101 OFFCURVE",
"467 1012 OFFCURVE",
"384 897 QCURVE",
"381 897 LINE",
"388 938 OFFCURVE",
"409 1071 OFFCURVE",
"409 1082 QCURVE",
"239 1082 LINE",
"220 946 OFFCURVE",
"200 851 QCURVE SMOOTH",
"34 0 LINE",
"214 0 LINE",
"332 606 LINE SMOOTH",
"364 770 OFFCURVE",
"556 962 OFFCURVE",
"682 962 QCURVE SMOOTH",
"861 962 OFFCURVE",
"861 795 QCURVE SMOOTH",
"861 733 OFFCURVE",
"843 645 QCURVE SMOOTH",
"717 0 LINE"
);
}
);
width = 1139;
}
);
note = n;
unicode = 006E;
},
{
glyphname = o;
lastChange = "2019-11-18 22:49:30 +0000";
layers = (
{
layerId = "B8E4E6F7-CD69-4587-8CB0-DED49904045E";
paths = (
{
closed = 1;
nodes = (
"1074 882 OFFCURVE",
"852 1101 OFFCURVE",
"642 1101 QCURVE SMOOTH",
"459 1101 OFFCURVE",
"211 939 OFFCURVE",
"71 623 OFFCURVE",
"67 419 QCURVE SMOOTH",
"67 216 OFFCURVE",
"295 -20 OFFCURVE",
"491 -20 QCURVE SMOOTH",
"629 -20 OFFCURVE",
"845 77 OFFCURVE",
"994 272 OFFCURVE",
"1074 553 OFFCURVE",
"1074 683 QCURVE SMOOTH"
);
},
{
closed = 1;
nodes = (
"883 557 OFFCURVE",
"824 329 OFFCURVE",
"730 182 OFFCURVE",
"605 113 OFFCURVE",
"502 113 QCURVE SMOOTH",
"380 113 OFFCURVE",
"252 268 OFFCURVE",
"252 416 QCURVE SMOOTH",
"252 548 OFFCURVE",
"342 830 OFFCURVE",
"505 969 OFFCURVE",
"640 969 QCURVE SMOOTH",
"888 969 OFFCURVE",
"888 683 QCURVE"
);
}
);
width = 1139;
}
);
note = o;
unicode = 006F;
},
{
glyphname = p;
lastChange = "2019-11-18 22:49:30 +0000";
layers = (
{
layerId = "B8E4E6F7-CD69-4587-8CB0-DED49904045E";
paths = (
{
closed = 1;
nodes = (
"727 -20 OFFCURVE",
"950 164 OFFCURVE",
"1073 545 OFFCURVE",
"1073 748 QCURVE SMOOTH",
"1073 913 OFFCURVE",
"898 1102 OFFCURVE",
"741 1102 QCURVE SMOOTH",
"622 1102 OFFCURVE",
"460 1016 OFFCURVE",
"387 921 QCURVE",
"383 921 LINE",
"387 944 OFFCURVE",
"400 1055 OFFCURVE",
"400 1082 QCURVE",
"233 1082 LINE",
"221 972 OFFCURVE",
"198 861 QCURVE SMOOTH",
"-51 -425 LINE",
"128 -425 LINE",
"222 59 OFFCURVE",
"239 167 OFFCURVE",
"239 178 QCURVE",
"244 178 LINE",
"276 84 OFFCURVE",
"431 -20 OFFCURVE",
"554 -20 QCURVE SMOOTH"
);
},
{
closed = 1;
nodes = (
"791 963 OFFCURVE",
"885 839 OFFCURVE",
"885 716 QCURVE SMOOTH",
"885 593 OFFCURVE",
"803 264 OFFCURVE",
"659 113 OFFCURVE",
"535 113 QCURVE SMOOTH",
"422 113 OFFCURVE",
"295 252 OFFCURVE",
"295 377 QCURVE SMOOTH",
"295 474 OFFCURVE",
"351 719 OFFCURVE",
"449 882 OFFCURVE",
"590 963 OFFCURVE",
"689 963 QCURVE SMOOTH"
);
}
);
width = 1139;
}
);
note = p;
unicode = 0070;
},
{
glyphname = q;
lastChange = "2019-11-18 22:49:30 +0000";
layers = (
{
layerId = "B8E4E6F7-CD69-4587-8CB0-DED49904045E";
paths = (
{
closed = 1;
nodes = (
"520 -21 OFFCURVE",
"682 65 OFFCURVE",
"755 160 QCURVE",
"759 160 LINE",
"727 14 LINE",
"642 -425 LINE",
"822 -425 LINE",
"1060 801 LINE SMOOTH",
"1102 1018 OFFCURVE",
"1125 1096 QCURVE",
"952 1096 LINE",
"946 1085 OFFCURVE",
"914 957 OFFCURVE",
"903 903 QCURVE",
"898 903 LINE",
"866 997 OFFCURVE",
"711 1101 OFFCURVE",
"588 1101 QCURVE SMOOTH",
"415 1101 OFFCURVE",
"192 917 OFFCURVE",
"69 536 OFFCURVE",
"69 333 QCURVE SMOOTH",
"69 168 OFFCURVE",
"244 -21 OFFCURVE",
"401 -21 QCURVE SMOOTH"
);
},
{
closed = 1;
nodes = (
"351 118 OFFCURVE",
"257 242 OFFCURVE",
"257 365 QCURVE SMOOTH",
"257 494 OFFCURVE",
"343 823 OFFCURVE",
"485 968 OFFCURVE",
"607 968 QCURVE SMOOTH",
"720 968 OFFCURVE",
"847 829 OFFCURVE",
"847 704 QCURVE SMOOTH",
"847 607 OFFCURVE",
"791 362 OFFCURVE",
"693 199 OFFCURVE",
"552 118 OFFCURVE",
"453 118 QCURVE SMOOTH"
);
}
);
width = 1139;
}
);
note = q;
unicode = 0071;
},
{
glyphname = r;
lastChange = "2019-11-18 22:49:30 +0000";
layers = (
{
layerId = "B8E4E6F7-CD69-4587-8CB0-DED49904045E";
paths = (
{
closed = 1;
nodes = (
"751 1088 LINE",
"702 1102 OFFCURVE",
"656 1102 QCURVE SMOOTH",
"572 1102 OFFCURVE",
"444 994 OFFCURVE",
"378 861 QCURVE",
"374 861 LINE",
"409 1082 LINE",
"239 1082 LINE",
"221 968 LINE",
"196 830 LINE",
"34 0 LINE",
"214 0 LINE",
"324 564 LINE SMOOTH",
"354 731 OFFCURVE",
"523 951 OFFCURVE",
"628 951 QCURVE SMOOTH",
"674 951 OFFCURVE",
"718 938 QCURVE"
);
}
);
width = 682;
}
);
note = r;
unicode = 0072;
},
{
glyphname = s;
lastChange = "2019-11-18 22:49:30 +0000";
layers = (
{
layerId = "B8E4E6F7-CD69-4587-8CB0-DED49904045E";
paths = (
{
closed = 1;
nodes = (
"907 393 OFFCURVE",
"835 505 OFFCURVE",
"706 587 OFFCURVE",
"579 627 QCURVE SMOOTH",
"436 672 OFFCURVE",
"357 717 OFFCURVE",
"315 775 OFFCURVE",
"315 817 QCURVE SMOOTH",
"315 889 OFFCURVE",
"448 968 OFFCURVE",
"572 968 QCURVE SMOOTH",
"675 968 OFFCURVE",
"797 898 OFFCURVE",
"819 819 QCURVE",
"982 844 LINE",
"938 1099 OFFCURVE",
"584 1099 QCURVE SMOOTH",
"373 1099 OFFCURVE",
"141 942 OFFCURVE",
"141 797 QCURVE SMOOTH",
"141 726 OFFCURVE",
"209 619 OFFCURVE",
"337 539 OFFCURVE",
"465 497 QCURVE SMOOTH",
"630 446 OFFCURVE",
"732 363 OFFCURVE",
"732 301 QCURVE SMOOTH",
"732 208 OFFCURVE",
"584 111 OFFCURVE",
"441 111 QCURVE SMOOTH",
"324 111 OFFCURVE",
"185 191 OFFCURVE",
"152 279 QCURVE",
"5 223 LINE",
"46 97 OFFCURVE",
"251 -20 OFFCURVE",
"425 -20 QCURVE SMOOTH",
"659 -20 OFFCURVE",
"907 155 OFFCURVE",
"907 317 QCURVE SMOOTH"
);
}
);
width = 1024;
}
);
note = s;
unicode = 0073;
},
{
glyphname = t;
lastChange = "2019-11-18 22:49:30 +0000";
layers = (
{
layerId = "B8E4E6F7-CD69-4587-8CB0-DED49904045E";
paths = (
{
closed = 1;
nodes = (
"349 -20 OFFCURVE",
"448 4 QCURVE",
"467 137 LINE",
"409 123 OFFCURVE",
"367 123 QCURVE SMOOTH",
"277 123 OFFCURVE",
"277 211 QCURVE SMOOTH",
"277 246 OFFCURVE",
"289 306 QCURVE SMOOTH",
"414 951 LINE",
"614 951 LINE",
"640 1082 LINE",
"440 1082 LINE",
"487 1324 LINE",
"367 1324 LINE",
"262 1082 LINE",
"135 1082 LINE",
"109 951 LINE",
"234 951 LINE",
"108 296 LINE SMOOTH",
"93 221 OFFCURVE",
"93 166 QCURVE SMOOTH",
"93 82 OFFCURVE",
"190 -20 OFFCURVE",
"275 -20 QCURVE SMOOTH"
);
}
);
width = 569;
}
);
note = t;
unicode = 0074;
},
{
glyphname = u;
lastChange = "2019-11-18 22:49:30 +0000";
layers = (
{
layerId = "B8E4E6F7-CD69-4587-8CB0-DED49904045E";
paths = (
{
closed = 1;
nodes = (
"234 1082 LINE",
"107 429 LINE SMOOTH",
"86 329 OFFCURVE",
"86 265 QCURVE SMOOTH",
"86 127 OFFCURVE",
"235 -19 OFFCURVE",
"383 -19 QCURVE SMOOTH",
"498 -19 OFFCURVE",
"665 70 OFFCURVE",
"748 185 QCURVE",
"751 185 LINE",
"744 144 OFFCURVE",
"723 11 OFFCURVE",
"723 0 QCURVE",
"893 0 LINE",
"912 136 OFFCURVE",
"932 231 QCURVE SMOOTH",
"1098 1082 LINE",
"918 1082 LINE",
"800 476 LINE SMOOTH",
"768 312 OFFCURVE",
"576 120 OFFCURVE",
"450 120 QCURVE SMOOTH",
"271 120 OFFCURVE",
"271 287 QCURVE SMOOTH",
"271 349 OFFCURVE",
"289 437 QCURVE SMOOTH",
"415 1082 LINE"
);
}
);
width = 1139;
}
);
note = u;
unicode = 0075;
},
{
glyphname = v;
lastChange = "2019-11-18 22:49:30 +0000";
layers = (
{
layerId = "B8E4E6F7-CD69-4587-8CB0-DED49904045E";
paths = (
{
closed = 1;
nodes = (
"1122 1082 LINE",
"926 1082 LINE",
"542 376 LINE SMOOTH",
"494 288 OFFCURVE",
"449 194 QCURVE SMOOTH",
"423 141 LINE",
"419 194 LINE SMOOTH",
"409 310 OFFCURVE",
"400 378 QCURVE SMOOTH",
"299 1082 LINE",
"112 1082 LINE",
"294 0 LINE",
"507 0 LINE"
);
}
);
width = 1024;
}
);
note = v;
unicode = 0076;
},
{
glyphname = w;
lastChange = "2019-11-18 22:49:30 +0000";
layers = (
{
layerId = "B8E4E6F7-CD69-4587-8CB0-DED49904045E";
paths = (
{
closed = 1;
nodes = (
"1589 1082 LINE",
"1413 1082 LINE",
"1025 228 OFFCURVE",
"992 149 QCURVE",
"992 231 OFFCURVE",
"986 339 QCURVE SMOOTH",
"942 1082 LINE",
"749 1082 LINE",
"408 339 LINE",
"327 149 LINE",
"320 347 LINE",
"280 1082 LINE",
"102 1082 LINE",
"194 0 LINE",
"402 0 LINE",
"738 746 OFFCURVE",
"786 859 OFFCURVE",
"816 934 QCURVE",
"822 698 LINE",
"859 0 LINE",
"1068 0 LINE"
);
}
);
width = 1479;
}
);
note = w;
unicode = 0077;
},
{
glyphname = x;
lastChange = "2019-11-18 22:49:30 +0000";
layers = (
{
layerId = "B8E4E6F7-CD69-4587-8CB0-DED49904045E";
paths = (
{
closed = 1;
nodes = (
"896 0 LINE",
"615 558 LINE",
"1084 1082 LINE",
"878 1082 LINE",
"528 661 LINE",
"335 1082 LINE",
"146 1082 LINE",
"410 556 LINE",
"-82 0 LINE",
"117 0 LINE",
"497 444 LINE",
"706 0 LINE"
);
}
);
width = 1024;
}
);
note = x;
unicode = 0078;
},
{
glyphname = y;
lastChange = "2019-11-18 22:49:30 +0000";
layers = (
{
layerId = "B8E4E6F7-CD69-4587-8CB0-DED49904045E";
paths = (
{
closed = 1;
nodes = (
"108 -425 OFFCURVE",
"255 -348 OFFCURVE",
"390 -193 OFFCURVE",
"501 0 QCURVE SMOOTH",
"1127 1082 LINE",
"928 1082 LINE",
"491 282 OFFCURVE",
"459 218 OFFCURVE",
"449 196 QCURVE",
"448 223 OFFCURVE",
"422 404 OFFCURVE",
"407 484 QCURVE SMOOTH",
"295 1082 LINE",
"112 1082 LINE",
"329 12 LINE",
"302 -35 LINE SMOOTH",
"232 -157 OFFCURVE",
"87 -285 OFFCURVE",
"-8 -285 QCURVE SMOOTH",
"-40 -285 OFFCURVE",
"-85 -277 QCURVE",
"-116 -411 LINE",
"-56 -425 OFFCURVE",
"16 -425 QCURVE SMOOTH"
);
}
);
width = 1024;
}
);
note = y;
unicode = 0079;
},
{
glyphname = z;
lastChange = "2019-11-18 22:49:30 +0000";
layers = (
{
layerId = "B8E4E6F7-CD69-4587-8CB0-DED49904045E";
paths = (
{
closed = 1;
nodes = (
"826 0 LINE",
"851 139 LINE",
"230 139 LINE",
"972 945 LINE",
"996 1082 LINE",
"212 1082 LINE",
"187 943 LINE",
"753 943 LINE",
"11 137 LINE",
"-12 0 LINE"
);
}
);
width = 1024;
}
);
note = z;
unicode = 007A;
},
{
glyphname = braceleft;
lastChange = "2019-11-18 22:49:30 +0000";
layers = (
{
layerId = "B8E4E6F7-CD69-4587-8CB0-DED49904045E";
paths = (
{
closed = 1;
nodes = (
"462 -425 LINE",
"487 -296 LINE",
"439 -296 LINE SMOOTH",
"362 -296 OFFCURVE",
"293 -227 OFFCURVE",
"293 -171 QCURVE SMOOTH",
"293 -165 LINE SMOOTH",
"294 -148 OFFCURVE",
"301 -67 OFFCURVE",
"306 -43 QCURVE SMOOTH",
"367 276 LINE SMOOTH",
"373 308 OFFCURVE",
"373 335 QCURVE SMOOTH",
"373 413 OFFCURVE",
"292 513 OFFCURVE",
"223 530 QCURVE",
"223 532 LINE",
"316 554 OFFCURVE",
"447 689 OFFCURVE",
"466 784 QCURVE SMOOTH",
"535 1140 LINE SMOOTH",
"559 1261 OFFCURVE",
"656 1355 OFFCURVE",
"745 1355 QCURVE SMOOTH",
"808 1355 LINE",
"833 1484 LINE",
"698 1484 LINE SMOOTH",
"556 1484 OFFCURVE",
"405 1334 OFFCURVE",
"377 1191 QCURVE SMOOTH",
"307 829 LINE SMOOTH",
"284 712 OFFCURVE",
"156 597 OFFCURVE",
"46 593 QCURVE",
"21 466 LINE",
"106 462 OFFCURVE",
"199 389 OFFCURVE",
"199 306 QCURVE SMOOTH",
"199 273 OFFCURVE",
"190 229 QCURVE SMOOTH",
"134 -58 LINE SMOOTH",
"124 -113 OFFCURVE",
"124 -175 QCURVE SMOOTH",
"124 -292 OFFCURVE",
"255 -425 OFFCURVE",
"366 -425 QCURVE SMOOTH"
);
}
);
width = 684;
}
);
note = braceleft;
unicode = 007B;
},
{
glyphname = bar;
lastChange = "2019-11-18 22:49:30 +0000";
layers = (
{
layerId = "B8E4E6F7-CD69-4587-8CB0-DED49904045E";
paths = (
{
closed = 1;
nodes = (
"379 -454 LINE",
"379 1484 LINE",
"213 1484 LINE",
"213 -454 LINE"
);
}
);
width = 532;
}
);
note = bar;
unicode = 007C;
},
{
glyphname = braceright;
lastChange = "2019-11-18 22:49:30 +0000";
layers = (
{
layerId = "B8E4E6F7-CD69-4587-8CB0-DED49904045E";
paths = (
{
closed = 1;
nodes = (
"212 1484 LINE",
"187 1355 LINE",
"235 1355 LINE SMOOTH",
"312 1355 OFFCURVE",
"381 1286 OFFCURVE",
"381 1230 QCURVE SMOOTH",
"381 1224 LINE SMOOTH",
"380 1207 OFFCURVE",
"373 1126 OFFCURVE",
"368 1102 QCURVE SMOOTH",
"307 783 LINE SMOOTH",
"301 752 OFFCURVE",
"301 724 QCURVE SMOOTH",
"301 646 OFFCURVE",
"382 546 OFFCURVE",
"451 529 QCURVE",
"451 527 LINE",
"358 505 OFFCURVE",
"227 370 OFFCURVE",
"208 275 QCURVE SMOOTH",
"139 -81 LINE SMOOTH",
"115 -202 OFFCURVE",
"18 -296 OFFCURVE",
"-71 -296 QCURVE SMOOTH",
"-134 -296 LINE",
"-159 -425 LINE",
"-24 -425 LINE SMOOTH",
"118 -425 OFFCURVE",
"269 -275 OFFCURVE",
"297 -132 QCURVE SMOOTH",
"367 230 LINE SMOOTH",
"390 347 OFFCURVE",
"518 462 OFFCURVE",
"628 466 QCURVE",
"653 593 LINE",
"568 597 OFFCURVE",
"475 670 OFFCURVE",
"475 753 QCURVE SMOOTH",
"475 787 OFFCURVE",
"484 830 QCURVE SMOOTH",
"540 1117 LINE SMOOTH",
"550 1172 OFFCURVE",
"550 1234 QCURVE SMOOTH",
"550 1351 OFFCURVE",
"419 1484 OFFCURVE",
"308 1484 QCURVE SMOOTH"
);
}
);
width = 684;
}
);
note = braceright;
unicode = 007D;
},
{
glyphname = asciitilde;
lastChange = "2019-11-18 22:49:30 +0000";
layers = (
{
layerId = "B8E4E6F7-CD69-4587-8CB0-DED49904045E";
paths = (
{
closed = 1;
nodes = (
"959 553 OFFCURVE",
"1074 591 OFFCURVE",
"1134 633 QCURVE",
"1134 782 LINE",
"1020 690 OFFCURVE",
"890 690 QCURVE SMOOTH",
"854 690 OFFCURVE",
"767 710 OFFCURVE",
"620 761 QCURVE SMOOTH",
"487 807 OFFCURVE",
"385 807 QCURVE SMOOTH",
"233 807 OFFCURVE",
"122 723 QCURVE",
"122 580 LINE",
"187 627 OFFCURVE",
"303 668 OFFCURVE",
"370 668 QCURVE SMOOTH",
"458 668 OFFCURVE",
"587 623 QCURVE SMOOTH",
"660 597 OFFCURVE",
"805 553 OFFCURVE",
"874 553 QCURVE SMOOTH"
);
}
);
width = 1196;
}
);
note = asciitilde;
unicode = 007E;
},
{
glyphname = dagger;
lastChange = "2019-11-18 22:49:30 +0000";
layers = (
{
layerId = "B8E4E6F7-CD69-4587-8CB0-DED49904045E";
paths = (
{
closed = 1;
nodes = (
"1080 973 LINE",
"1112 1137 LINE",
"753 1108 LINE",
"854 1484 LINE",
"639 1484 LINE",
"594 1108 LINE",
"248 1137 LINE",
"216 973 LINE",
"573 1000 LINE",
"374 -138 LINE",
"489 -138 LINE",
"732 1000 LINE"
);
}
);
width = 1139;
}
);
note = dagger;
unicode = 2020;
},
{
glyphname = degree;
lastChange = "2019-11-18 22:49:30 +0000";
layers = (
{
layerId = "B8E4E6F7-CD69-4587-8CB0-DED49904045E";
paths = (
{
closed = 1;
nodes = (
"770 1264 OFFCURVE",
"603 1430 OFFCURVE",
"483 1430 QCURVE SMOOTH",
"363 1430 OFFCURVE",
"196 1262 OFFCURVE",
"196 1145 QCURVE SMOOTH",
"196 1028 OFFCURVE",
"365 860 OFFCURVE",
"483 860 QCURVE SMOOTH",
"601 860 OFFCURVE",
"770 1026 OFFCURVE",
"770 1145 QCURVE SMOOTH"
);
},
{
closed = 1;
nodes = (
"661 1070 OFFCURVE",
"557 965 OFFCURVE",
"483 965 QCURVE SMOOTH",
"410 965 OFFCURVE",
"305 1071 OFFCURVE",
"305 1145 QCURVE SMOOTH",
"305 1219 OFFCURVE",
"408 1325 OFFCURVE",
"483 1325 QCURVE SMOOTH",
"558 1325 OFFCURVE",
"661 1221 OFFCURVE",
"661 1145 QCURVE SMOOTH"
);
}
);
width = 819;
}
);
note = degree;
unicode = 00B0;
},
{
glyphname = cent;
lastChange = "2019-11-18 22:49:30 +0000";
layers = (
{
layerId = "B8E4E6F7-CD69-4587-8CB0-DED49904045E";
paths = (
{
closed = 1;
nodes = (
"342 278 OFFCURVE",
"342 545 QCURVE SMOOTH",
"342 688 OFFCURVE",
"428 982 OFFCURVE",
"584 1117 OFFCURVE",
"710 1117 QCURVE SMOOTH",
"801 1117 OFFCURVE",
"909 1012 OFFCURVE",
"915 915 QCURVE",
"1092 940 LINE",
"1084 1068 OFFCURVE",
"937 1232 OFFCURVE",
"806 1251 QCURVE",
"835 1409 LINE",
"711 1409 LINE",
"683 1257 LINE",
"550 1251 OFFCURVE",
"364 1148 OFFCURVE",
"234 960 OFFCURVE",
"158 687 OFFCURVE",
"158 551 QCURVE SMOOTH",
"158 377 OFFCURVE",
"317 164 OFFCURVE",
"466 142 QCURVE",
"432 -31 LINE",
"556 -31 LINE",
"588 136 LINE",
"889 151 OFFCURVE",
"1005 459 QCURVE",
"849 508 LINE",
"765 278 OFFCURVE",
"560 278 QCURVE SMOOTH"
);
}
);
width = 1139;
}
);
note = cent;
unicode = 00A2;
},
{
glyphname = sterling;
lastChange = "2019-11-18 22:49:30 +0000";
layers = (
{
layerId = "B8E4E6F7-CD69-4587-8CB0-DED49904045E";
paths = (
{
closed = 1;
nodes = (
"924 334 LINE",
"898 238 OFFCURVE",
"769 153 OFFCURVE",
"666 153 QCURVE SMOOTH",
"202 153 LINE",
"291 195 OFFCURVE",
"416 367 OFFCURVE",
"436 478 QCURVE SMOOTH",
"463 625 LINE",
"871 625 LINE",
"896 754 LINE",
"488 754 LINE",
"544 1042 LINE SMOOTH",
"568 1167 OFFCURVE",
"695 1282 OFFCURVE",
"809 1282 QCURVE SMOOTH",
"882 1282 OFFCURVE",
"994 1214 OFFCURVE",
"1014 1150 QCURVE",
"1178 1200 LINE",
"1155 1305 OFFCURVE",
"964 1430 OFFCURVE",
"816 1430 QCURVE SMOOTH",
"628 1430 OFFCURVE",
"403 1239 OFFCURVE",
"363 1034 QCURVE SMOOTH",
"308 754 LINE",
"122 754 LINE",
"97 625 LINE",
"283 625 LINE",
"255 481 LINE SMOOTH",
"231 357 OFFCURVE",
"114 200 OFFCURVE",
"17 154 QCURVE",
"-12 0 LINE",
"688 0 LINE SMOOTH",
"838 0 OFFCURVE",
"1038 158 OFFCURVE",
"1075 310 QCURVE"
);
}
);
width = 1139;
}
);
note = sterling;
unicode = 00A3;
},
{
glyphname = section;
lastChange = "2019-11-18 22:49:30 +0000";
layers = (
{
layerId = "B8E4E6F7-CD69-4587-8CB0-DED49904045E";
paths = (
{
closed = 1;
nodes = (
"1010 783 OFFCURVE",
"862 942 OFFCURVE",
"680 999 QCURVE SMOOTH",
"525 1049 OFFCURVE",
"418 1135 OFFCURVE",
"418 1190 QCURVE SMOOTH",
"418 1353 OFFCURVE",
"688 1353 QCURVE SMOOTH",
"881 1353 OFFCURVE",
"922 1204 QCURVE",
"1085 1229 LINE",
"1041 1484 OFFCURVE",
"695 1484 QCURVE SMOOTH",
"478 1484 OFFCURVE",
"244 1327 OFFCURVE",
"244 1182 QCURVE SMOOTH",
"244 1042 OFFCURVE",
"378 957 QCURVE",
"243 927 OFFCURVE",
"102 783 OFFCURVE",
"102 673 QCURVE SMOOTH",
"102 448 OFFCURVE",
"427 348 QCURVE SMOOTH",
"587 299 OFFCURVE",
"693 212 OFFCURVE",
"693 149 QCURVE SMOOTH",
"693 56 OFFCURVE",
"545 -41 OFFCURVE",
"402 -41 QCURVE SMOOTH",
"285 -41 OFFCURVE",
"146 39 OFFCURVE",
"113 127 QCURVE",
"-34 71 LINE",
"6 -55 OFFCURVE",
"212 -172 OFFCURVE",
"383 -172 QCURVE SMOOTH",
"620 -172 OFFCURVE",
"868 3 OFFCURVE",
"868 165 QCURVE SMOOTH",
"868 305 OFFCURVE",
"736 388 QCURVE",
"1010 449 OFFCURVE",
"1010 673 QCURVE SMOOTH"
);
},
{
closed = 1;
nodes = (
"276 772 OFFCURVE",
"416 880 OFFCURVE",
"533 886 QCURVE",
"670 846 OFFCURVE",
"778 788 OFFCURVE",
"835 713 OFFCURVE",
"835 662 QCURVE SMOOTH",
"835 574 OFFCURVE",
"682 473 OFFCURVE",
"550 468 QCURVE",
"399 514 OFFCURVE",
"276 619 OFFCURVE",
"276 688 QCURVE SMOOTH"
);
}
);
width = 1139;
}
);
note = section;
unicode = 00A7;
},
{
glyphname = bullet;
lastChange = "2019-11-18 22:49:30 +0000";
layers = (
{
layerId = "B8E4E6F7-CD69-4587-8CB0-DED49904045E";
paths = (
{
closed = 1;
nodes = (
"652 797 OFFCURVE",
"486 956 OFFCURVE",
"371 956 QCURVE SMOOTH",
"259 956 OFFCURVE",
"97 797 OFFCURVE",
"97 682 QCURVE SMOOTH",
"97 565 OFFCURVE",
"260 401 OFFCURVE",
"371 401 QCURVE SMOOTH",
"485 401 OFFCURVE",
"652 565 OFFCURVE",
"652 682 QCURVE SMOOTH"
);
}
);
width = 717;
}
);
note = bullet;
unicode = 2022;
},
{
glyphname = paragraph;
lastChange = "2019-11-18 22:49:30 +0000";
layers = (
{
layerId = "B8E4E6F7-CD69-4587-8CB0-DED49904045E";
paths = (
{
closed = 1;
nodes = (
"1077 1307 LINE",
"1077 1409 LINE",
"514 1409 LINE SMOOTH",
"341 1409 OFFCURVE",
"144 1218 OFFCURVE",
"144 1049 QCURVE SMOOTH",
"144 879 OFFCURVE",
"338 694 OFFCURVE",
"506 694 QCURVE",
"506 -264 LINE",
"619 -264 LINE",
"619 1307 LINE",
"836 1307 LINE",
"836 -264 LINE",
"948 -264 LINE",
"948 1307 LINE"
);
}
);
width = 1100;
}
);
note = paragraph;
unicode = 00B6;
},
{
glyphname = germandbls;
lastChange = "2019-11-18 22:49:30 +0000";
layers = (
{
layerId = "B8E4E6F7-CD69-4587-8CB0-DED49904045E";
paths = (
{
closed = 1;
nodes = (
"214 0 LINE",
"412 1021 LINE SMOOTH",
"444 1184 OFFCURVE",
"608 1343 OFFCURVE",
"753 1343 QCURVE SMOOTH",
"855 1343 OFFCURVE",
"975 1255 OFFCURVE",
"975 1186 QCURVE SMOOTH",
"975 1128 OFFCURVE",
"905 1039 OFFCURVE",
"823 991 QCURVE SMOOTH",
"747 946 OFFCURVE",
"670 832 OFFCURVE",
"670 756 QCURVE SMOOTH",
"670 699 OFFCURVE",
"736 592 OFFCURVE",
"809 529 QCURVE SMOOTH",
"883 464 OFFCURVE",
"947 361 OFFCURVE",
"947 305 QCURVE SMOOTH",
"947 214 OFFCURVE",
"829 115 OFFCURVE",
"719 115 QCURVE SMOOTH",
"589 115 OFFCURVE",
"473 169 QCURVE",
"417 26 LINE",
"465 3 OFFCURVE",
"628 -29 OFFCURVE",
"714 -29 QCURVE SMOOTH",
"907 -29 OFFCURVE",
"1123 149 OFFCURVE",
"1123 308 QCURVE SMOOTH",
"1123 448 OFFCURVE",
"983 579 QCURVE SMOOTH",
"904 652 OFFCURVE",
"842 737 OFFCURVE",
"842 777 QCURVE SMOOTH",
"842 813 OFFCURVE",
"901 875 OFFCURVE",
"997 940 QCURVE SMOOTH",
"1152 1045 OFFCURVE",
"1152 1196 QCURVE SMOOTH",
"1152 1322 OFFCURVE",
"939 1484 OFFCURVE",
"762 1484 QCURVE SMOOTH",
"542 1484 OFFCURVE",
"281 1264 OFFCURVE",
"234 1027 QCURVE SMOOTH",
"34 0 LINE"
);
}
);
width = 1251;
}
);
note = germandbls;
unicode = 00DF;
},
{
glyphname = registered;
lastChange = "2019-11-18 22:49:30 +0000";
layers = (
{
layerId = "B8E4E6F7-CD69-4587-8CB0-DED49904045E";
paths = (
{
closed = 1;
nodes = (
"1509 901 OFFCURVE",
"1317 1235 OFFCURVE",
"980 1430 OFFCURVE",
"786 1430 QCURVE SMOOTH",
"593 1430 OFFCURVE",
"257 1236 OFFCURVE",
"63 900 OFFCURVE",
"63 707 QCURVE SMOOTH",
"63 518 OFFCURVE",
"250 185 OFFCURVE",
"589 -16 OFFCURVE",
"786 -16 QCURVE SMOOTH",
"979 -16 OFFCURVE",
"1316 177 OFFCURVE",
"1509 514 OFFCURVE",
"1509 707 QCURVE SMOOTH"
);
},
{
closed = 1;
nodes = (
"1417 538 OFFCURVE",
"1249 247 OFFCURVE",
"956 78 OFFCURVE",
"786 78 QCURVE SMOOTH",
"617 78 OFFCURVE",
"327 246 OFFCURVE",
"158 538 OFFCURVE",
"158 707 QCURVE SMOOTH",
"158 874 OFFCURVE",
"326 1166 OFFCURVE",
"618 1335 OFFCURVE",
"786 1335 QCURVE SMOOTH",
"955 1335 OFFCURVE",
"1248 1166 OFFCURVE",
"1417 875 OFFCURVE",
"1417 707 QCURVE SMOOTH"
);
},
{
closed = 1;
nodes = (
"1132 289 LINE",
"911 639 LINE",
"996 658 OFFCURVE",
"1100 781 OFFCURVE",
"1100 883 QCURVE SMOOTH",
"1100 994 OFFCURVE",
"949 1120 OFFCURVE",
"807 1120 QCURVE SMOOTH",
"500 1120 LINE",
"500 289 LINE",
"627 289 LINE",
"627 625 LINE",
"788 625 LINE",
"987 289 LINE"
);
},
{
closed = 1;
nodes = (
"973 806 OFFCURVE",
"889 721 OFFCURVE",
"809 721 QCURVE SMOOTH",
"627 721 LINE",
"627 1022 LINE",
"797 1022 LINE SMOOTH",
"878 1022 OFFCURVE",
"973 950 OFFCURVE",
"973 881 QCURVE SMOOTH"
);
}
);
width = 1509;
}
);
note = registered;
unicode = 00AE;
},
{
glyphname = copyright;
lastChange = "2019-11-18 22:49:30 +0000";
layers = (
{
layerId = "B8E4E6F7-CD69-4587-8CB0-DED49904045E";
paths = (
{
closed = 1;
nodes = (
"1509 901 OFFCURVE",
"1317 1235 OFFCURVE",
"980 1430 OFFCURVE",
"786 1430 QCURVE SMOOTH",
"593 1430 OFFCURVE",
"257 1236 OFFCURVE",
"63 900 OFFCURVE",
"63 707 QCURVE SMOOTH",
"63 518 OFFCURVE",
"250 185 OFFCURVE",
"589 -16 OFFCURVE",
"786 -16 QCURVE SMOOTH",
"979 -16 OFFCURVE",
"1316 177 OFFCURVE",
"1509 514 OFFCURVE",
"1509 707 QCURVE SMOOTH"
);
},
{
closed = 1;
nodes = (
"1417 538 OFFCURVE",
"1249 247 OFFCURVE",
"956 78 OFFCURVE",
"786 78 QCURVE SMOOTH",
"617 78 OFFCURVE",
"327 246 OFFCURVE",
"158 538 OFFCURVE",
"158 707 QCURVE SMOOTH",
"158 874 OFFCURVE",
"326 1166 OFFCURVE",
"618 1335 OFFCURVE",
"786 1335 QCURVE SMOOTH",
"955 1335 OFFCURVE",
"1248 1166 OFFCURVE",
"1417 875 OFFCURVE",
"1417 707 QCURVE SMOOTH"
);
},
{
closed = 1;
nodes = (
"914 279 OFFCURVE",
"1083 383 OFFCURVE",
"1145 504 QCURVE",
"1030 539 LINE",
"990 458 OFFCURVE",
"875 383 OFFCURVE",
"797 383 QCURVE SMOOTH",
"672 383 OFFCURVE",
"530 554 OFFCURVE",
"530 709 QCURVE SMOOTH",
"530 867 OFFCURVE",
"665 1028 OFFCURVE",
"792 1028 QCURVE SMOOTH",
"868 1028 OFFCURVE",
"984 960 OFFCURVE",
"1016 891 QCURVE",
"1130 924 LINE",
"1034 1133 OFFCURVE",
"790 1133 QCURVE SMOOTH",
"601 1133 OFFCURVE",
"401 912 OFFCURVE",
"401 709 QCURVE SMOOTH",
"401 505 OFFCURVE",
"609 279 OFFCURVE",
"797 279 QCURVE SMOOTH"
);
}
);
width = 1509;
}
);
note = copyright;
unicode = 00A9;
},
{
glyphname = trademark;
lastChange = "2019-11-18 22:49:30 +0000";
layers = (
{
layerId = "B8E4E6F7-CD69-4587-8CB0-DED49904045E";
paths = (
{
closed = 1;
nodes = (
"1817 634 LINE",
"1817 1409 LINE",
"1633 1409 LINE",
"1465 996 LINE",
"1391 804 LINE",
"1376 846 LINE",
"1153 1409 LINE",
"963 1409 LINE",
"963 634 LINE",
"1091 634 LINE",
"1091 1217 LINE",
"1093 1253 LINE",
"1170 1047 LINE",
"1333 634 LINE",
"1441 634 LINE",
"1683 1231 LINE",
"1691 1253 LINE",
"1691 634 LINE"
);
},
{
closed = 1;
nodes = (
"838 1298 LINE",
"838 1409 LINE",
"188 1409 LINE",
"188 1298 LINE",
"443 1298 LINE",
"443 634 LINE",
"577 634 LINE",
"577 1298 LINE"
);
}
);
width = 2048;
}
);
note = trademark;
unicode = 2122;
},
{
glyphname = acute;
lastChange = "2019-11-18 22:49:30 +0000";
layers = (
{
layerId = "B8E4E6F7-CD69-4587-8CB0-DED49904045E";
paths = (
{
closed = 1;
nodes = (
"269 1201 LINE",
"643 1479 LINE",
"648 1508 LINE",
"431 1508 LINE",
"178 1221 LINE",
"175 1201 LINE"
);
}
);
width = 682;
}
);
note = acute;
unicode = 00B4;
},
{
glyphname = dieresis;
lastChange = "2019-11-18 22:49:30 +0000";
layers = (
{
layerId = "B8E4E6F7-CD69-4587-8CB0-DED49904045E";
paths = (
{
closed = 1;
nodes = (
"694 1219 LINE",
"729 1403 LINE",
"556 1403 LINE",
"521 1219 LINE"
);
},
{
closed = 1;
nodes = (
"312 1219 LINE",
"347 1403 LINE",
"172 1403 LINE",
"137 1219 LINE"
);
}
);
width = 682;
}
);
note = dieresis;
unicode = 00A8;
},
{
glyphname = notequal;
lastChange = "2019-11-18 22:49:30 +0000";
layers = (
{
layerId = "B8E4E6F7-CD69-4587-8CB0-DED49904045E";
paths = (
{
closed = 1;
nodes = (
"1060 344 LINE",
"1060 492 LINE",
"519 492 LINE",
"710 856 LINE",
"1060 856 LINE",
"1060 1004 LINE",
"783 1004 LINE",
"935 1296 LINE",
"792 1296 LINE",
"638 1004 LINE",
"65 1004 LINE",
"65 856 LINE",
"566 856 LINE",
"376 492 LINE",
"65 492 LINE",
"65 344 LINE",
"302 344 LINE",
"151 55 LINE",
"296 55 LINE",
"448 344 LINE"
);
}
);
width = 1124;
}
);
note = notequal;
unicode = 2260;
},
{
glyphname = AE;
lastChange = "2019-11-18 22:49:30 +0000";
layers = (
{
layerId = "B8E4E6F7-CD69-4587-8CB0-DED49904045E";
paths = (
{
closed = 1;
nodes = (
"1834 0 LINE",
"1865 156 LINE",
"1085 156 LINE",
"1180 647 LINE",
"1859 647 LINE",
"1889 801 LINE",
"1210 801 LINE",
"1298 1253 LINE",
"2037 1253 LINE",
"2067 1409 LINE",
"878 1409 LINE",
"-81 0 LINE",
"122 0 LINE",
"401 412 LINE",
"944 412 LINE",
"863 0 LINE"
);
},
{
closed = 1;
nodes = (
"973 561 LINE",
"500 561 LINE",
"822 1046 LINE",
"958 1262 LINE",
"1109 1262 LINE"
);
}
);
width = 2048;
}
);
note = AE;
unicode = 00C6;
},
{
glyphname = Oslash;
lastChange = "2019-11-18 22:49:30 +0000";
layers = (
{
layerId = "B8E4E6F7-CD69-4587-8CB0-DED49904045E";
paths = (
{
closed = 1;
nodes = (
"1691 1466 LINE",
"1499 1466 LINE",
"1332 1303 LINE",
"1176 1430 OFFCURVE",
"928 1430 QCURVE SMOOTH",
"690 1430 OFFCURVE",
"312 1213 OFFCURVE",
"101 812 OFFCURVE",
"101 573 QCURVE SMOOTH",
"101 350 OFFCURVE",
"204 201 QCURVE",
"-56 -53 LINE",
"133 -53 LINE",
"294 104 LINE",
"447 -20 OFFCURVE",
"699 -20 QCURVE SMOOTH",
"935 -20 OFFCURVE",
"1307 192 OFFCURVE",
"1521 583 OFFCURVE",
"1526 851 QCURVE SMOOTH",
"1526 1060 OFFCURVE",
"1423 1205 QCURVE"
);
},
{
closed = 1;
nodes = (
"1099 1276 OFFCURVE",
"1208 1182 QCURVE",
"338 332 LINE",
"292 427 OFFCURVE",
"292 563 QCURVE SMOOTH",
"292 744 OFFCURVE",
"440 1098 OFFCURVE",
"719 1276 OFFCURVE",
"919 1276 QCURVE SMOOTH"
);
},
{
closed = 1;
nodes = (
"1335 654 OFFCURVE",
"1182 308 OFFCURVE",
"905 135 OFFCURVE",
"708 135 QCURVE SMOOTH",
"524 135 OFFCURVE",
"419 226 QCURVE",
"1289 1074 LINE",
"1335 980 OFFCURVE",
"1335 847 QCURVE SMOOTH"
);
}
);
width = 1593;
}
);
note = Oslash;
unicode = 00D8;
},
{
glyphname = infinity;
lastChange = "2019-11-18 22:49:30 +0000";
layers = (
{
layerId = "B8E4E6F7-CD69-4587-8CB0-DED49904045E";
paths = (
{
closed = 1;
nodes = (
"1391 763 OFFCURVE",
"1222 977 OFFCURVE",
"1082 977 QCURVE SMOOTH",
"890 977 OFFCURVE",
"747 700 QCURVE",
"619 983 OFFCURVE",
"418 983 QCURVE SMOOTH",
"282 983 OFFCURVE",
"105 767 OFFCURVE",
"105 596 QCURVE SMOOTH",
"105 420 OFFCURVE",
"279 209 OFFCURVE",
"418 209 QCURVE SMOOTH",
"508 209 OFFCURVE",
"682 358 OFFCURVE",
"745 485 QCURVE",
"877 203 OFFCURVE",
"1080 203 QCURVE SMOOTH",
"1215 203 OFFCURVE",
"1391 424 OFFCURVE",
"1391 590 QCURVE SMOOTH"
);
},
{
closed = 1;
nodes = (
"1143 846 OFFCURVE",
"1252 699 OFFCURVE",
"1252 592 QCURVE SMOOTH",
"1252 479 OFFCURVE",
"1143 334 OFFCURVE",
"1060 334 QCURVE SMOOTH",
"983 334 OFFCURVE",
"864 462 OFFCURVE",
"813 590 QCURVE",
"869 720 OFFCURVE",
"988 846 OFFCURVE",
"1058 846 QCURVE SMOOTH"
);
},
{
closed = 1;
nodes = (
"626 466 OFFCURVE",
"506 340 OFFCURVE",
"436 340 QCURVE SMOOTH",
"349 340 OFFCURVE",
"245 482 OFFCURVE",
"245 594 QCURVE SMOOTH",
"245 705 OFFCURVE",
"350 852 OFFCURVE",
"434 852 QCURVE SMOOTH",
"512 852 OFFCURVE",
"631 724 OFFCURVE",
"682 596 QCURVE"
);
}
);
width = 1460;
}
);
note = infinity;
unicode = 221E;
},
{
glyphname = plusminus;
lastChange = "2019-11-18 22:49:30 +0000";
layers = (
{
layerId = "B8E4E6F7-CD69-4587-8CB0-DED49904045E";
paths = (
{
closed = 1;
nodes = (
"1060 680 LINE",
"1060 825 LINE",
"636 825 LINE",
"636 1219 LINE",
"489 1219 LINE",
"489 825 LINE",
"65 825 LINE",
"65 680 LINE",
"489 680 LINE",
"489 285 LINE",
"636 285 LINE",
"636 680 LINE"
);
},
{
closed = 1;
nodes = (
"1060 0 LINE",
"1060 145 LINE",
"65 145 LINE",
"65 0 LINE"
);
}
);
width = 1124;
}
);
note = plusminus;
unicode = 00B1;
},
{
glyphname = lessequal;
lastChange = "2019-11-18 22:49:30 +0000";
layers = (
{
layerId = "B8E4E6F7-CD69-4587-8CB0-DED49904045E";
paths = (
{
closed = 1;
nodes = (
"1060 236 LINE",
"1060 389 LINE",
"202 733 LINE",
"1060 1077 LINE",
"1060 1231 LINE",
"65 836 LINE",
"65 631 LINE"
);
},
{
closed = 1;
nodes = (
"1058 0 LINE",
"1058 145 LINE",
"63 145 LINE",
"63 0 LINE"
);
}
);
width = 1124;
}
);
note = lessequal;
unicode = 2264;
},
{
glyphname = greaterequal;
lastChange = "2019-11-18 22:49:30 +0000";
layers = (
{
layerId = "B8E4E6F7-CD69-4587-8CB0-DED49904045E";
paths = (
{
closed = 1;
nodes = (
"1060 631 LINE",
"1060 836 LINE",
"65 1231 LINE",
"65 1077 LINE",
"923 733 LINE",
"65 389 LINE",
"65 236 LINE"
);
},
{
closed = 1;
nodes = (
"1060 0 LINE",
"1060 145 LINE",
"65 145 LINE",
"65 0 LINE"
);
}
);
width = 1124;
}
);
note = greaterequal;
unicode = 2265;
},
{
glyphname = yen;
lastChange = "2019-11-18 22:49:30 +0000";
layers = (
{
layerId = "B8E4E6F7-CD69-4587-8CB0-DED49904045E";
paths = (
{
closed = 1;
nodes = (
"1303 1409 LINE",
"1098 1409 LINE",
"598 762 LINE",
"352 1409 LINE",
"159 1409 LINE",
"444 709 LINE",
"124 709 LINE",
"100 584 LINE",
"483 584 LINE",
"451 430 LINE",
"70 430 LINE",
"45 303 LINE",
"426 303 LINE",
"367 0 LINE",
"545 0 LINE",
"604 303 LINE",
"987 303 LINE",
"1012 430 LINE",
"629 430 LINE",
"659 584 LINE",
"1042 584 LINE",
"1066 709 LINE",
"745 709 LINE"
);
}
);
width = 1139;
}
);
note = yen;
unicode = 00A5;
},
{
glyphname = mu1;
lastChange = "2019-11-18 22:49:30 +0000";
layers = (
{
layerId = "B8E4E6F7-CD69-4587-8CB0-DED49904045E";
paths = (
{
closed = 1;
nodes = (
"179 -425 LINE",
"273 59 LINE",
"296 22 OFFCURVE",
"386 -20 OFFCURVE",
"448 -20 QCURVE SMOOTH",
"628 -20 OFFCURVE",
"757 169 QCURVE",
"759 169 LINE",
"759 77 OFFCURVE",
"821 -20 OFFCURVE",
"895 -20 QCURVE SMOOTH",
"946 -20 OFFCURVE",
"1018 0 QCURVE",
"1040 129 LINE",
"996 121 OFFCURVE",
"984 121 QCURVE SMOOTH",
"927 121 OFFCURVE",
"927 193 QCURVE SMOOTH",
"927 234 OFFCURVE",
"936 275 QCURVE SMOOTH",
"1093 1082 LINE",
"913 1082 LINE",
"795 472 LINE SMOOTH",
"767 309 OFFCURVE",
"602 119 OFFCURVE",
"490 119 QCURVE SMOOTH",
"328 119 OFFCURVE",
"328 295 QCURVE SMOOTH",
"328 332 OFFCURVE",
"339 396 QCURVE SMOOTH",
"473 1082 LINE",
"292 1082 LINE",
"-1 -425 LINE"
);
}
);
width = 1180;
}
);
note = mu1;
unicode = 00B5;
},
{
glyphname = partialdiff;
lastChange = "2019-11-18 22:49:30 +0000";
layers = (
{
layerId = "B8E4E6F7-CD69-4587-8CB0-DED49904045E";
paths = (
{
closed = 1;
nodes = (
"954 1197 OFFCURVE",
"747 1477 OFFCURVE",
"552 1477 QCURVE SMOOTH",
"440 1477 OFFCURVE",
"327 1415 QCURVE",
"291 1268 LINE",
"340 1304 OFFCURVE",
"461 1343 OFFCURVE",
"513 1343 QCURVE SMOOTH",
"642 1343 OFFCURVE",
"772 1134 OFFCURVE",
"772 938 QCURVE SMOOTH",
"768 821 LINE",
"764 821 LINE",
"732 905 OFFCURVE",
"599 1004 OFFCURVE",
"515 1004 QCURVE SMOOTH",
"389 1004 OFFCURVE",
"183 840 OFFCURVE",
"56 522 OFFCURVE",
"56 356 QCURVE SMOOTH",
"56 176 OFFCURVE",
"228 -27 OFFCURVE",
"389 -27 QCURVE SMOOTH",
"521 -27 OFFCURVE",
"735 120 OFFCURVE",
"882 403 OFFCURVE",
"954 780 OFFCURVE",
"954 938 QCURVE SMOOTH"
);
},
{
closed = 1;
nodes = (
"726 527 OFFCURVE",
"631 260 OFFCURVE",
"496 109 OFFCURVE",
"418 109 QCURVE SMOOTH",
"336 109 OFFCURVE",
"246 243 OFFCURVE",
"246 358 QCURVE SMOOTH",
"246 490 OFFCURVE",
"333 751 OFFCURVE",
"467 883 OFFCURVE",
"548 883 QCURVE SMOOTH",
"617 883 OFFCURVE",
"726 768 OFFCURVE",
"743 680 QCURVE"
);
}
);
width = 1012;
}
);
note = partialdiff;
unicode = 2202;
},
{
glyphname = summation;
lastChange = "2019-11-18 22:49:30 +0000";
layers = (
{
layerId = "B8E4E6F7-CD69-4587-8CB0-DED49904045E";
paths = (
{
closed = 1;
nodes = (
"1376 -455 LINE",
"1376 -303 LINE",
"446 -303 LINE",
"1046 483 LINE",
"462 1257 LINE",
"1308 1257 LINE",
"1308 1409 LINE",
"218 1409 LINE",
"218 1303 LINE",
"837 481 LINE",
"202 -346 LINE",
"202 -455 LINE"
);
}
);
width = 1460;
}
);
note = summation;
unicode = 2211;
},
{
glyphname = product;
lastChange = "2019-11-18 22:49:30 +0000";
layers = (
{
layerId = "B8E4E6F7-CD69-4587-8CB0-DED49904045E";
paths = (
{
closed = 1;
nodes = (
"1468 -455 LINE",
"1468 1409 LINE",
"251 1409 LINE",
"251 -455 LINE",
"442 -455 LINE",
"442 1247 LINE",
"1284 1247 LINE",
"1284 -455 LINE"
);
}
);
width = 1686;
}
);
note = product;
unicode = 220F;
},
{
glyphname = integral;
lastChange = "2019-11-18 22:49:30 +0000";
layers = (
{
layerId = "B8E4E6F7-CD69-4587-8CB0-DED49904045E";
paths = (
{
closed = 1;
nodes = (
"199 -455 OFFCURVE",
"373 -272 OFFCURVE",
"373 -100 QCURVE SMOOTH",
"373 1135 LINE SMOOTH",
"373 1249 OFFCURVE",
"462 1368 OFFCURVE",
"545 1368 QCURVE SMOOTH",
"611 1368 OFFCURVE",
"660 1341 QCURVE",
"660 1489 LINE",
"616 1507 OFFCURVE",
"529 1507 QCURVE SMOOTH",
"363 1507 OFFCURVE",
"189 1325 OFFCURVE",
"189 1153 QCURVE SMOOTH",
"191 -80 LINE SMOOTH",
"191 -313 OFFCURVE",
"19 -313 QCURVE SMOOTH",
"-38 -313 OFFCURVE",
"-98 -289 QCURVE",
"-98 -436 LINE",
"-43 -455 OFFCURVE",
"36 -455 QCURVE SMOOTH"
);
}
);
width = 561;
}
);
note = integral;
unicode = 222B;
},
{
glyphname = ordfeminine;
lastChange = "2019-11-18 22:49:30 +0000";
layers = (
{
layerId = "B8E4E6F7-CD69-4587-8CB0-DED49904045E";
paths = (
{
closed = 1;
nodes = (
"762 657 OFFCURVE",
"799 670 QCURVE",
"814 774 LINE",
"790 766 OFFCURVE",
"770 766 QCURVE SMOOTH",
"722 766 OFFCURVE",
"722 821 QCURVE SMOOTH",
"722 843 OFFCURVE",
"728 874 QCURVE SMOOTH",
"781 1149 LINE SMOOTH",
"791 1194 OFFCURVE",
"791 1233 QCURVE SMOOTH",
"791 1325 OFFCURVE",
"652 1432 OFFCURVE",
"525 1432 QCURVE SMOOTH",
"265 1432 OFFCURVE",
"207 1213 QCURVE",
"339 1196 LINE",
"371 1331 OFFCURVE",
"523 1331 QCURVE SMOOTH",
"650 1331 OFFCURVE",
"650 1229 QCURVE SMOOTH",
"650 1206 OFFCURVE",
"632 1116 QCURVE",
"453 1112 LINE SMOOTH",
"89 1107 OFFCURVE",
"89 858 QCURVE SMOOTH",
"89 763 OFFCURVE",
"210 651 OFFCURVE",
"311 651 QCURVE SMOOTH",
"390 651 OFFCURVE",
"520 720 OFFCURVE",
"586 805 QCURVE",
"590 805 LINE",
"586 765 LINE",
"586 716 OFFCURVE",
"657 657 OFFCURVE",
"723 657 QCURVE SMOOTH"
);
},
{
closed = 1;
nodes = (
"604 972 LINE SMOOTH",
"587 887 OFFCURVE",
"441 762 OFFCURVE",
"352 762 QCURVE SMOOTH",
"301 762 OFFCURVE",
"243 818 OFFCURVE",
"243 865 QCURVE SMOOTH",
"243 940 OFFCURVE",
"352 1017 OFFCURVE",
"475 1020 QCURVE SMOOTH",
"614 1024 LINE"
);
}
);
width = 758;
}
);
note = ordfeminine;
unicode = 00AA;
},
{
glyphname = ordmasculine;
lastChange = "2019-11-18 22:49:30 +0000";
layers = (
{
layerId = "B8E4E6F7-CD69-4587-8CB0-DED49904045E";
paths = (
{
closed = 1;
nodes = (
"741 651 OFFCURVE",
"809 1005 QCURVE SMOOTH",
"822 1074 OFFCURVE",
"822 1133 QCURVE SMOOTH",
"822 1275 OFFCURVE",
"665 1432 OFFCURVE",
"520 1432 QCURVE SMOOTH",
"182 1432 OFFCURVE",
"114 1078 QCURVE SMOOTH",
"101 1009 OFFCURVE",
"101 950 QCURVE SMOOTH",
"101 808 OFFCURVE",
"258 651 OFFCURVE",
"403 651 QCURVE SMOOTH"
);
},
{
closed = 1;
nodes = (
"591 1325 OFFCURVE",
"678 1248 OFFCURVE",
"678 1154 QCURVE SMOOTH",
"678 1071 OFFCURVE",
"615 857 OFFCURVE",
"505 758 OFFCURVE",
"408 758 QCURVE SMOOTH",
"248 758 OFFCURVE",
"248 938 QCURVE SMOOTH",
"248 1024 OFFCURVE",
"310 1230 OFFCURVE",
"418 1325 OFFCURVE",
"513 1325 QCURVE SMOOTH"
);
}
);
width = 748;
}
);
note = ordmasculine;
unicode = 00BA;
},
{
glyphname = Ohm;
lastChange = "2019-11-18 22:49:30 +0000";
layers = (
{
layerId = "B8E4E6F7-CD69-4587-8CB0-DED49904045E";
paths = (
{
closed = 1;
nodes = (
"485 1430 OFFCURVE",
"138 1095 OFFCURVE",
"138 801 QCURVE SMOOTH",
"138 599 OFFCURVE",
"354 258 OFFCURVE",
"562 145 QCURVE",
"408 156 OFFCURVE",
"354 156 QCURVE SMOOTH",
"110 156 LINE",
"110 0 LINE",
"699 0 LINE",
"699 224 LINE",
"519 320 OFFCURVE",
"333 605 OFFCURVE",
"333 788 QCURVE SMOOTH",
"333 1020 OFFCURVE",
"571 1274 OFFCURVE",
"789 1274 QCURVE SMOOTH",
"1005 1274 OFFCURVE",
"1243 1020 OFFCURVE",
"1243 788 QCURVE SMOOTH",
"1243 604 OFFCURVE",
"1056 319 OFFCURVE",
"877 224 QCURVE",
"877 0 LINE",
"1466 0 LINE",
"1466 156 LINE",
"1222 156 LINE SMOOTH",
"1168 156 OFFCURVE",
"1014 145 QCURVE",
"1223 260 OFFCURVE",
"1438 600 OFFCURVE",
"1438 801 QCURVE SMOOTH",
"1438 1095 OFFCURVE",
"1091 1430 OFFCURVE",
"788 1430 QCURVE SMOOTH"
);
}
);
width = 1573;
}
);
note = Ohm;
unicode = 2126;
},
{
glyphname = ae;
lastChange = "2019-11-18 22:49:30 +0000";
layers = (
{
layerId = "B8E4E6F7-CD69-4587-8CB0-DED49904045E";
paths = (
{
closed = 1;
nodes = (
"1723 503 LINE",
"1731 537 OFFCURVE",
"1746 660 OFFCURVE",
"1746 708 QCURVE SMOOTH",
"1746 894 OFFCURVE",
"1530 1102 OFFCURVE",
"1335 1102 QCURVE SMOOTH",
"1114 1102 OFFCURVE",
"990 944 QCURVE",
"887 1102 OFFCURVE",
"665 1102 QCURVE SMOOTH",
"470 1102 OFFCURVE",
"239 969 OFFCURVE",
"192 822 QCURVE",
"370 793 LINE",
"399 881 OFFCURVE",
"526 965 OFFCURVE",
"650 965 QCURVE SMOOTH",
"858 965 OFFCURVE",
"858 787 QCURVE SMOOTH",
"858 758 OFFCURVE",
"839 660 QCURVE",
"601 657 LINE SMOOTH",
"303 652 OFFCURVE",
"32 463 OFFCURVE",
"32 278 QCURVE SMOOTH",
"32 193 OFFCURVE",
"109 56 OFFCURVE",
"252 -20 OFFCURVE",
"347 -20 QCURVE SMOOTH",
"489 -20 OFFCURVE",
"729 109 OFFCURVE",
"826 248 QCURVE",
"861 120 OFFCURVE",
"1051 -20 OFFCURVE",
"1202 -20 QCURVE SMOOTH",
"1351 -20 OFFCURVE",
"1563 99 OFFCURVE",
"1634 231 QCURVE",
"1496 294 LINE",
"1452 206 OFFCURVE",
"1311 115 OFFCURVE",
"1224 115 QCURVE SMOOTH",
"1103 115 OFFCURVE",
"980 257 OFFCURVE",
"980 390 QCURVE SMOOTH",
"983 468 OFFCURVE",
"989 503 QCURVE"
);
},
{
closed = 1;
nodes = (
"797 445 LINE SMOOTH",
"781 359 OFFCURVE",
"666 206 OFFCURVE",
"495 117 OFFCURVE",
"394 117 QCURVE SMOOTH",
"316 117 OFFCURVE",
"223 209 OFFCURVE",
"223 286 QCURVE SMOOTH",
"223 365 OFFCURVE",
"300 472 OFFCURVE",
"461 526 OFFCURVE",
"608 530 QCURVE SMOOTH",
"814 534 LINE"
);
},
{
closed = 1;
nodes = (
"1013 641 LINE",
"1047 799 OFFCURVE",
"1215 969 OFFCURVE",
"1338 969 QCURVE SMOOTH",
"1449 969 OFFCURVE",
"1567 837 OFFCURVE",
"1567 713 QCURVE",
"1563 641 LINE"
);
}
);
width = 1821;
}
);
note = ae;
unicode = 00E6;
},
{
glyphname = oslash;
lastChange = "2019-11-18 22:49:30 +0000";
layers = (
{
layerId = "B8E4E6F7-CD69-4587-8CB0-DED49904045E";
paths = (
{
closed = 1;
nodes = (
"44 -38 LINE",
"211 -38 LINE",
"291 56 LINE",
"395 -15 OFFCURVE",
"549 -15 QCURVE SMOOTH",
"996 -15 OFFCURVE",
"1106 467 QCURVE SMOOTH",
"1132 577 OFFCURVE",
"1132 683 QCURVE SMOOTH",
"1132 844 OFFCURVE",
"1058 947 QCURVE",
"1204 1116 LINE",
"1037 1116 LINE",
"967 1034 LINE",
"862 1101 OFFCURVE",
"700 1101 QCURVE SMOOTH",
"517 1101 OFFCURVE",
"269 939 OFFCURVE",
"129 623 OFFCURVE",
"125 419 QCURVE SMOOTH",
"125 254 OFFCURVE",
"201 145 QCURVE"
);
},
{
closed = 1;
nodes = (
"310 548 OFFCURVE",
"400 830 OFFCURVE",
"563 969 OFFCURVE",
"698 969 QCURVE SMOOTH",
"802 969 OFFCURVE",
"865 916 QCURVE",
"325 289 LINE",
"310 343 OFFCURVE",
"310 416 QCURVE SMOOTH"
);
},
{
closed = 1;
nodes = (
"940 522 OFFCURVE",
"851 251 OFFCURVE",
"696 118 OFFCURVE",
"560 118 QCURVE SMOOTH",
"455 118 OFFCURVE",
"392 173 QCURVE",
"932 800 LINE",
"946 749 OFFCURVE",
"946 683 QCURVE SMOOTH"
);
}
);
width = 1251;
}
);
note = oslash;
unicode = 00F8;
},
{
glyphname = questiondown;
lastChange = "2019-11-18 22:49:30 +0000";
layers = (
{
layerId = "B8E4E6F7-CD69-4587-8CB0-DED49904045E";
paths = (
{
closed = 1;
nodes = (
"705 -347 OFFCURVE",
"976 -160 OFFCURVE",
"1039 35 QCURVE",
"874 75 LINE",
"836 -47 OFFCURVE",
"654 -187 OFFCURVE",
"514 -187 QCURVE SMOOTH",
"398 -187 OFFCURVE",
"252 -67 OFFCURVE",
"252 31 QCURVE SMOOTH",
"252 97 OFFCURVE",
"299 195 OFFCURVE",
"391 278 OFFCURVE",
"496 337 QCURVE SMOOTH",
"630 413 OFFCURVE",
"735 507 OFFCURVE",
"805 626 OFFCURVE",
"818 706 QCURVE",
"643 706 LINE",
"629 638 OFFCURVE",
"531 526 OFFCURVE",
"404 454 QCURVE SMOOTH",
"344 420 OFFCURVE",
"223 345 OFFCURVE",
"126 244 OFFCURVE",
"65 107 OFFCURVE",
"65 10 QCURVE SMOOTH",
"65 -147 OFFCURVE",
"300 -347 OFFCURVE",
"497 -347 QCURVE SMOOTH"
);
},
{
closed = 1;
nodes = (
"704 1083 LINE",
"665 882 LINE",
"860 882 LINE",
"899 1083 LINE"
);
}
);
width = 1251;
}
);
note = questiondown;
unicode = 00BF;
},
{
glyphname = exclamdown;
lastChange = "2019-11-18 22:49:30 +0000";
layers = (
{
layerId = "B8E4E6F7-CD69-4587-8CB0-DED49904045E";
paths = (
{
closed = 1;
nodes = (
"64 -326 LINE",
"260 -326 LINE",
"432 686 LINE",
"284 686 LINE"
);
},
{
closed = 1;
nodes = (
"342 1083 LINE",
"302 882 LINE",
"496 882 LINE",
"536 1083 LINE"
);
}
);
width = 682;
}
);
note = exclamdown;
unicode = 00A1;
},
{
glyphname = logicalnot;
lastChange = "2019-11-18 22:49:30 +0000";
layers = (
{
layerId = "B8E4E6F7-CD69-4587-8CB0-DED49904045E";
paths = (
{
closed = 1;
nodes = (
"1095 180 LINE",
"1095 754 LINE",
"100 754 LINE",
"100 608 LINE",
"950 608 LINE",
"950 180 LINE"
);
}
);
width = 1196;
}
);
note = logicalnot;
unicode = 00AC;
},
{
glyphname = radical;
lastChange = "2019-11-18 22:49:30 +0000";
layers = (
{
layerId = "B8E4E6F7-CD69-4587-8CB0-DED49904045E";
paths = (
{
closed = 1;
nodes = (
"1122 1620 LINE",
"993 1620 LINE",
"563 205 LINE",
"321 895 LINE",
"51 895 LINE",
"51 778 LINE",
"233 778 LINE",
"516 -14 LINE",
"622 -14 LINE"
);
}
);
width = 1124;
}
);
note = radical;
unicode = 221A;
},
{
glyphname = florin;
lastChange = "2019-11-18 22:49:30 +0000";
layers = (
{
layerId = "B8E4E6F7-CD69-4587-8CB0-DED49904045E";
paths = (
{
closed = 1;
nodes = (
"1059 1434 LINE",
"989 1454 OFFCURVE",
"910 1454 QCURVE SMOOTH",
"777 1454 OFFCURVE",
"628 1327 OFFCURVE",
"597 1174 QCURVE SMOOTH",
"568 1022 LINE",
"417 1022 LINE",
"390 891 LINE",
"542 891 LINE",
"284 -456 LINE",
"464 -456 LINE",
"722 891 LINE",
"935 891 LINE",
"960 1022 LINE",
"749 1022 LINE",
"775 1159 LINE SMOOTH",
"794 1253 OFFCURVE",
"858 1327 OFFCURVE",
"918 1327 QCURVE SMOOTH",
"977 1327 OFFCURVE",
"1028 1312 QCURVE"
);
}
);
width = 1139;
}
);
note = florin;
unicode = 0192;
},
{
glyphname = approxequal;
lastChange = "2019-11-18 22:49:30 +0000";
layers = (
{
layerId = "B8E4E6F7-CD69-4587-8CB0-DED49904045E";
paths = (
{
closed = 1;
nodes = (
"913 758 OFFCURVE",
"1028 796 OFFCURVE",
"1088 838 QCURVE",
"1088 987 LINE",
"974 893 OFFCURVE",
"844 893 QCURVE SMOOTH",
"796 893 OFFCURVE",
"682 925 OFFCURVE",
"574 965 QCURVE SMOOTH",
"442 1012 OFFCURVE",
"339 1012 QCURVE SMOOTH",
"190 1012 OFFCURVE",
"76 928 QCURVE",
"76 784 LINE",
"147 835 OFFCURVE",
"261 872 OFFCURVE",
"324 872 QCURVE SMOOTH",
"408 872 OFFCURVE",
"541 827 QCURVE SMOOTH",
"614 801 OFFCURVE",
"759 758 OFFCURVE",
"828 758 QCURVE SMOOTH"
);
},
{
closed = 1;
nodes = (
"911 336 OFFCURVE",
"1028 373 OFFCURVE",
"1088 418 QCURVE",
"1088 565 LINE",
"974 473 OFFCURVE",
"844 473 QCURVE SMOOTH",
"808 473 OFFCURVE",
"721 493 OFFCURVE",
"574 544 QCURVE SMOOTH",
"441 590 OFFCURVE",
"339 590 QCURVE SMOOTH",
"187 590 OFFCURVE",
"76 506 QCURVE",
"76 365 LINE",
"141 412 OFFCURVE",
"257 453 OFFCURVE",
"324 453 QCURVE SMOOTH",
"408 453 OFFCURVE",
"541 406 QCURVE SMOOTH",
"614 380 OFFCURVE",
"759 336 OFFCURVE",
"828 336 QCURVE SMOOTH"
);
}
);
width = 1124;
}
);
note = approxequal;
unicode = 2248;
},
{
glyphname = uni2206;
lastChange = "2019-11-18 22:49:30 +0000";
layers = (
{
layerId = "B8E4E6F7-CD69-4587-8CB0-DED49904045E";
paths = (
{
closed = 1;
nodes = (
"1228 0 LINE",
"1228 147 LINE",
"745 1409 LINE",
"501 1409 LINE",
"24 145 LINE",
"24 0 LINE"
);
},
{
closed = 1;
nodes = (
"722 997 LINE",
"1036 156 LINE",
"216 156 LINE",
"526 997 LINE",
"624 1274 LINE"
);
}
);
width = 1253;
}
);
note = uni2206;
unicode = 2206;
},
{
glyphname = guillemotleft;
lastChange = "2019-11-18 22:49:30 +0000";
layers = (
{
layerId = "B8E4E6F7-CD69-4587-8CB0-DED49904045E";
paths = (
{
closed = 1;
nodes = (
"978 141 LINE",
"983 164 LINE",
"715 531 LINE",
"1125 903 LINE",
"1131 940 LINE",
"973 940 LINE",
"563 569 LINE",
"551 506 LINE",
"818 141 LINE"
);
},
{
closed = 1;
nodes = (
"500 141 LINE",
"505 163 LINE",
"240 530 LINE",
"647 902 LINE",
"653 940 LINE",
"496 940 LINE",
"88 569 LINE",
"76 506 LINE",
"341 141 LINE"
);
}
);
width = 1139;
}
);
note = guillemotleft;
unicode = 00AB;
},
{
glyphname = guillemotright;
lastChange = "2019-11-18 22:49:30 +0000";
layers = (
{
layerId = "B8E4E6F7-CD69-4587-8CB0-DED49904045E";
paths = (
{
closed = 1;
nodes = (
"1049 506 LINE",
"1061 569 LINE",
"795 940 LINE",
"639 940 LINE",
"635 919 LINE",
"899 547 LINE",
"489 180 LINE",
"482 141 LINE",
"640 141 LINE"
);
},
{
closed = 1;
nodes = (
"571 506 LINE",
"583 569 LINE",
"320 940 LINE",
"162 940 LINE",
"158 919 LINE",
"422 547 LINE",
"12 180 LINE",
"5 141 LINE",
"165 141 LINE"
);
}
);
width = 1139;
}
);
note = guillemotright;
unicode = 00BB;
},
{
glyphname = ellipsis;
lastChange = "2019-11-18 22:49:30 +0000";
layers = (
{
layerId = "B8E4E6F7-CD69-4587-8CB0-DED49904045E";
paths = (
{
closed = 1;
nodes = (
"1678 0 LINE",
"1721 219 LINE",
"1527 219 LINE",
"1484 0 LINE"
);
},
{
closed = 1;
nodes = (
"1029 0 LINE",
"1072 219 LINE",
"880 219 LINE",
"837 0 LINE"
);
},
{
closed = 1;
nodes = (
"381 0 LINE",
"424 219 LINE",
"229 219 LINE",
"186 0 LINE"
);
}
);
width = 2048;
}
);
note = ellipsis;
unicode = 2026;
},
{
glyphname = OE;
lastChange = "2019-11-18 22:49:30 +0000";
layers = (
{
layerId = "B8E4E6F7-CD69-4587-8CB0-DED49904045E";
paths = (
{
closed = 1;
nodes = (
"1835 0 LINE",
"1865 156 LINE",
"1114 156 LINE",
"1209 647 LINE",
"1859 647 LINE",
"1889 801 LINE",
"1239 801 LINE",
"1327 1253 LINE",
"2037 1253 LINE",
"2067 1409 LINE",
"1194 1409 LINE",
"1045 1420 OFFCURVE",
"925 1420 QCURVE SMOOTH",
"689 1420 OFFCURVE",
"314 1208 OFFCURVE",
"101 819 OFFCURVE",
"101 573 QCURVE SMOOTH",
"101 302 OFFCURVE",
"420 -10 OFFCURVE",
"702 -10 QCURVE SMOOTH",
"817 -10 OFFCURVE",
"893 0 QCURVE"
);
},
{
closed = 1;
nodes = (
"511 145 OFFCURVE",
"292 360 OFFCURVE",
"292 563 QCURVE SMOOTH",
"292 754 OFFCURVE",
"441 1094 OFFCURVE",
"720 1266 OFFCURVE",
"915 1266 QCURVE SMOOTH",
"1052 1266 OFFCURVE",
"1136 1255 QCURVE",
"923 156 LINE",
"841 145 OFFCURVE",
"712 145 QCURVE SMOOTH"
);
}
);
width = 2048;
}
);
note = OE;
unicode = 0152;
},
{
glyphname = oe;
lastChange = "2019-11-18 22:49:30 +0000";
layers = (
{
layerId = "B8E4E6F7-CD69-4587-8CB0-DED49904045E";
paths = (
{
closed = 1;
nodes = (
"1833 503 LINE",
"1857 603 OFFCURVE",
"1857 708 QCURVE SMOOTH",
"1857 896 OFFCURVE",
"1631 1102 OFFCURVE",
"1427 1102 QCURVE SMOOTH",
"1306 1102 OFFCURVE",
"1100 1002 OFFCURVE",
"1024 909 QCURVE",
"923 1101 OFFCURVE",
"642 1101 QCURVE SMOOTH",
"460 1101 OFFCURVE",
"212 938 OFFCURVE",
"73 621 OFFCURVE",
"69 419 QCURVE SMOOTH",
"69 217 OFFCURVE",
"292 -15 OFFCURVE",
"491 -15 QCURVE SMOOTH",
"770 -15 OFFCURVE",
"917 173 QCURVE",
"1022 -20 OFFCURVE",
"1290 -20 QCURVE SMOOTH",
"1447 -20 OFFCURVE",
"1671 98 OFFCURVE",
"1745 231 QCURVE",
"1607 294 LINE",
"1562 209 OFFCURVE",
"1407 115 OFFCURVE",
"1311 115 QCURVE SMOOTH",
"1177 115 OFFCURVE",
"1044 257 OFFCURVE",
"1044 390 QCURVE SMOOTH",
"1044 452 OFFCURVE",
"1055 503 QCURVE"
);
},
{
closed = 1;
nodes = (
"882 522 OFFCURVE",
"793 251 OFFCURVE",
"638 118 OFFCURVE",
"502 118 QCURVE SMOOTH",
"254 118 OFFCURVE",
"254 416 QCURVE SMOOTH",
"254 546 OFFCURVE",
"343 828 OFFCURVE",
"505 969 OFFCURVE",
"640 969 QCURVE SMOOTH",
"888 969 OFFCURVE",
"888 683 QCURVE"
);
},
{
closed = 1;
nodes = (
"1077 641 LINE",
"1114 798 OFFCURVE",
"1297 969 OFFCURVE",
"1431 969 QCURVE SMOOTH",
"1553 969 OFFCURVE",
"1678 837 OFFCURVE",
"1678 713 QCURVE",
"1674 641 LINE"
);
}
);
width = 1933;
}
);
note = oe;
unicode = 0153;
},
{
glyphname = endash;
lastChange = "2019-11-18 22:49:30 +0000";
layers = (
{
layerId = "B8E4E6F7-CD69-4587-8CB0-DED49904045E";
paths = (
{
closed = 1;
nodes = (
"1124 451 LINE",
"1151 588 LINE",
"13 588 LINE",
"-13 451 LINE"
);
}
);
width = 1139;
}
);
note = endash;
unicode = 2013;
},
{
glyphname = emdash;
lastChange = "2019-11-18 22:49:30 +0000";
layers = (
{
layerId = "B8E4E6F7-CD69-4587-8CB0-DED49904045E";
paths = (
{
closed = 1;
nodes = (
"2034 451 LINE",
"2061 588 LINE",
"13 588 LINE",
"-13 451 LINE"
);
}
);
width = 2048;
}
);
note = emdash;
unicode = 2014;
},
{
glyphname = quotedblleft;
lastChange = "2019-11-18 22:49:30 +0000";
layers = (
{
layerId = "B8E4E6F7-CD69-4587-8CB0-DED49904045E";
paths = (
{
closed = 1;
nodes = (
"674 952 LINE",
"712 1147 LINE",
"624 1147 LINE",
"649 1272 OFFCURVE",
"769 1409 QCURVE",
"647 1409 LINE",
"591 1341 OFFCURVE",
"526 1191 OFFCURVE",
"508 1098 QCURVE SMOOTH",
"480 952 LINE"
);
},
{
closed = 1;
nodes = (
"343 952 LINE",
"381 1147 LINE",
"292 1147 LINE",
"317 1274 OFFCURVE",
"438 1409 QCURVE",
"317 1409 LINE",
"261 1340 OFFCURVE",
"194 1194 OFFCURVE",
"176 1098 QCURVE SMOOTH",
"148 952 LINE"
);
}
);
width = 682;
}
);
note = quotedblleft;
unicode = 201C;
},
{
glyphname = quotedblright;
lastChange = "2019-11-18 22:49:30 +0000";
layers = (
{
layerId = "B8E4E6F7-CD69-4587-8CB0-DED49904045E";
paths = (
{
closed = 1;
nodes = (
"649 1025 OFFCURVE",
"712 1171 OFFCURVE",
"730 1264 QCURVE SMOOTH",
"758 1409 LINE",
"564 1409 LINE",
"526 1214 LINE",
"614 1214 LINE",
"589 1089 OFFCURVE",
"469 952 QCURVE",
"590 952 LINE"
);
},
{
closed = 1;
nodes = (
"315 1020 OFFCURVE",
"381 1169 OFFCURVE",
"399 1264 QCURVE SMOOTH",
"427 1409 LINE",
"232 1409 LINE",
"194 1214 LINE",
"282 1214 LINE",
"257 1089 OFFCURVE",
"137 952 QCURVE",
"260 952 LINE"
);
}
);
width = 682;
}
);
note = quotedblright;
unicode = 201D;
},
{
glyphname = quoteleft;
lastChange = "2019-11-18 22:49:30 +0000";
layers = (
{
layerId = "B8E4E6F7-CD69-4587-8CB0-DED49904045E";
paths = (
{
closed = 1;
nodes = (
"394 952 LINE",
"432 1147 LINE",
"343 1147 LINE",
"368 1274 OFFCURVE",
"489 1409 QCURVE",
"368 1409 LINE",
"312 1340 OFFCURVE",
"245 1194 OFFCURVE",
"227 1098 QCURVE SMOOTH",
"199 952 LINE"
);
}
);
width = 455;
}
);
note = quoteleft;
unicode = 2018;
},
{
glyphname = quoteright;
lastChange = "2019-11-18 22:49:30 +0000";
layers = (
{
layerId = "B8E4E6F7-CD69-4587-8CB0-DED49904045E";
paths = (
{
closed = 1;
nodes = (
"370 1020 OFFCURVE",
"436 1169 OFFCURVE",
"454 1264 QCURVE SMOOTH",
"482 1409 LINE",
"287 1409 LINE",
"249 1212 LINE",
"337 1212 LINE",
"311 1088 OFFCURVE",
"192 952 QCURVE",
"315 952 LINE"
);
}
);
width = 455;
}
);
note = quoteright;
unicode = 2019;
},
{
glyphname = divide;
lastChange = "2019-11-18 22:49:30 +0000";
layers = (
{
layerId = "B8E4E6F7-CD69-4587-8CB0-DED49904045E";
paths = (
{
closed = 1;
nodes = (
"663 958 LINE",
"663 1141 LINE",
"495 1141 LINE",
"495 958 LINE"
);
},
{
closed = 1;
nodes = (
"1077 608 LINE",
"1077 754 LINE",
"82 754 LINE",
"82 608 LINE"
);
},
{
closed = 1;
nodes = (
"663 223 LINE",
"663 406 LINE",
"495 406 LINE",
"495 223 LINE"
);
}
);
width = 1124;
}
);
note = divide;
unicode = 00F7;
},
{
glyphname = lozenge;
lastChange = "2019-11-18 22:49:30 +0000";
layers = (
{
layerId = "B8E4E6F7-CD69-4587-8CB0-DED49904045E";
paths = (
{
closed = 1;
nodes = (
"1035 721 LINE",
"576 1440 LINE",
"494 1440 LINE",
"37 719 LINE",
"494 0 LINE",
"576 0 LINE"
);
},
{
closed = 1;
nodes = (
"889 721 LINE",
"537 147 LINE",
"183 721 LINE",
"537 1286 LINE"
);
}
);
width = 1012;
}
);
note = lozenge;
unicode = 25CA;
},
{
glyphname = fraction;
lastChange = "2019-11-18 22:49:30 +0000";
layers = (
{
layerId = "B8E4E6F7-CD69-4587-8CB0-DED49904045E";
paths = (
{
closed = 1;
nodes = (
"747 1409 LINE",
"593 1409 LINE",
"-557 0 LINE",
"-404 0 LINE"
);
}
);
width = 342;
}
);
note = fraction;
unicode = "2044,2215";
},
{
glyphname = Euro;
lastChange = "2019-11-18 22:49:30 +0000";
layers = (
{
layerId = "B8E4E6F7-CD69-4587-8CB0-DED49904045E";
paths = (
{
closed = 1;
nodes = (
"825 1283 LINE SMOOTH",
"1003 1279 OFFCURVE",
"1057 1091 QCURVE",
"1228 1126 LINE",
"1200 1275 OFFCURVE",
"995 1430 OFFCURVE",
"831 1430 QCURVE SMOOTH",
"626 1429 OFFCURVE",
"331 1179 OFFCURVE",
"253 922 QCURVE",
"140 922 LINE",
"75 795 LINE",
"221 795 LINE",
"218 788 OFFCURVE",
"199 681 OFFCURVE",
"195 631 QCURVE",
"83 631 LINE",
"19 502 LINE",
"190 502 LINE",
"194 254 OFFCURVE",
"420 -18 OFFCURVE",
"619 -18 QCURVE SMOOTH",
"778 -18 OFFCURVE",
"1003 133 OFFCURVE",
"1063 279 QCURVE",
"911 327 LINE",
"869 230 OFFCURVE",
"736 125 OFFCURVE",
"630 125 QCURVE SMOOTH",
"506 125 OFFCURVE",
"373 318 OFFCURVE",
"371 502 QCURVE",
"775 502 LINE",
"840 631 LINE",
"377 631 LINE",
"383 699 OFFCURVE",
"402 795 QCURVE",
"832 795 LINE",
"897 922 LINE",
"433 922 LINE",
"471 1051 OFFCURVE",
"580 1208 OFFCURVE",
"714 1283 OFFCURVE",
"816 1283 QCURVE SMOOTH"
);
}
);
width = 1139;
}
);
note = Euro;
unicode = 20AC;
},
{
glyphname = guilsinglleft;
lastChange = "2019-11-18 22:49:30 +0000";
layers = (
{
layerId = "B8E4E6F7-CD69-4587-8CB0-DED49904045E";
paths = (
{
closed = 1;
nodes = (
"510 141 LINE",
"512 161 LINE",
"247 528 LINE",
"654 900 LINE",
"663 940 LINE",
"506 940 LINE",
"98 569 LINE",
"86 506 LINE",
"351 141 LINE"
);
}
);
width = 682;
}
);
note = guilsinglleft;
unicode = 2039;
},
{
glyphname = guilsinglright;
lastChange = "2019-11-18 22:49:30 +0000";
layers = (
{
layerId = "B8E4E6F7-CD69-4587-8CB0-DED49904045E";
paths = (
{
closed = 1;
nodes = (
"582 506 LINE",
"594 569 LINE",
"329 940 LINE",
"173 940 LINE",
"170 919 LINE",
"434 547 LINE",
"24 180 LINE",
"16 141 LINE",
"174 141 LINE"
);
}
);
width = 682;
}
);
note = guilsinglright;
unicode = 203A;
},
{
glyphname = daggerdbl;
lastChange = "2019-11-18 22:49:30 +0000";
layers = (
{
layerId = "B8E4E6F7-CD69-4587-8CB0-DED49904045E";
paths = (
{
closed = 1;
nodes = (
"545 670 LINE",
"456 343 LINE",
"100 370 LINE",
"68 206 LINE",
"435 235 LINE",
"345 -141 LINE",
"520 -141 LINE",
"578 235 LINE",
"932 206 LINE",
"964 370 LINE",
"599 343 LINE",
"636 670 LINE",
"726 1000 LINE",
"1082 973 LINE",
"1114 1137 LINE",
"747 1108 LINE",
"836 1484 LINE",
"661 1484 LINE",
"604 1108 LINE",
"250 1137 LINE",
"218 973 LINE",
"583 1000 LINE"
);
}
);
width = 1139;
}
);
note = daggerdbl;
unicode = 2021;
},
{
glyphname = periodcentered;
lastChange = "2019-11-18 22:49:30 +0000";
layers = (
{
layerId = "B8E4E6F7-CD69-4587-8CB0-DED49904045E";
paths = (
{
closed = 1;
nodes = (
"360 446 LINE",
"403 666 LINE",
"208 666 LINE",
"165 446 LINE"
);
}
);
width = 569;
}
);
note = periodcentered;
unicode = 2219;
},
{
glyphname = quotesinglbase;
lastChange = "2019-11-18 22:49:30 +0000";
layers = (
{
layerId = "B8E4E6F7-CD69-4587-8CB0-DED49904045E";
paths = (
{
closed = 1;
nodes = (
"173 -191 OFFCURVE",
"238 -41 OFFCURVE",
"256 52 QCURVE SMOOTH",
"284 197 LINE",
"89 197 LINE",
"51 0 LINE",
"139 0 LINE",
"113 -124 OFFCURVE",
"-6 -260 QCURVE",
"117 -260 LINE"
);
}
);
width = 455;
}
);
note = quotesinglbase;
unicode = 201A;
},
{
glyphname = quotedblbase;
lastChange = "2019-11-18 22:49:30 +0000";
layers = (
{
layerId = "B8E4E6F7-CD69-4587-8CB0-DED49904045E";
paths = (
{
closed = 1;
nodes = (
"442 -188 OFFCURVE",
"505 -41 OFFCURVE",
"522 50 QCURVE SMOOTH",
"550 195 LINE",
"356 195 LINE",
"318 0 LINE",
"406 0 LINE",
"381 -125 OFFCURVE",
"261 -262 QCURVE",
"382 -262 LINE"
);
},
{
closed = 1;
nodes = (
"108 -193 OFFCURVE",
"173 -43 OFFCURVE",
"191 50 QCURVE SMOOTH",
"219 195 LINE",
"24 195 LINE",
"-14 0 LINE",
"74 0 LINE",
"49 -125 OFFCURVE",
"-71 -262 QCURVE",
"52 -262 LINE"
);
}
);
width = 682;
}
);
note = quotedblbase;
unicode = 201E;
},
{
glyphname = perthousand;
lastChange = "2019-11-18 22:49:30 +0000";
layers = (
{
layerId = "B8E4E6F7-CD69-4587-8CB0-DED49904045E";
paths = (
{
closed = 1;
nodes = (
"389 1421 OFFCURVE",
"219 1296 OFFCURVE",
"134 1070 OFFCURVE",
"134 952 QCURVE SMOOTH",
"134 829 OFFCURVE",
"262 695 OFFCURVE",
"378 695 QCURVE SMOOTH",
"456 695 OFFCURVE",
"597 766 OFFCURVE",
"700 899 OFFCURVE",
"752 1085 OFFCURVE",
"752 1172 QCURVE SMOOTH",
"752 1291 OFFCURVE",
"628 1421 OFFCURVE",
"509 1421 QCURVE SMOOTH"
);
},
{
closed = 1;
nodes = (
"613 1313 OFFCURVE",
"613 1177 QCURVE SMOOTH",
"613 1106 OFFCURVE",
"561 911 OFFCURVE",
"463 808 OFFCURVE",
"385 808 QCURVE SMOOTH",
"272 808 OFFCURVE",
"272 950 QCURVE SMOOTH",
"272 1023 OFFCURVE",
"328 1220 OFFCURVE",
"424 1313 OFFCURVE",
"505 1313 QCURVE SMOOTH"
);
},
{
closed = 1;
nodes = (
"973 714 OFFCURVE",
"803 589 OFFCURVE",
"718 363 OFFCURVE",
"718 245 QCURVE SMOOTH",
"718 122 OFFCURVE",
"846 -12 OFFCURVE",
"962 -12 QCURVE SMOOTH",
"1040 -12 OFFCURVE",
"1181 59 OFFCURVE",
"1284 192 OFFCURVE",
"1336 378 OFFCURVE",
"1336 465 QCURVE SMOOTH",
"1336 584 OFFCURVE",
"1212 714 OFFCURVE",
"1093 714 QCURVE SMOOTH"
);
},
{
closed = 1;
nodes = (
"1197 606 OFFCURVE",
"1197 470 QCURVE SMOOTH",
"1197 399 OFFCURVE",
"1145 204 OFFCURVE",
"1047 101 OFFCURVE",
"969 101 QCURVE SMOOTH",
"856 101 OFFCURVE",
"856 243 QCURVE SMOOTH",
"856 316 OFFCURVE",
"912 513 OFFCURVE",
"1008 606 OFFCURVE",
"1089 606 QCURVE SMOOTH"
);
},
{
closed = 1;
nodes = (
"1632 714 OFFCURVE",
"1462 589 OFFCURVE",
"1377 363 OFFCURVE",
"1377 245 QCURVE SMOOTH",
"1377 122 OFFCURVE",
"1505 -12 OFFCURVE",
"1621 -12 QCURVE SMOOTH",
"1699 -12 OFFCURVE",
"1840 59 OFFCURVE",
"1943 192 OFFCURVE",
"1995 378 OFFCURVE",
"1995 465 QCURVE SMOOTH",
"1995 584 OFFCURVE",
"1871 714 OFFCURVE",
"1752 714 QCURVE SMOOTH"
);
},
{
closed = 1;
nodes = (
"1856 606 OFFCURVE",
"1856 470 QCURVE SMOOTH",
"1856 399 OFFCURVE",
"1804 204 OFFCURVE",
"1706 101 OFFCURVE",
"1628 101 QCURVE SMOOTH",
"1515 101 OFFCURVE",
"1515 243 QCURVE SMOOTH",
"1515 316 OFFCURVE",
"1571 513 OFFCURVE",
"1667 606 OFFCURVE",
"1748 606 QCURVE SMOOTH"
);
},
{
closed = 1;
nodes = (
"1404 1409 LINE",
"1237 1409 LINE",
"51 0 LINE",
"216 0 LINE"
);
}
);
width = 2048;
}
);
note = perthousand;
unicode = 2030;
},
{
glyphname = dotlessi;
lastChange = "2019-11-18 22:49:30 +0000";
layers = (
{
layerId = "B8E4E6F7-CD69-4587-8CB0-DED49904045E";
paths = (
{
closed = 1;
nodes = (
"268 0 LINE",
"479 1082 LINE",
"299 1082 LINE",
"89 0 LINE"
);
}
);
width = 569;
}
);
note = dotlessi;
unicode = 0131;
},
{
glyphname = circumflex;
lastChange = "2019-11-18 22:49:30 +0000";
layers = (
{
layerId = "B8E4E6F7-CD69-4587-8CB0-DED49904045E";
paths = (
{
closed = 1;
nodes = (
"571 1491 LINE",
"367 1491 LINE",
"81 1221 LINE",
"77 1201 LINE",
"193 1201 LINE",
"458 1370 LINE",
"460 1370 LINE",
"646 1201 LINE",
"738 1201 LINE",
"742 1221 LINE"
);
}
);
width = 682;
}
);
note = circumflex;
unicode = 02C6;
},
{
glyphname = tilde;
lastChange = "2019-11-18 22:49:30 +0000";
layers = (
{
layerId = "B8E4E6F7-CD69-4587-8CB0-DED49904045E";
paths = (
{
closed = 1;
nodes = (
"629 1201 OFFCURVE",
"719 1259 OFFCURVE",
"783 1360 OFFCURVE",
"818 1469 QCURVE",
"726 1469 LINE",
"686 1350 OFFCURVE",
"585 1350 QCURVE SMOOTH",
"555 1350 OFFCURVE",
"493 1387 OFFCURVE",
"424 1432 OFFCURVE",
"348 1469 OFFCURVE",
"304 1469 QCURVE SMOOTH",
"221 1469 OFFCURVE",
"100 1353 OFFCURVE",
"53 1201 QCURVE",
"143 1201 LINE",
"185 1320 OFFCURVE",
"285 1320 QCURVE SMOOTH",
"316 1320 OFFCURVE",
"380 1283 OFFCURVE",
"449 1238 OFFCURVE",
"525 1201 OFFCURVE",
"567 1201 QCURVE SMOOTH"
);
}
);
width = 682;
}
);
note = tilde;
unicode = 02DC;
},
{
glyphname = macron;
lastChange = "2019-11-18 22:49:30 +0000";
layers = (
{
layerId = "B8E4E6F7-CD69-4587-8CB0-DED49904045E";
paths = (
{
closed = 1;
nodes = (
"718 1363 LINE",
"168 1363 LINE",
"142 1236 LINE",
"692 1236 LINE"
);
}
);
width = 682;
}
);
note = macron;
unicode = 02C9;
},
{
glyphname = breve;
lastChange = "2019-11-18 22:49:30 +0000";
layers = (
{
layerId = "B8E4E6F7-CD69-4587-8CB0-DED49904045E";
paths = (
{
closed = 1;
nodes = (
"553 1201 OFFCURVE",
"744 1362 OFFCURVE",
"795 1510 QCURVE",
"678 1510 LINE",
"614 1347 OFFCURVE",
"435 1347 QCURVE SMOOTH",
"352 1347 OFFCURVE",
"249 1425 OFFCURVE",
"246 1510 QCURVE",
"130 1510 LINE",
"132 1372 OFFCURVE",
"293 1201 OFFCURVE",
"426 1201 QCURVE SMOOTH"
);
}
);
width = 682;
}
);
note = breve;
unicode = 02D8;
},
{
glyphname = dotaccent;
lastChange = "2019-11-18 22:49:30 +0000";
layers = (
{
layerId = "B8E4E6F7-CD69-4587-8CB0-DED49904045E";
paths = (
{
closed = 1;
nodes = (
"522 1312 LINE",
"556 1484 LINE",
"376 1484 LINE",
"342 1312 LINE"
);
}
);
width = 682;
}
);
note = dotaccent;
unicode = 02D9;
},
{
glyphname = ring;
lastChange = "2019-11-18 22:49:30 +0000";
layers = (
{
layerId = "B8E4E6F7-CD69-4587-8CB0-DED49904045E";
paths = (
{
closed = 1;
nodes = (
"685 1510 OFFCURVE",
"542 1651 OFFCURVE",
"443 1651 QCURVE SMOOTH",
"343 1651 OFFCURVE",
"201 1511 OFFCURVE",
"201 1410 QCURVE SMOOTH",
"201 1310 OFFCURVE",
"343 1168 OFFCURVE",
"443 1168 QCURVE SMOOTH",
"543 1168 OFFCURVE",
"685 1310 OFFCURVE",
"685 1410 QCURVE SMOOTH"
);
},
{
closed = 1;
nodes = (
"577 1353 OFFCURVE",
"501 1273 OFFCURVE",
"443 1273 QCURVE SMOOTH",
"384 1273 OFFCURVE",
"308 1355 OFFCURVE",
"308 1410 QCURVE SMOOTH",
"308 1465 OFFCURVE",
"384 1544 OFFCURVE",
"443 1544 QCURVE SMOOTH",
"501 1544 OFFCURVE",
"577 1468 OFFCURVE",
"577 1410 QCURVE SMOOTH"
);
}
);
width = 682;
}
);
note = ring;
unicode = 02DA;
},
{
glyphname = cedilla;
lastChange = "2019-11-18 22:49:30 +0000";
layers = (
{
layerId = "B8E4E6F7-CD69-4587-8CB0-DED49904045E";
paths = (
{
closed = 1;
nodes = (
"377 0 LINE",
"270 0 LINE",
"169 -174 LINE",
"183 -172 OFFCURVE",
"227 -172 QCURVE SMOOTH",
"346 -172 OFFCURVE",
"346 -244 QCURVE SMOOTH",
"346 -289 OFFCURVE",
"271 -333 OFFCURVE",
"180 -333 QCURVE SMOOTH",
"140 -333 OFFCURVE",
"92 -327 QCURVE",
"71 -418 LINE",
"127 -425 OFFCURVE",
"177 -425 QCURVE SMOOTH",
"480 -425 OFFCURVE",
"480 -232 QCURVE SMOOTH",
"480 -173 OFFCURVE",
"399 -101 OFFCURVE",
"318 -96 QCURVE"
);
}
);
width = 682;
}
);
note = cedilla;
unicode = 00B8;
},
{
glyphname = hungarumlaut;
lastChange = "2019-11-18 22:49:30 +0000";
layers = (
{
layerId = "B8E4E6F7-CD69-4587-8CB0-DED49904045E";
paths = (
{
closed = 1;
nodes = (
"116 1201 LINE",
"480 1479 LINE",
"485 1508 LINE",
"278 1508 LINE",
"26 1221 LINE",
"23 1201 LINE"
);
},
{
closed = 1;
nodes = (
"463 1201 LINE",
"827 1479 LINE",
"832 1508 LINE",
"625 1508 LINE",
"372 1221 LINE",
"369 1201 LINE"
);
}
);
width = 682;
}
);
note = hungarumlaut;
unicode = 02DD;
},
{
glyphname = ogonek;
lastChange = "2019-11-18 22:49:30 +0000";
layers = (
{
layerId = "B8E4E6F7-CD69-4587-8CB0-DED49904045E";
paths = (
{
closed = 1;
nodes = (
"326 -427 OFFCURVE",
"393 -400 QCURVE",
"408 -295 LINE",
"348 -317 OFFCURVE",
"294 -317 QCURVE SMOOTH",
"256 -317 OFFCURVE",
"216 -270 OFFCURVE",
"216 -236 QCURVE SMOOTH",
"216 -173 OFFCURVE",
"316 -48 OFFCURVE",
"409 0 QCURVE",
"276 0 LINE",
"185 -35 OFFCURVE",
"71 -176 OFFCURVE",
"71 -259 QCURVE SMOOTH",
"71 -333 OFFCURVE",
"161 -427 OFFCURVE",
"249 -427 QCURVE SMOOTH"
);
}
);
width = 682;
}
);
note = ogonek;
unicode = 02DB;
},
{
glyphname = caron;
lastChange = "2019-11-18 22:49:30 +0000";
layers = (
{
layerId = "B8E4E6F7-CD69-4587-8CB0-DED49904045E";
paths = (
{
closed = 1;
nodes = (
"798 1471 LINE",
"802 1491 LINE",
"690 1491 LINE",
"438 1322 LINE",
"436 1322 LINE",
"237 1491 LINE",
"140 1491 LINE",
"136 1471 LINE",
"317 1201 LINE",
"521 1201 LINE"
);
}
);
width = 682;
}
);
note = caron;
unicode = 02C7;
},
{
glyphname = Lslash;
lastChange = "2019-11-18 22:49:30 +0000";
layers = (
{
layerId = "B8E4E6F7-CD69-4587-8CB0-DED49904045E";
paths = (
{
closed = 1;
nodes = (
"377 648 LINE",
"683 797 LINE",
"714 954 LINE",
"408 806 LINE",
"525 1409 LINE",
"334 1409 LINE",
"196 696 LINE",
"31 611 LINE",
"2 453 LINE",
"165 538 LINE",
"60 0 LINE",
"963 0 LINE",
"994 156 LINE",
"282 156 LINE"
);
}
);
width = 1139;
}
);
note = Lslash;
unicode = 0141;
},
{
glyphname = lslash;
lastChange = "2019-11-18 22:49:30 +0000";
layers = (
{
layerId = "B8E4E6F7-CD69-4587-8CB0-DED49904045E";
paths = (
{
closed = 1;
nodes = (
"211 0 LINE",
"337 646 LINE",
"475 717 LINE",
"506 876 LINE",
"368 804 LINE",
"500 1484 LINE",
"320 1484 LINE",
"167 700 LINE",
"33 632 LINE",
"2 474 LINE",
"137 542 LINE",
"32 0 LINE"
);
}
);
width = 455;
}
);
note = lslash;
unicode = 0142;
},
{
glyphname = brokenbar;
lastChange = "2019-11-18 22:49:30 +0000";
layers = (
{
layerId = "B8E4E6F7-CD69-4587-8CB0-DED49904045E";
paths = (
{
closed = 1;
nodes = (
"379 707 LINE",
"379 1485 LINE",
"213 1485 LINE",
"213 707 LINE"
);
},
{
closed = 1;
nodes = (
"379 -455 LINE",
"379 324 LINE",
"213 324 LINE",
"213 -455 LINE"
);
}
);
width = 532;
}
);
note = brokenbar;
unicode = 00A6;
},
{
glyphname = Eth;
lastChange = "2019-11-18 22:49:30 +0000";
layers = (
{
layerId = "B8E4E6F7-CD69-4587-8CB0-DED49904045E";
paths = (
{
closed = 1;
nodes = (
"336 1409 LINE",
"218 801 LINE",
"64 801 LINE",
"34 647 LINE",
"188 647 LINE",
"63 0 LINE",
"612 0 LINE SMOOTH",
"855 0 OFFCURVE",
"1236 200 OFFCURVE",
"1433 557 OFFCURVE",
"1433 791 QCURVE SMOOTH",
"1433 1080 OFFCURVE",
"1076 1409 OFFCURVE",
"764 1409 QCURVE SMOOTH"
);
},
{
closed = 1;
nodes = (
"498 1256 LINE",
"760 1256 LINE SMOOTH",
"987 1256 OFFCURVE",
"1239 1012 OFFCURVE",
"1239 793 QCURVE SMOOTH",
"1239 599 OFFCURVE",
"1080 308 OFFCURVE",
"782 153 OFFCURVE",
"587 153 QCURVE SMOOTH",
"283 153 LINE",
"379 647 LINE",
"785 647 LINE",
"815 801 LINE",
"409 801 LINE"
);
}
);
width = 1479;
}
);
note = Eth;
unicode = 00D0;
},
{
glyphname = eth;
lastChange = "2019-11-18 22:49:30 +0000";
layers = (
{
layerId = "B8E4E6F7-CD69-4587-8CB0-DED49904045E";
paths = (
{
closed = 1;
nodes = (
"446 1256 LINE",
"425 1136 LINE",
"698 1249 LINE",
"756 1183 OFFCURVE",
"845 987 OFFCURVE",
"864 874 QCURVE",
"829 920 OFFCURVE",
"684 979 OFFCURVE",
"605 979 QCURVE SMOOTH",
"432 979 OFFCURVE",
"196 838 OFFCURVE",
"67 563 OFFCURVE",
"67 403 QCURVE SMOOTH",
"67 211 OFFCURVE",
"292 -15 OFFCURVE",
"491 -15 QCURVE SMOOTH",
"685 -15 OFFCURVE",
"925 156 OFFCURVE",
"1054 518 OFFCURVE",
"1054 728 QCURVE SMOOTH",
"1054 892 OFFCURVE",
"954 1170 OFFCURVE",
"837 1309 QCURVE",
"1006 1376 LINE",
"1025 1484 LINE",
"762 1382 LINE",
"683 1445 OFFCURVE",
"606 1484 QCURVE",
"430 1484 LINE",
"529 1418 OFFCURVE",
"625 1328 QCURVE"
);
},
{
closed = 1;
nodes = (
"676 846 OFFCURVE",
"794 788 OFFCURVE",
"859 690 OFFCURVE",
"859 635 QCURVE SMOOTH",
"859 553 OFFCURVE",
"807 327 OFFCURVE",
"718 186 OFFCURVE",
"588 118 OFFCURVE",
"494 118 QCURVE SMOOTH",
"377 118 OFFCURVE",
"251 258 OFFCURVE",
"251 388 QCURVE SMOOTH",
"251 499 OFFCURVE",
"331 734 OFFCURVE",
"483 846 OFFCURVE",
"603 846 QCURVE SMOOTH"
);
}
);
width = 1139;
}
);
note = eth;
unicode = 00F0;
},
{
glyphname = Thorn;
lastChange = "2019-11-18 22:49:30 +0000";
layers = (
{
layerId = "B8E4E6F7-CD69-4587-8CB0-DED49904045E";
paths = (
{
closed = 1;
nodes = (
"314 297 LINE",
"738 297 LINE SMOOTH",
"1002 297 OFFCURVE",
"1307 548 OFFCURVE",
"1307 768 QCURVE SMOOTH",
"1307 953 OFFCURVE",
"1043 1157 OFFCURVE",
"806 1157 QCURVE SMOOTH",
"479 1157 LINE",
"528 1409 LINE",
"337 1409 LINE",
"63 0 LINE",
"254 0 LINE"
);
},
{
closed = 1;
nodes = (
"452 1004 LINE",
"801 1004 LINE SMOOTH",
"955 1004 OFFCURVE",
"1113 878 OFFCURVE",
"1113 759 QCURVE SMOOTH",
"1113 448 OFFCURVE",
"731 448 QCURVE SMOOTH",
"344 448 LINE"
);
}
);
width = 1366;
}
);
note = Thorn;
unicode = 00DE;
},
{
glyphname = thorn;
lastChange = "2019-11-18 22:49:30 +0000";
layers = (
{
layerId = "B8E4E6F7-CD69-4587-8CB0-DED49904045E";
paths = (
{
closed = 1;
nodes = (
"727 -20 OFFCURVE",
"950 164 OFFCURVE",
"1073 545 OFFCURVE",
"1073 748 QCURVE SMOOTH",
"1073 913 OFFCURVE",
"898 1102 OFFCURVE",
"741 1102 QCURVE SMOOTH",
"622 1102 OFFCURVE",
"460 1016 OFFCURVE",
"387 921 QCURVE",
"383 921 LINE",
"409 1015 OFFCURVE",
"417 1061 QCURVE SMOOTH",
"500 1484 LINE",
"320 1484 LINE",
"-51 -425 LINE",
"128 -425 LINE",
"210 -2 LINE SMOOTH",
"229 92 OFFCURVE",
"239 178 QCURVE",
"244 178 LINE",
"276 84 OFFCURVE",
"431 -20 OFFCURVE",
"554 -20 QCURVE SMOOTH"
);
},
{
closed = 1;
nodes = (
"791 963 OFFCURVE",
"885 839 OFFCURVE",
"885 716 QCURVE SMOOTH",
"885 593 OFFCURVE",
"803 264 OFFCURVE",
"659 113 OFFCURVE",
"535 113 QCURVE SMOOTH",
"422 113 OFFCURVE",
"295 252 OFFCURVE",
"295 377 QCURVE SMOOTH",
"295 474 OFFCURVE",
"351 719 OFFCURVE",
"449 882 OFFCURVE",
"590 963 OFFCURVE",
"689 963 QCURVE SMOOTH"
);
}
);
width = 1139;
}
);
note = thorn;
unicode = 00FE;
},
{
glyphname = minus;
lastChange = "2019-11-18 22:49:30 +0000";
layers = (
{
layerId = "B8E4E6F7-CD69-4587-8CB0-DED49904045E";
paths = (
{
closed = 1;
nodes = (
"1126 608 LINE",
"1126 754 LINE",
"131 754 LINE",
"131 608 LINE"
);
}
);
width = 1196;
}
);
note = minus;
unicode = 2212;
},
{
glyphname = multiply;
lastChange = "2019-11-18 22:49:30 +0000";
layers = (
{
layerId = "B8E4E6F7-CD69-4587-8CB0-DED49904045E";
paths = (
{
closed = 1;
nodes = (
"274 225 LINE",
"630 580 LINE",
"983 227 LINE",
"1085 332 LINE",
"733 684 LINE",
"1083 1032 LINE",
"978 1137 LINE",
"628 786 LINE",
"278 1139 LINE",
"174 1036 LINE",
"526 684 LINE",
"172 330 LINE"
);
}
);
width = 1196;
}
);
note = multiply;
unicode = 00D7;
},
{
glyphname = onesuperior;
lastChange = "2019-11-18 22:49:30 +0000";
layers = (
{
layerId = "B8E4E6F7-CD69-4587-8CB0-DED49904045E";
paths = (
{
closed = 1;
nodes = (
"617 563 LINE",
"638 670 LINE",
"423 670 LINE",
"567 1409 LINE",
"444 1409 LINE",
"207 1272 LINE",
"181 1141 LINE",
"410 1279 LINE",
"292 670 LINE",
"81 670 LINE",
"61 563 LINE"
);
}
);
width = 682;
}
);
note = onesuperior;
unicode = 00B9;
},
{
glyphname = twosuperior;
lastChange = "2019-11-18 22:49:30 +0000";
layers = (
{
layerId = "B8E4E6F7-CD69-4587-8CB0-DED49904045E";
paths = (
{
closed = 1;
nodes = (
"631 563 LINE",
"651 676 LINE",
"203 676 LINE",
"229 715 OFFCURVE",
"330 792 OFFCURVE",
"427 848 QCURVE SMOOTH",
"574 934 OFFCURVE",
"681 1028 OFFCURVE",
"742 1138 OFFCURVE",
"742 1206 QCURVE SMOOTH",
"742 1301 OFFCURVE",
"599 1421 OFFCURVE",
"480 1421 QCURVE SMOOTH",
"354 1421 OFFCURVE",
"193 1303 OFFCURVE",
"164 1189 QCURVE",
"289 1174 LINE",
"303 1237 OFFCURVE",
"403 1315 OFFCURVE",
"473 1315 QCURVE SMOOTH",
"538 1315 OFFCURVE",
"606 1243 OFFCURVE",
"606 1192 QCURVE SMOOTH",
"606 1145 OFFCURVE",
"563 1070 OFFCURVE",
"482 1002 OFFCURVE",
"351 925 QCURVE SMOOTH",
"247 863 OFFCURVE",
"155 793 OFFCURVE",
"78 714 OFFCURVE",
"48 666 QCURVE",
"30 563 LINE"
);
}
);
width = 682;
}
);
note = twosuperior;
unicode = 00B2;
},
{
glyphname = threesuperior;
lastChange = "2019-11-18 22:49:30 +0000";
layers = (
{
layerId = "B8E4E6F7-CD69-4587-8CB0-DED49904045E";
paths = (
{
closed = 1;
nodes = (
"311 940 LINE",
"372 940 LINE SMOOTH",
"449 940 OFFCURVE",
"537 874 OFFCURVE",
"537 820 QCURVE SMOOTH",
"537 744 OFFCURVE",
"442 655 OFFCURVE",
"356 655 QCURVE SMOOTH",
"282 655 OFFCURVE",
"191 729 OFFCURVE",
"182 801 QCURVE",
"53 785 LINE",
"89 551 OFFCURVE",
"350 551 QCURVE SMOOTH",
"495 551 OFFCURVE",
"673 696 OFFCURVE",
"673 817 QCURVE SMOOTH",
"673 885 OFFCURVE",
"583 980 OFFCURVE",
"510 993 QCURVE",
"510 995 LINE",
"728 1039 OFFCURVE",
"728 1218 QCURVE SMOOTH",
"728 1308 OFFCURVE",
"588 1421 OFFCURVE",
"477 1421 QCURVE SMOOTH",
"225 1421 OFFCURVE",
"158 1205 QCURVE",
"283 1180 LINE",
"302 1245 OFFCURVE",
"399 1315 OFFCURVE",
"467 1315 QCURVE SMOOTH",
"524 1315 OFFCURVE",
"590 1252 OFFCURVE",
"590 1204 QCURVE SMOOTH",
"590 1132 OFFCURVE",
"486 1049 OFFCURVE",
"389 1049 QCURVE SMOOTH",
"332 1049 LINE"
);
}
);
width = 682;
}
);
note = threesuperior;
unicode = 00B3;
},
{
glyphname = franc;
lastChange = "2019-11-18 22:49:30 +0000";
layers = (
{
layerId = "B8E4E6F7-CD69-4587-8CB0-DED49904045E";
paths = (
{
closed = 1;
nodes = (
"1208 1254 LINE",
"1238 1409 LINE",
"347 1409 LINE",
"153 408 LINE",
"-22 408 LINE",
"-47 279 LINE",
"128 279 LINE",
"74 0 LINE",
"254 0 LINE",
"308 279 LINE",
"710 279 LINE",
"735 408 LINE",
"333 408 LINE",
"374 621 LINE",
"1061 621 LINE",
"1092 778 LINE",
"405 778 LINE",
"497 1254 LINE"
);
}
);
width = 1139;
}
);
note = franc;
unicode = 20A3;
},
{
glyphname = dcroat;
lastChange = "2019-11-18 22:49:30 +0000";
layers = (
{
layerId = "B8E4E6F7-CD69-4587-8CB0-DED49904045E";
paths = (
{
closed = 1;
nodes = (
"351 118 OFFCURVE",
"257 242 OFFCURVE",
"257 365 QCURVE SMOOTH",
"257 494 OFFCURVE",
"343 823 OFFCURVE",
"485 968 OFFCURVE",
"607 968 QCURVE SMOOTH",
"720 968 OFFCURVE",
"847 829 OFFCURVE",
"847 704 QCURVE SMOOTH",
"847 607 OFFCURVE",
"791 362 OFFCURVE",
"693 199 OFFCURVE",
"552 118 OFFCURVE",
"453 118 QCURVE SMOOTH"
);
},
{
closed = 1;
nodes = (
"520 -21 OFFCURVE",
"682 65 OFFCURVE",
"755 160 QCURVE",
"759 160 LINE",
"738 51 OFFCURVE",
"738 0 QCURVE",
"910 0 LINE",
"919 82 OFFCURVE",
"948 223 QCURVE SMOOTH",
"1140 1206 LINE",
"1272 1206 LINE",
"1297 1337 LINE",
"1165 1337 LINE",
"1194 1484 LINE",
"1014 1484 LINE",
"985 1337 LINE",
"685 1337 LINE",
"660 1206 LINE",
"960 1206 LINE",
"903 903 LINE",
"898 903 LINE",
"866 997 OFFCURVE",
"711 1101 OFFCURVE",
"588 1101 QCURVE SMOOTH",
"415 1101 OFFCURVE",
"192 917 OFFCURVE",
"69 536 OFFCURVE",
"69 333 QCURVE SMOOTH",
"69 168 OFFCURVE",
"244 -21 OFFCURVE",
"401 -21 QCURVE SMOOTH"
);
}
);
width = 1139;
}
);
note = dcroat;
unicode = 0111;
},
{
glyphname = overscore;
lastChange = "2019-11-18 22:49:30 +0000";
layers = (
{
layerId = "B8E4E6F7-CD69-4587-8CB0-DED49904045E";
paths = (
{
closed = 1;
nodes = (
"1148 1620 LINE",
"-17 1620 LINE",
"-17 1503 LINE",
"1148 1503 LINE"
);
}
);
width = 1131;
}
);
note = overscore;
unicode = 00AF;
},
{
glyphname = Gamma;
lastChange = "2019-11-18 22:49:30 +0000";
layers = (
{
layerId = "B8E4E6F7-CD69-4587-8CB0-DED49904045E";
paths = (
{
closed = 1;
nodes = (
"337 1410 LINE",
"63 1 LINE",
"254 1 LINE",
"498 1254 LINE",
"1211 1254 LINE",
"1241 1410 LINE"
);
}
);
width = 1168;
}
);
note = Gamma;
unicode = 0393;
},
{
glyphname = Theta;
lastChange = "2019-11-18 22:49:30 +0000";
layers = (
{
layerId = "B8E4E6F7-CD69-4587-8CB0-DED49904045E";
paths = (
{
closed = 1;
nodes = (
"510 634 LINE",
"1097 634 LINE",
"1128 794 LINE",
"541 794 LINE"
);
},
{
closed = 1;
nodes = (
"690 1430 OFFCURVE",
"312 1213 OFFCURVE",
"101 812 OFFCURVE",
"101 573 QCURVE SMOOTH",
"101 295 OFFCURVE",
"415 -20 OFFCURVE",
"699 -20 QCURVE SMOOTH",
"935 -20 OFFCURVE",
"1307 192 OFFCURVE",
"1521 583 OFFCURVE",
"1526 851 QCURVE SMOOTH",
"1526 1116 OFFCURVE",
"1205 1430 OFFCURVE",
"928 1430 QCURVE SMOOTH"
);
},
{
closed = 1;
nodes = (
"1118 1276 OFFCURVE",
"1335 1054 OFFCURVE",
"1335 847 QCURVE SMOOTH",
"1335 654 OFFCURVE",
"1182 308 OFFCURVE",
"905 135 OFFCURVE",
"708 135 QCURVE SMOOTH",
"505 135 OFFCURVE",
"292 354 OFFCURVE",
"292 563 QCURVE SMOOTH",
"292 744 OFFCURVE",
"440 1098 OFFCURVE",
"719 1276 OFFCURVE",
"919 1276 QCURVE SMOOTH"
);
}
);
width = 1593;
}
);
note = Theta;
unicode = 0398;
},
{
glyphname = Phi;
lastChange = "2019-11-18 22:49:30 +0000";
layers = (
{
layerId = "B8E4E6F7-CD69-4587-8CB0-DED49904045E";
paths = (
{
closed = 1;
nodes = (
"689 216 LINE",
"645 -11 LINE",
"828 -11 LINE",
"874 216 LINE",
"1034 216 LINE SMOOTH",
"1213 216 OFFCURVE",
"1486 349 OFFCURVE",
"1635 601 OFFCURVE",
"1635 768 QCURVE SMOOTH",
"1635 985 OFFCURVE",
"1355 1237 OFFCURVE",
"1121 1237 QCURVE SMOOTH",
"1072 1237 LINE",
"1105 1419 LINE",
"922 1419 LINE",
"887 1237 LINE",
"726 1237 LINE SMOOTH",
"453 1237 OFFCURVE",
"126 941 OFFCURVE",
"126 686 QCURVE SMOOTH",
"126 470 OFFCURVE",
"405 216 OFFCURVE",
"640 216 QCURVE SMOOTH"
);
},
{
closed = 1;
nodes = (
"1044 1094 LINE",
"1113 1094 LINE SMOOTH",
"1265 1094 OFFCURVE",
"1441 919 OFFCURVE",
"1441 759 QCURVE SMOOTH",
"1441 564 OFFCURVE",
"1226 358 OFFCURVE",
"1025 358 QCURVE SMOOTH",
"901 358 LINE"
);
},
{
closed = 1;
nodes = (
"716 358 LINE",
"646 358 LINE SMOOTH",
"496 358 OFFCURVE",
"320 535 OFFCURVE",
"320 695 QCURVE SMOOTH",
"320 888 OFFCURVE",
"534 1094 OFFCURVE",
"735 1094 QCURVE SMOOTH",
"859 1094 LINE"
);
}
);
width = 1714;
}
);
note = Phi;
unicode = 03A6;
},
{
glyphname = alpha;
lastChange = "2019-11-18 22:49:30 +0000";
layers = (
{
layerId = "B8E4E6F7-CD69-4587-8CB0-DED49904045E";
paths = (
{
closed = 1;
nodes = (
"466 1101 OFFCURVE",
"275 1004 OFFCURVE",
"142 803 OFFCURVE",
"70 505 OFFCURVE",
"70 375 QCURVE SMOOTH",
"70 185 OFFCURVE",
"247 -21 OFFCURVE",
"406 -21 QCURVE SMOOTH",
"520 -21 OFFCURVE",
"701 102 OFFCURVE",
"790 253 QCURVE",
"794 253 LINE",
"794 237 LINE SMOOTH",
"794 90 OFFCURVE",
"812 0 QCURVE",
"989 0 LINE",
"961 188 OFFCURVE",
"961 514 QCURVE",
"995 628 OFFCURVE",
"1160 999 OFFCURVE",
"1216 1082 QCURVE",
"1028 1082 LINE",
"993 1026 OFFCURVE",
"928 895 OFFCURVE",
"916 858 QCURVE",
"914 858 LINE",
"893 973 OFFCURVE",
"725 1101 OFFCURVE",
"595 1101 QCURVE SMOOTH"
);
},
{
closed = 1;
nodes = (
"710 969 OFFCURVE",
"826 797 OFFCURVE",
"826 632 QCURVE SMOOTH",
"824 557 LINE",
"760 353 OFFCURVE",
"556 119 OFFCURVE",
"446 119 QCURVE SMOOTH",
"259 119 OFFCURVE",
"259 366 QCURVE SMOOTH",
"259 497 OFFCURVE",
"340 812 OFFCURVE",
"485 969 OFFCURVE",
"601 969 QCURVE SMOOTH"
);
}
);
width = 1168;
}
);
note = alpha;
unicode = 03B1;
},
{
glyphname = delta;
lastChange = "2019-11-18 22:49:30 +0000";
layers = (
{
layerId = "B8E4E6F7-CD69-4587-8CB0-DED49904045E";
paths = (
{
closed = 1;
nodes = (
"395 113 OFFCURVE",
"258 259 OFFCURVE",
"258 389 QCURVE SMOOTH",
"258 583 OFFCURVE",
"481 850 OFFCURVE",
"727 929 QCURVE",
"805 829 OFFCURVE",
"868 645 OFFCURVE",
"868 540 QCURVE SMOOTH",
"868 345 OFFCURVE",
"676 113 OFFCURVE",
"511 113 QCURVE SMOOTH"
);
},
{
closed = 1;
nodes = (
"1130 1352 LINE",
"1156 1484 LINE",
"423 1484 LINE",
"400 1365 LINE",
"653 1026 LINE",
"357 946 OFFCURVE",
"67 626 OFFCURVE",
"67 396 QCURVE SMOOTH",
"67 206 OFFCURVE",
"299 -20 OFFCURVE",
"501 -20 QCURVE SMOOTH",
"662 -20 OFFCURVE",
"918 121 OFFCURVE",
"1059 381 OFFCURVE",
"1059 547 QCURVE SMOOTH",
"1059 664 OFFCURVE",
"970 897 OFFCURVE",
"860 1036 QCURVE SMOOTH",
"607 1360 LINE",
"759 1352 LINE"
);
}
);
width = 1138;
}
);
note = delta;
unicode = 03B4;
},
{
glyphname = epsilon;
lastChange = "2019-11-18 22:49:30 +0000";
layers = (
{
layerId = "B8E4E6F7-CD69-4587-8CB0-DED49904045E";
paths = (
{
closed = 1;
nodes = (
"323 116 OFFCURVE",
"220 206 OFFCURVE",
"220 281 QCURVE SMOOTH",
"220 355 OFFCURVE",
"297 451 OFFCURVE",
"460 495 OFFCURVE",
"649 495 QCURVE",
"676 636 LINE",
"348 636 OFFCURVE",
"348 796 QCURVE SMOOTH",
"348 873 OFFCURVE",
"463 965 OFFCURVE",
"562 965 QCURVE SMOOTH",
"637 965 OFFCURVE",
"748 909 OFFCURVE",
"789 846 QCURVE",
"924 930 LINE",
"872 1018 OFFCURVE",
"700 1101 OFFCURVE",
"565 1101 QCURVE SMOOTH",
"375 1101 OFFCURVE",
"167 946 OFFCURVE",
"167 806 QCURVE SMOOTH",
"167 726 OFFCURVE",
"268 606 OFFCURVE",
"356 581 QCURVE",
"355 579 LINE",
"211 565 OFFCURVE",
"34 401 OFFCURVE",
"34 278 QCURVE SMOOTH",
"34 142 OFFCURVE",
"224 -20 OFFCURVE",
"389 -20 QCURVE SMOOTH",
"526 -20 OFFCURVE",
"732 65 OFFCURVE",
"826 159 QCURVE",
"738 264 LINE",
"668 196 OFFCURVE",
"507 116 OFFCURVE",
"401 116 QCURVE SMOOTH"
);
}
);
width = 900;
}
);
note = epsilon;
unicode = 03B5;
},
{
glyphname = sigma;
lastChange = "2019-11-18 22:49:30 +0000";
layers = (
{
layerId = "B8E4E6F7-CD69-4587-8CB0-DED49904045E";
paths = (
{
closed = 1;
nodes = (
"665 -20 OFFCURVE",
"922 141 OFFCURVE",
"1057 438 OFFCURVE",
"1057 632 QCURVE SMOOTH",
"1057 793 OFFCURVE",
"981 953 QCURVE",
"982 957 LINE",
"1128 951 LINE",
"1273 951 LINE",
"1299 1082 LINE",
"747 1082 LINE SMOOTH",
"527 1082 OFFCURVE",
"225 919 OFFCURVE",
"68 609 OFFCURVE",
"68 411 QCURVE SMOOTH",
"68 206 OFFCURVE",
"291 -20 OFFCURVE",
"490 -20 QCURVE SMOOTH"
);
},
{
closed = 1;
nodes = (
"382 113 OFFCURVE",
"256 270 OFFCURVE",
"256 409 QCURVE SMOOTH",
"256 511 OFFCURVE",
"315 722 OFFCURVE",
"444 875 OFFCURVE",
"629 951 OFFCURVE",
"750 951 QCURVE SMOOTH",
"833 951 LINE",
"872 819 OFFCURVE",
"872 681 QCURVE SMOOTH",
"872 113 OFFCURVE",
"500 113 QCURVE SMOOTH"
);
}
);
width = 1235;
}
);
note = sigma;
unicode = 03C3;
},
{
glyphname = tau;
lastChange = "2019-11-18 22:49:30 +0000";
layers = (
{
layerId = "B8E4E6F7-CD69-4587-8CB0-DED49904045E";
paths = (
{
closed = 1;
nodes = (
"361 951 LINE",
"229 271 LINE SMOOTH",
"219 226 OFFCURVE",
"219 173 QCURVE SMOOTH",
"219 -20 OFFCURVE",
"399 -20 QCURVE SMOOTH",
"470 -20 OFFCURVE",
"553 2 QCURVE",
"568 136 LINE",
"508 121 OFFCURVE",
"473 121 QCURVE SMOOTH",
"401 121 OFFCURVE",
"401 203 QCURVE SMOOTH",
"401 231 OFFCURVE",
"408 266 QCURVE SMOOTH",
"541 951 LINE",
"845 951 LINE",
"871 1082 LINE",
"291 1082 LINE SMOOTH",
"236 1082 OFFCURVE",
"129 1065 OFFCURVE",
"102 1053 QCURVE",
"75 914 LINE",
"103 928 OFFCURVE",
"253 951 OFFCURVE",
"334 951 QCURVE SMOOTH"
);
}
);
width = 766;
}
);
note = tau;
unicode = 03C4;
},
{
glyphname = phi;
lastChange = "2019-11-18 22:49:30 +0000";
layers = (
{
layerId = "B8E4E6F7-CD69-4587-8CB0-DED49904045E";
paths = (
{
closed = 1;
nodes = (
"824 1104 OFFCURVE",
"649 917 OFFCURVE",
"606 699 QCURVE SMOOTH",
"494 119 LINE",
"376 126 OFFCURVE",
"259 285 OFFCURVE",
"259 423 QCURVE SMOOTH",
"259 547 OFFCURVE",
"338 797 OFFCURVE",
"495 945 OFFCURVE",
"614 973 QCURVE",
"586 1106 LINE",
"348 1070 OFFCURVE",
"71 706 OFFCURVE",
"71 434 QCURVE SMOOTH",
"71 228 OFFCURVE",
"281 -10 OFFCURVE",
"467 -18 QCURVE",
"388 -425 LINE",
"558 -425 LINE",
"637 -18 LINE",
"799 -13 OFFCURVE",
"1031 89 OFFCURVE",
"1189 294 OFFCURVE",
"1270 588 OFFCURVE",
"1270 729 QCURVE SMOOTH",
"1270 908 OFFCURVE",
"1115 1104 OFFCURVE",
"977 1104 QCURVE SMOOTH"
);
},
{
closed = 1;
nodes = (
"1087 971 OFFCURVE",
"1087 758 QCURVE SMOOTH",
"1087 655 OFFCURVE",
"1030 384 OFFCURVE",
"927 208 OFFCURVE",
"775 122 OFFCURVE",
"664 119 QCURVE",
"777 702 LINE SMOOTH",
"803 841 OFFCURVE",
"894 971 OFFCURVE",
"967 971 QCURVE SMOOTH"
);
}
);
width = 1336;
}
);
note = phi;
unicode = 03C6;
},
{
glyphname = nsuperior;
lastChange = "2019-11-18 22:49:30 +0000";
layers = (
{
layerId = "B8E4E6F7-CD69-4587-8CB0-DED49904045E";
paths = (
{
closed = 1;
nodes = (
"630 519 LINE",
"705 902 LINE SMOOTH",
"716 964 OFFCURVE",
"716 1000 QCURVE SMOOTH",
"716 1092 OFFCURVE",
"623 1181 OFFCURVE",
"542 1181 QCURVE SMOOTH",
"475 1181 OFFCURVE",
"375 1131 OFFCURVE",
"320 1058 QCURVE",
"318 1058 LINE",
"334 1169 LINE",
"215 1169 LINE",
"192 1030 LINE",
"92 519 LINE",
"220 519 LINE",
"291 883 LINE SMOOTH",
"309 977 OFFCURVE",
"414 1077 OFFCURVE",
"486 1077 QCURVE SMOOTH",
"585 1077 OFFCURVE",
"585 981 QCURVE SMOOTH",
"585 944 OFFCURVE",
"574 893 QCURVE SMOOTH",
"501 519 LINE"
);
}
);
width = 747;
}
);
note = nsuperior;
unicode = 207F;
},
{
glyphname = peseta;
lastChange = "2019-11-18 22:49:30 +0000";
layers = (
{
layerId = "B8E4E6F7-CD69-4587-8CB0-DED49904045E";
paths = (
{
closed = 1;
nodes = (
"871 700 OFFCURVE",
"489 700 QCURVE SMOOTH",
"395 700 LINE",
"503 1256 LINE",
"559 1256 LINE SMOOTH",
"713 1256 OFFCURVE",
"871 1130 OFFCURVE",
"871 1011 QCURVE SMOOTH"
);
},
{
closed = 1;
nodes = (
"1368 1055 LINE",
"1258 1055 LINE",
"1158 813 LINE",
"1047 813 LINE",
"1021 682 LINE",
"1125 682 LINE",
"1046 272 LINE SMOOTH",
"1036 220 OFFCURVE",
"1036 168 QCURVE SMOOTH",
"1036 82 OFFCURVE",
"1130 -16 OFFCURVE",
"1211 -16 QCURVE SMOOTH",
"1291 -16 OFFCURVE",
"1354 5 QCURVE",
"1373 131 LINE",
"1310 117 OFFCURVE",
"1281 117 QCURVE SMOOTH",
"1209 117 OFFCURVE",
"1209 199 QCURVE SMOOTH",
"1209 242 OFFCURVE",
"1219 288 QCURVE SMOOTH",
"1295 682 LINE",
"1452 682 LINE",
"1478 813 LINE",
"1321 813 LINE"
);
},
{
closed = 1;
nodes = (
"1687 824 OFFCURVE",
"1507 696 OFFCURVE",
"1507 578 QCURVE SMOOTH",
"1507 416 OFFCURVE",
"1735 358 QCURVE SMOOTH",
"1844 329 OFFCURVE",
"1915 298 OFFCURVE",
"1946 258 OFFCURVE",
"1946 229 QCURVE SMOOTH",
"1946 171 OFFCURVE",
"1846 117 OFFCURVE",
"1742 117 QCURVE SMOOTH",
"1654 117 OFFCURVE",
"1566 173 OFFCURVE",
"1547 232 QCURVE",
"1394 180 LINE",
"1427 71 OFFCURVE",
"1589 -20 OFFCURVE",
"1735 -20 QCURVE SMOOTH",
"1920 -20 OFFCURVE",
"2120 116 OFFCURVE",
"2120 246 QCURVE SMOOTH",
"2120 335 OFFCURVE",
"2006 449 OFFCURVE",
"1882 479 QCURVE SMOOTH",
"1767 506 OFFCURVE",
"1687 556 OFFCURVE",
"1687 600 QCURVE SMOOTH",
"1687 686 OFFCURVE",
"1849 686 QCURVE SMOOTH",
"1924 686 OFFCURVE",
"2005 628 OFFCURVE",
"2016 586 QCURVE",
"2176 611 LINE",
"2156 707 OFFCURVE",
"1998 824 OFFCURVE",
"1857 824 QCURVE SMOOTH"
);
},
{
closed = 1;
nodes = (
"1065 1201 OFFCURVE",
"795 1409 OFFCURVE",
"564 1409 QCURVE SMOOTH",
"351 1409 LINE",
"78 0 LINE",
"259 0 LINE",
"365 549 LINE",
"495 549 LINE SMOOTH",
"760 549 OFFCURVE",
"1065 800 OFFCURVE",
"1065 1020 QCURVE SMOOTH"
);
}
);
width = 2240;
}
);
note = peseta;
unicode = 20A7;
},
{
glyphname = arrowleft;
lastChange = "2019-11-18 22:49:30 +0000";
layers = (
{
layerId = "B8E4E6F7-CD69-4587-8CB0-DED49904045E";
paths = (
{
closed = 1;
nodes = (
"1630 497 LINE",
"1630 583 LINE",
"641 583 LINE",
"698 650 OFFCURVE",
"760 780 QCURVE",
"688 780 LINE",
"561 631 OFFCURVE",
"418 558 QCURVE",
"418 522 LINE",
"561 449 OFFCURVE",
"688 300 QCURVE",
"760 300 LINE",
"698 430 OFFCURVE",
"641 497 QCURVE"
);
}
);
width = 2048;
}
);
note = arrowleft;
unicode = 2190;
},
{
glyphname = arrowup;
lastChange = "2019-11-18 22:49:30 +0000";
layers = (
{
layerId = "B8E4E6F7-CD69-4587-8CB0-DED49904045E";
paths = (
{
closed = 1;
nodes = (
"469 -61 LINE",
"555 -61 LINE",
"555 928 LINE",
"622 871 OFFCURVE",
"752 809 QCURVE",
"752 881 LINE",
"603 1008 OFFCURVE",
"530 1151 QCURVE",
"494 1151 LINE",
"421 1008 OFFCURVE",
"272 881 QCURVE",
"272 809 LINE",
"402 871 OFFCURVE",
"469 928 QCURVE"
);
}
);
width = 1024;
}
);
note = arrowup;
unicode = 2191;
},
{
glyphname = arrowright;
lastChange = "2019-11-18 22:49:30 +0000";
layers = (
{
layerId = "B8E4E6F7-CD69-4587-8CB0-DED49904045E";
paths = (
{
closed = 1;
nodes = (
"418 583 LINE",
"418 497 LINE",
"1407 497 LINE",
"1350 430 OFFCURVE",
"1288 300 QCURVE",
"1360 300 LINE",
"1487 449 OFFCURVE",
"1630 522 QCURVE",
"1630 558 LINE",
"1487 631 OFFCURVE",
"1360 780 QCURVE",
"1288 780 LINE",
"1350 650 OFFCURVE",
"1407 583 QCURVE"
);
}
);
width = 2048;
}
);
note = arrowright;
unicode = 2192;
},
{
glyphname = arrowdown;
lastChange = "2019-11-18 22:49:30 +0000";
layers = (
{
layerId = "B8E4E6F7-CD69-4587-8CB0-DED49904045E";
paths = (
{
closed = 1;
nodes = (
"555 1151 LINE",
"469 1151 LINE",
"469 162 LINE",
"402 219 OFFCURVE",
"272 281 QCURVE",
"272 209 LINE",
"421 82 OFFCURVE",
"494 -61 QCURVE",
"530 -61 LINE",
"603 82 OFFCURVE",
"752 209 QCURVE",
"752 281 LINE",
"622 219 OFFCURVE",
"555 162 QCURVE"
);
}
);
width = 1024;
}
);
note = arrowdown;
unicode = 2193;
},
{
glyphname = arrowboth;
lastChange = "2019-11-18 22:49:30 +0000";
layers = (
{
layerId = "B8E4E6F7-CD69-4587-8CB0-DED49904045E";
paths = (
{
closed = 1;
nodes = (
"1407 497 LINE",
"1350 430 OFFCURVE",
"1288 300 QCURVE",
"1360 300 LINE",
"1487 449 OFFCURVE",
"1630 522 QCURVE",
"1630 558 LINE",
"1487 631 OFFCURVE",
"1360 780 QCURVE",
"1288 780 LINE",
"1350 650 OFFCURVE",
"1407 583 QCURVE",
"641 583 LINE",
"698 650 OFFCURVE",
"760 780 QCURVE",
"688 780 LINE",
"561 631 OFFCURVE",
"418 558 QCURVE",
"418 522 LINE",
"561 449 OFFCURVE",
"688 300 QCURVE",
"760 300 LINE",
"698 430 OFFCURVE",
"641 497 QCURVE"
);
}
);
width = 2048;
}
);
note = arrowboth;
unicode = 2194;
},
{
glyphname = arrowupdn;
lastChange = "2019-11-18 22:49:30 +0000";
layers = (
{
layerId = "B8E4E6F7-CD69-4587-8CB0-DED49904045E";
paths = (
{
closed = 1;
nodes = (
"469 162 LINE",
"402 219 OFFCURVE",
"272 281 QCURVE",
"272 209 LINE",
"421 82 OFFCURVE",
"494 -61 QCURVE",
"530 -61 LINE",
"603 82 OFFCURVE",
"752 209 QCURVE",
"752 281 LINE",
"622 219 OFFCURVE",
"555 162 QCURVE",
"555 928 LINE",
"622 871 OFFCURVE",
"752 809 QCURVE",
"752 881 LINE",
"603 1008 OFFCURVE",
"530 1151 QCURVE",
"494 1151 LINE",
"421 1008 OFFCURVE",
"272 881 QCURVE",
"272 809 LINE",
"402 871 OFFCURVE",
"469 928 QCURVE"
);
}
);
width = 1024;
}
);
note = arrowupdn;
unicode = 2195;
},
{
glyphname = arrowupdnbse;
lastChange = "2019-11-18 22:49:30 +0000";
layers = (
{
layerId = "B8E4E6F7-CD69-4587-8CB0-DED49904045E";
paths = (
{
closed = 1;
nodes = (
"272 -184 LINE",
"752 -184 LINE",
"752 -104 LINE",
"272 -104 LINE"
);
},
{
closed = 1;
nodes = (
"469 162 LINE",
"402 219 OFFCURVE",
"272 281 QCURVE",
"272 209 LINE",
"421 82 OFFCURVE",
"494 -61 QCURVE",
"530 -61 LINE",
"603 82 OFFCURVE",
"752 209 QCURVE",
"752 281 LINE",
"622 219 OFFCURVE",
"555 162 QCURVE",
"555 928 LINE",
"622 871 OFFCURVE",
"752 809 QCURVE",
"752 881 LINE",
"603 1008 OFFCURVE",
"530 1151 QCURVE",
"494 1151 LINE",
"421 1008 OFFCURVE",
"272 881 QCURVE",
"272 809 LINE",
"402 871 OFFCURVE",
"469 928 QCURVE"
);
}
);
width = 1024;
}
);
note = arrowupdnbse;
unicode = 21A8;
},
{
glyphname = orthogonal;
lastChange = "2019-11-18 22:49:30 +0000";
layers = (
{
layerId = "B8E4E6F7-CD69-4587-8CB0-DED49904045E";
paths = (
{
closed = 1;
nodes = (
"408 0 LINE",
"1632 0 LINE",
"1632 94 LINE",
"502 94 LINE",
"502 1223 LINE",
"408 1223 LINE"
);
}
);
width = 2005;
}
);
note = orthogonal;
unicode = 221F;
},
{
glyphname = intersection;
lastChange = "2019-11-18 22:49:30 +0000";
layers = (
{
layerId = "B8E4E6F7-CD69-4587-8CB0-DED49904045E";
paths = (
{
closed = 1;
nodes = (
"381 -2 LINE",
"381 510 LINE SMOOTH",
"381 704 OFFCURVE",
"573 930 OFFCURVE",
"735 930 QCURVE SMOOTH",
"895 930 OFFCURVE",
"1091 702 OFFCURVE",
"1091 512 QCURVE SMOOTH",
"1091 -2 LINE",
"1194 -2 LINE",
"1194 510 LINE SMOOTH",
"1194 658 OFFCURVE",
"1075 900 OFFCURVE",
"864 1032 OFFCURVE",
"733 1032 QCURVE SMOOTH",
"603 1032 OFFCURVE",
"394 899 OFFCURVE",
"278 660 OFFCURVE",
"278 510 QCURVE SMOOTH",
"278 -2 LINE"
);
}
);
width = 1472;
}
);
note = intersection;
unicode = 2229;
},
{
glyphname = equivalence;
lastChange = "2019-11-18 22:49:30 +0000";
layers = (
{
layerId = "B8E4E6F7-CD69-4587-8CB0-DED49904045E";
paths = (
{
closed = 1;
nodes = (
"1095 956 LINE",
"1095 1104 LINE",
"100 1104 LINE",
"100 956 LINE"
);
},
{
closed = 1;
nodes = (
"1095 244 LINE",
"1095 392 LINE",
"100 392 LINE",
"100 244 LINE"
);
},
{
closed = 1;
nodes = (
"1095 600 LINE",
"1095 748 LINE",
"100 748 LINE",
"100 600 LINE"
);
}
);
width = 1196;
}
);
note = equivalence;
unicode = 2261;
},
{
glyphname = house;
lastChange = "2019-11-18 22:49:30 +0000";
layers = (
{
layerId = "B8E4E6F7-CD69-4587-8CB0-DED49904045E";
paths = (
{
closed = 1;
nodes = (
"1079 0 LINE",
"1079 635 LINE",
"618 1153 LINE",
"157 635 LINE",
"157 0 LINE"
);
},
{
closed = 1;
nodes = (
"237 600 LINE",
"618 1026 LINE",
"999 600 LINE",
"999 82 LINE",
"237 82 LINE"
);
}
);
width = 1237;
}
);
note = house;
unicode = 2302;
},
{
glyphname = revlogicalnot;
lastChange = "2019-11-18 22:49:30 +0000";
layers = (
{
layerId = "B8E4E6F7-CD69-4587-8CB0-DED49904045E";
paths = (
{
closed = 1;
nodes = (
"245 180 LINE",
"245 608 LINE",
"1095 608 LINE",
"1095 754 LINE",
"100 754 LINE",
"100 180 LINE"
);
}
);
width = 1196;
}
);
note = revlogicalnot;
unicode = 2310;
},
{
glyphname = integraltp;
lastChange = "2019-11-18 22:49:30 +0000";
layers = (
{
layerId = "B8E4E6F7-CD69-4587-8CB0-DED49904045E";
paths = (
{
closed = 1;
nodes = (
"693 1423 LINE SMOOTH",
"693 1528 OFFCURVE",
"699 1563 QCURVE SMOOTH",
"708 1602 OFFCURVE",
"744 1602 QCURVE SMOOTH",
"760 1602 OFFCURVE",
"793 1563 QCURVE SMOOTH",
"831 1521 OFFCURVE",
"847 1513 QCURVE",
"860 1503 OFFCURVE",
"890 1503 QCURVE SMOOTH",
"927 1503 OFFCURVE",
"978 1555 OFFCURVE",
"978 1595 QCURVE SMOOTH",
"978 1643 OFFCURVE",
"903 1706 OFFCURVE",
"840 1706 QCURVE SMOOTH",
"714 1706 OFFCURVE",
"546 1460 OFFCURVE",
"546 1264 QCURVE SMOOTH",
"546 -614 LINE",
"693 -614 LINE"
);
}
);
width = 1237;
}
);
note = integraltp;
unicode = 2320;
},
{
glyphname = integralbt;
lastChange = "2019-11-18 22:49:30 +0000";
layers = (
{
layerId = "B8E4E6F7-CD69-4587-8CB0-DED49904045E";
paths = (
{
closed = 1;
nodes = (
"546 -334 LINE SMOOTH",
"546 -461 OFFCURVE",
"523 -512 OFFCURVE",
"494 -512 QCURVE SMOOTH",
"478 -512 OFFCURVE",
"447 -475 QCURVE SMOOTH",
"416 -434 OFFCURVE",
"406 -430 QCURVE",
"380 -414 OFFCURVE",
"347 -414 QCURVE SMOOTH",
"311 -414 OFFCURVE",
"261 -467 OFFCURVE",
"261 -506 QCURVE SMOOTH",
"261 -553 OFFCURVE",
"339 -614 OFFCURVE",
"398 -614 QCURVE SMOOTH",
"530 -614 OFFCURVE",
"693 -369 OFFCURVE",
"693 -174 QCURVE SMOOTH",
"693 1706 LINE",
"546 1706 LINE"
);
}
);
width = 1237;
}
);
note = integralbt;
unicode = 2321;
},
{
glyphname = uni2500;
lastChange = "2019-11-18 22:49:30 +0000";
layers = (
{
layerId = "B8E4E6F7-CD69-4587-8CB0-DED49904045E";
paths = (
{
closed = 1;
nodes = (
"1461 549 LINE",
"1461 694 LINE",
"-10 694 LINE",
"-10 549 LINE"
);
}
);
width = 1451;
}
);
note = uni2500;
unicode = 2500;
},
{
glyphname = uni2502;
lastChange = "2019-11-18 22:49:30 +0000";
layers = (
{
layerId = "B8E4E6F7-CD69-4587-8CB0-DED49904045E";
paths = (
{
closed = 1;
nodes = (
"472 -621 LINE",
"617 -621 LINE",
"617 1864 LINE",
"472 1864 LINE"
);
}
);
width = 1280;
}
);
note = uni2502;
unicode = 2502;
},
{
glyphname = uni250C;
lastChange = "2019-11-18 22:49:30 +0000";
layers = (
{
layerId = "B8E4E6F7-CD69-4587-8CB0-DED49904045E";
paths = (
{
closed = 1;
nodes = (
"653 -621 LINE",
"798 -621 LINE",
"798 549 LINE",
"1461 549 LINE",
"1461 694 LINE",
"653 694 LINE"
);
}
);
width = 1451;
}
);
note = uni250C;
unicode = 250C;
},
{
glyphname = uni2510;
lastChange = "2019-11-18 22:49:30 +0000";
layers = (
{
layerId = "B8E4E6F7-CD69-4587-8CB0-DED49904045E";
paths = (
{
closed = 1;
nodes = (
"653 549 LINE",
"653 -621 LINE",
"798 -621 LINE",
"798 694 LINE",
"-10 694 LINE",
"-10 549 LINE"
);
}
);
width = 1451;
}
);
note = uni2510;
unicode = 2510;
},
{
glyphname = uni2514;
lastChange = "2019-11-18 22:49:30 +0000";
layers = (
{
layerId = "B8E4E6F7-CD69-4587-8CB0-DED49904045E";
paths = (
{
closed = 1;
nodes = (
"653 549 LINE",
"1461 549 LINE",
"1461 694 LINE",
"798 694 LINE",
"798 1864 LINE",
"653 1864 LINE"
);
}
);
width = 1451;
}
);
note = uni2514;
unicode = 2514;
},
{
glyphname = uni2518;
lastChange = "2019-11-18 22:49:30 +0000";
layers = (
{
layerId = "B8E4E6F7-CD69-4587-8CB0-DED49904045E";
paths = (
{
closed = 1;
nodes = (
"798 549 LINE",
"798 1864 LINE",
"653 1864 LINE",
"653 694 LINE",
"-10 694 LINE",
"-10 549 LINE"
);
}
);
width = 1451;
}
);
note = uni2518;
unicode = 2518;
},
{
glyphname = uni251C;
lastChange = "2019-11-18 22:49:30 +0000";
layers = (
{
layerId = "B8E4E6F7-CD69-4587-8CB0-DED49904045E";
paths = (
{
closed = 1;
nodes = (
"653 -621 LINE",
"798 -621 LINE",
"798 549 LINE",
"1461 549 LINE",
"1461 694 LINE",
"798 694 LINE",
"798 1864 LINE",
"653 1864 LINE"
);
}
);
width = 1451;
}
);
note = uni251C;
unicode = 251C;
},
{
glyphname = uni2524;
lastChange = "2019-11-18 22:49:30 +0000";
layers = (
{
layerId = "B8E4E6F7-CD69-4587-8CB0-DED49904045E";
paths = (
{
closed = 1;
nodes = (
"653 549 LINE",
"653 -621 LINE",
"798 -621 LINE",
"798 1864 LINE",
"653 1864 LINE",
"653 694 LINE",
"-10 694 LINE",
"-10 549 LINE"
);
}
);
width = 1451;
}
);
note = uni2524;
unicode = 2524;
},
{
glyphname = uni252C;
lastChange = "2019-11-18 22:49:30 +0000";
layers = (
{
layerId = "B8E4E6F7-CD69-4587-8CB0-DED49904045E";
paths = (
{
closed = 1;
nodes = (
"653 549 LINE",
"653 -621 LINE",
"798 -621 LINE",
"798 549 LINE",
"1461 549 LINE",
"1461 694 LINE",
"-10 694 LINE",
"-10 549 LINE"
);
}
);
width = 1451;
}
);
note = uni252C;
unicode = 252C;
},
{
glyphname = uni2534;
lastChange = "2019-11-18 22:49:30 +0000";
layers = (
{
layerId = "B8E4E6F7-CD69-4587-8CB0-DED49904045E";
paths = (
{
closed = 1;
nodes = (
"1461 549 LINE",
"1461 694 LINE",
"798 694 LINE",
"798 1864 LINE",
"653 1864 LINE",
"653 694 LINE",
"-10 694 LINE",
"-10 549 LINE"
);
}
);
width = 1451;
}
);
note = uni2534;
unicode = 2534;
},
{
glyphname = uni253C;
lastChange = "2019-11-18 22:49:30 +0000";
layers = (
{
layerId = "B8E4E6F7-CD69-4587-8CB0-DED49904045E";
paths = (
{
closed = 1;
nodes = (
"653 549 LINE",
"653 -621 LINE",
"798 -621 LINE",
"798 549 LINE",
"1461 549 LINE",
"1461 694 LINE",
"798 694 LINE",
"798 1864 LINE",
"653 1864 LINE",
"653 694 LINE",
"-10 694 LINE",
"-10 549 LINE"
);
}
);
width = 1451;
}
);
note = uni253C;
unicode = 253C;
},
{
glyphname = uni2550;
lastChange = "2019-11-18 22:49:30 +0000";
layers = (
{
layerId = "B8E4E6F7-CD69-4587-8CB0-DED49904045E";
paths = (
{
closed = 1;
nodes = (
"1461 729 LINE",
"1461 874 LINE",
"-10 874 LINE",
"-10 729 LINE"
);
},
{
closed = 1;
nodes = (
"1461 369 LINE",
"1461 514 LINE",
"-10 514 LINE",
"-10 369 LINE"
);
}
);
width = 1451;
}
);
note = uni2550;
unicode = 2550;
},
{
glyphname = uni2551;
lastChange = "2019-11-18 22:49:30 +0000";
layers = (
{
layerId = "B8E4E6F7-CD69-4587-8CB0-DED49904045E";
paths = (
{
closed = 1;
nodes = (
"473 -621 LINE",
"618 -621 LINE",
"618 1864 LINE",
"473 1864 LINE"
);
},
{
closed = 1;
nodes = (
"833 -621 LINE",
"978 -621 LINE",
"978 1864 LINE",
"833 1864 LINE"
);
}
);
width = 1451;
}
);
note = uni2551;
unicode = 2551;
},
{
glyphname = uni2552;
lastChange = "2019-11-18 22:49:30 +0000";
layers = (
{
layerId = "B8E4E6F7-CD69-4587-8CB0-DED49904045E";
paths = (
{
closed = 1;
nodes = (
"653 -621 LINE",
"798 -621 LINE",
"798 369 LINE",
"1461 369 LINE",
"1461 514 LINE",
"798 514 LINE",
"798 729 LINE",
"1461 729 LINE",
"1461 874 LINE",
"653 874 LINE"
);
}
);
width = 1451;
}
);
note = uni2552;
unicode = 2552;
},
{
glyphname = uni2553;
lastChange = "2019-11-18 22:49:30 +0000";
layers = (
{
layerId = "B8E4E6F7-CD69-4587-8CB0-DED49904045E";
paths = (
{
closed = 1;
nodes = (
"473 694 LINE",
"473 -621 LINE",
"618 -621 LINE",
"618 549 LINE",
"833 549 LINE",
"833 -621 LINE",
"978 -621 LINE",
"978 549 LINE",
"1461 549 LINE",
"1461 694 LINE"
);
}
);
width = 1451;
}
);
note = uni2553;
unicode = 2553;
},
{
glyphname = uni2554;
lastChange = "2019-11-18 22:49:30 +0000";
layers = (
{
layerId = "B8E4E6F7-CD69-4587-8CB0-DED49904045E";
paths = (
{
closed = 1;
nodes = (
"473 -621 LINE",
"618 -621 LINE",
"618 729 LINE",
"1461 729 LINE",
"1461 874 LINE",
"473 874 LINE"
);
},
{
closed = 1;
nodes = (
"833 -621 LINE",
"978 -621 LINE",
"978 369 LINE",
"1461 369 LINE",
"1461 514 LINE",
"833 514 LINE"
);
}
);
width = 1451;
}
);
note = uni2554;
unicode = 2554;
},
{
glyphname = uni2555;
lastChange = "2019-11-18 22:49:30 +0000";
layers = (
{
layerId = "B8E4E6F7-CD69-4587-8CB0-DED49904045E";
paths = (
{
closed = 1;
nodes = (
"653 369 LINE",
"653 -621 LINE",
"798 -621 LINE",
"798 874 LINE",
"-10 874 LINE",
"-10 729 LINE",
"653 729 LINE",
"653 514 LINE",
"-10 514 LINE",
"-10 369 LINE"
);
}
);
width = 1451;
}
);
note = uni2555;
unicode = 2555;
},
{
glyphname = uni2556;
lastChange = "2019-11-18 22:49:30 +0000";
layers = (
{
layerId = "B8E4E6F7-CD69-4587-8CB0-DED49904045E";
paths = (
{
closed = 1;
nodes = (
"473 549 LINE",
"473 -621 LINE",
"618 -621 LINE",
"618 549 LINE",
"833 549 LINE",
"833 -621 LINE",
"978 -621 LINE",
"978 694 LINE",
"-10 694 LINE",
"-10 549 LINE"
);
}
);
width = 1451;
}
);
note = uni2556;
unicode = 2556;
},
{
glyphname = uni2557;
lastChange = "2019-11-18 22:49:30 +0000";
layers = (
{
layerId = "B8E4E6F7-CD69-4587-8CB0-DED49904045E";
paths = (
{
closed = 1;
nodes = (
"-10 874 LINE",
"-10 729 LINE",
"833 729 LINE",
"833 -621 LINE",
"978 -621 LINE",
"978 874 LINE"
);
},
{
closed = 1;
nodes = (
"618 514 LINE",
"-10 514 LINE",
"-10 369 LINE",
"473 369 LINE",
"473 -621 LINE",
"618 -621 LINE"
);
}
);
width = 1451;
}
);
note = uni2557;
unicode = 2557;
},
{
glyphname = uni2558;
lastChange = "2019-11-18 22:49:30 +0000";
layers = (
{
layerId = "B8E4E6F7-CD69-4587-8CB0-DED49904045E";
paths = (
{
closed = 1;
nodes = (
"653 369 LINE",
"1461 369 LINE",
"1461 514 LINE",
"798 514 LINE",
"798 729 LINE",
"1461 729 LINE",
"1461 874 LINE",
"798 874 LINE",
"798 1864 LINE",
"653 1864 LINE"
);
}
);
width = 1451;
}
);
note = uni2558;
unicode = 2558;
},
{
glyphname = uni2559;
lastChange = "2019-11-18 22:49:30 +0000";
layers = (
{
layerId = "B8E4E6F7-CD69-4587-8CB0-DED49904045E";
paths = (
{
closed = 1;
nodes = (
"833 694 LINE",
"618 694 LINE",
"618 1864 LINE",
"473 1864 LINE",
"473 549 LINE",
"1461 549 LINE",
"1461 694 LINE",
"978 694 LINE",
"978 1864 LINE",
"833 1864 LINE"
);
}
);
width = 1451;
}
);
note = uni2559;
unicode = 2559;
},
{
glyphname = uni255A;
lastChange = "2019-11-18 22:49:30 +0000";
layers = (
{
layerId = "B8E4E6F7-CD69-4587-8CB0-DED49904045E";
paths = (
{
closed = 1;
nodes = (
"473 369 LINE",
"1461 369 LINE",
"1461 514 LINE",
"618 514 LINE",
"618 1864 LINE",
"473 1864 LINE"
);
},
{
closed = 1;
nodes = (
"833 729 LINE",
"1461 729 LINE",
"1461 874 LINE",
"978 874 LINE",
"978 1864 LINE",
"833 1864 LINE"
);
}
);
width = 1451;
}
);
note = uni255A;
unicode = 255A;
},
{
glyphname = uni255B;
lastChange = "2019-11-18 22:49:30 +0000";
layers = (
{
layerId = "B8E4E6F7-CD69-4587-8CB0-DED49904045E";
paths = (
{
closed = 1;
nodes = (
"798 369 LINE",
"798 1864 LINE",
"653 1864 LINE",
"653 874 LINE",
"-10 874 LINE",
"-10 729 LINE",
"653 729 LINE",
"653 514 LINE",
"-10 514 LINE",
"-10 369 LINE"
);
}
);
width = 1451;
}
);
note = uni255B;
unicode = 255B;
},
{
glyphname = uni255C;
lastChange = "2019-11-18 22:49:30 +0000";
layers = (
{
layerId = "B8E4E6F7-CD69-4587-8CB0-DED49904045E";
paths = (
{
closed = 1;
nodes = (
"978 1864 LINE",
"833 1864 LINE",
"833 694 LINE",
"618 694 LINE",
"618 1864 LINE",
"473 1864 LINE",
"473 694 LINE",
"-10 694 LINE",
"-10 549 LINE",
"978 549 LINE"
);
}
);
width = 1451;
}
);
note = uni255C;
unicode = 255C;
},
{
glyphname = uni255D;
lastChange = "2019-11-18 22:49:30 +0000";
layers = (
{
layerId = "B8E4E6F7-CD69-4587-8CB0-DED49904045E";
paths = (
{
closed = 1;
nodes = (
"978 1864 LINE",
"833 1864 LINE",
"833 514 LINE",
"-10 514 LINE",
"-10 369 LINE",
"978 369 LINE"
);
},
{
closed = 1;
nodes = (
"473 874 LINE",
"-10 874 LINE",
"-10 729 LINE",
"618 729 LINE",
"618 1864 LINE",
"473 1864 LINE"
);
}
);
width = 1451;
}
);
note = uni255D;
unicode = 255D;
},
{
glyphname = uni255E;
lastChange = "2019-11-18 22:49:30 +0000";
layers = (
{
layerId = "B8E4E6F7-CD69-4587-8CB0-DED49904045E";
paths = (
{
closed = 1;
nodes = (
"653 -621 LINE",
"798 -621 LINE",
"798 369 LINE",
"1461 369 LINE",
"1461 514 LINE",
"798 514 LINE",
"798 729 LINE",
"1461 729 LINE",
"1461 874 LINE",
"798 874 LINE",
"798 1864 LINE",
"653 1864 LINE"
);
}
);
width = 1451;
}
);
note = uni255E;
unicode = 255E;
},
{
glyphname = uni255F;
lastChange = "2019-11-18 22:49:30 +0000";
layers = (
{
layerId = "B8E4E6F7-CD69-4587-8CB0-DED49904045E";
paths = (
{
closed = 1;
nodes = (
"833 -621 LINE",
"978 -621 LINE",
"978 549 LINE",
"1461 549 LINE",
"1461 694 LINE",
"978 694 LINE",
"978 1864 LINE",
"833 1864 LINE"
);
},
{
closed = 1;
nodes = (
"473 -621 LINE",
"618 -621 LINE",
"618 1864 LINE",
"473 1864 LINE"
);
}
);
width = 1451;
}
);
note = uni255F;
unicode = 255F;
},
{
glyphname = uni2560;
lastChange = "2019-11-18 22:49:30 +0000";
layers = (
{
layerId = "B8E4E6F7-CD69-4587-8CB0-DED49904045E";
paths = (
{
closed = 1;
nodes = (
"618 1864 LINE",
"473 1864 LINE",
"473 -621 LINE",
"618 -621 LINE"
);
},
{
closed = 1;
nodes = (
"833 -621 LINE",
"978 -621 LINE",
"978 369 LINE",
"1461 369 LINE",
"1461 514 LINE",
"833 514 LINE"
);
},
{
closed = 1;
nodes = (
"833 729 LINE",
"1461 729 LINE",
"1461 874 LINE",
"978 874 LINE",
"978 1864 LINE",
"833 1864 LINE"
);
}
);
width = 1451;
}
);
note = uni2560;
unicode = 2560;
},
{
glyphname = uni2561;
lastChange = "2019-11-18 22:49:30 +0000";
layers = (
{
layerId = "B8E4E6F7-CD69-4587-8CB0-DED49904045E";
paths = (
{
closed = 1;
nodes = (
"653 369 LINE",
"653 -621 LINE",
"798 -621 LINE",
"798 1864 LINE",
"653 1864 LINE",
"653 874 LINE",
"-10 874 LINE",
"-10 729 LINE",
"653 729 LINE",
"653 514 LINE",
"-10 514 LINE",
"-10 369 LINE"
);
}
);
width = 1451;
}
);
note = uni2561;
unicode = 2561;
},
{
glyphname = uni2562;
lastChange = "2019-11-18 22:49:30 +0000";
layers = (
{
layerId = "B8E4E6F7-CD69-4587-8CB0-DED49904045E";
paths = (
{
closed = 1;
nodes = (
"473 549 LINE",
"473 -621 LINE",
"618 -621 LINE",
"618 1864 LINE",
"473 1864 LINE",
"473 694 LINE",
"-10 694 LINE",
"-10 549 LINE"
);
},
{
closed = 1;
nodes = (
"833 -621 LINE",
"978 -621 LINE",
"978 1864 LINE",
"833 1864 LINE"
);
}
);
width = 1451;
}
);
note = uni2562;
unicode = 2562;
},
{
glyphname = uni2563;
lastChange = "2019-11-18 22:49:30 +0000";
layers = (
{
layerId = "B8E4E6F7-CD69-4587-8CB0-DED49904045E";
paths = (
{
closed = 1;
nodes = (
"833 -621 LINE",
"978 -621 LINE",
"978 1864 LINE",
"833 1864 LINE"
);
},
{
closed = 1;
nodes = (
"473 874 LINE",
"-10 874 LINE",
"-10 729 LINE",
"618 729 LINE",
"618 1864 LINE",
"473 1864 LINE"
);
},
{
closed = 1;
nodes = (
"618 514 LINE",
"-10 514 LINE",
"-10 369 LINE",
"473 369 LINE",
"473 -621 LINE",
"618 -621 LINE"
);
}
);
width = 1451;
}
);
note = uni2563;
unicode = 2563;
},
{
glyphname = uni2564;
lastChange = "2019-11-18 22:49:30 +0000";
layers = (
{
layerId = "B8E4E6F7-CD69-4587-8CB0-DED49904045E";
paths = (
{
closed = 1;
nodes = (
"653 369 LINE",
"653 -621 LINE",
"798 -621 LINE",
"798 369 LINE",
"1461 369 LINE",
"1461 514 LINE",
"-10 514 LINE",
"-10 369 LINE"
);
},
{
closed = 1;
nodes = (
"1461 729 LINE",
"1461 874 LINE",
"-10 874 LINE",
"-10 729 LINE"
);
}
);
width = 1451;
}
);
note = uni2564;
unicode = 2564;
},
{
glyphname = uni2565;
lastChange = "2019-11-18 22:49:30 +0000";
layers = (
{
layerId = "B8E4E6F7-CD69-4587-8CB0-DED49904045E";
paths = (
{
closed = 1;
nodes = (
"473 549 LINE",
"473 -621 LINE",
"618 -621 LINE",
"618 549 LINE",
"833 549 LINE",
"833 -621 LINE",
"978 -621 LINE",
"978 549 LINE",
"1461 549 LINE",
"1461 694 LINE",
"-10 694 LINE",
"-10 549 LINE"
);
}
);
width = 1451;
}
);
note = uni2565;
unicode = 2565;
},
{
glyphname = uni2566;
lastChange = "2019-11-18 22:49:30 +0000";
layers = (
{
layerId = "B8E4E6F7-CD69-4587-8CB0-DED49904045E";
paths = (
{
closed = 1;
nodes = (
"618 514 LINE",
"-10 514 LINE",
"-10 369 LINE",
"473 369 LINE",
"473 -621 LINE",
"618 -621 LINE"
);
},
{
closed = 1;
nodes = (
"833 -621 LINE",
"978 -621 LINE",
"978 369 LINE",
"1461 369 LINE",
"1461 514 LINE",
"833 514 LINE"
);
},
{
closed = 1;
nodes = (
"-10 874 LINE",
"-10 729 LINE",
"1461 729 LINE",
"1461 874 LINE"
);
}
);
width = 1451;
}
);
note = uni2566;
unicode = 2566;
},
{
glyphname = uni2567;
lastChange = "2019-11-18 22:49:30 +0000";
layers = (
{
layerId = "B8E4E6F7-CD69-4587-8CB0-DED49904045E";
paths = (
{
closed = 1;
nodes = (
"1461 729 LINE",
"1461 874 LINE",
"798 874 LINE",
"798 1864 LINE",
"653 1864 LINE",
"653 874 LINE",
"-10 874 LINE",
"-10 729 LINE"
);
},
{
closed = 1;
nodes = (
"1461 369 LINE",
"1461 514 LINE",
"-10 514 LINE",
"-10 369 LINE"
);
}
);
width = 1451;
}
);
note = uni2567;
unicode = 2567;
},
{
glyphname = uni2568;
lastChange = "2019-11-18 22:49:30 +0000";
layers = (
{
layerId = "B8E4E6F7-CD69-4587-8CB0-DED49904045E";
paths = (
{
closed = 1;
nodes = (
"1461 549 LINE",
"1461 694 LINE",
"978 694 LINE",
"978 1864 LINE",
"833 1864 LINE",
"833 694 LINE",
"618 694 LINE",
"618 1864 LINE",
"473 1864 LINE",
"473 694 LINE",
"-10 694 LINE",
"-10 549 LINE"
);
}
);
width = 1451;
}
);
note = uni2568;
unicode = 2568;
},
{
glyphname = uni2569;
lastChange = "2019-11-18 22:49:30 +0000";
layers = (
{
layerId = "B8E4E6F7-CD69-4587-8CB0-DED49904045E";
paths = (
{
closed = 1;
nodes = (
"833 729 LINE",
"1461 729 LINE",
"1461 874 LINE",
"978 874 LINE",
"978 1864 LINE",
"833 1864 LINE"
);
},
{
closed = 1;
nodes = (
"473 874 LINE",
"-10 874 LINE",
"-10 729 LINE",
"618 729 LINE",
"618 1864 LINE",
"473 1864 LINE"
);
},
{
closed = 1;
nodes = (
"1461 369 LINE",
"1461 514 LINE",
"-10 514 LINE",
"-10 369 LINE"
);
}
);
width = 1451;
}
);
note = uni2569;
unicode = 2569;
},
{
glyphname = uni256A;
lastChange = "2019-11-18 22:49:30 +0000";
layers = (
{
layerId = "B8E4E6F7-CD69-4587-8CB0-DED49904045E";
paths = (
{
closed = 1;
nodes = (
"653 369 LINE",
"653 -621 LINE",
"798 -621 LINE",
"798 369 LINE",
"1461 369 LINE",
"1461 514 LINE",
"798 514 LINE",
"798 729 LINE",
"1461 729 LINE",
"1461 874 LINE",
"798 874 LINE",
"798 1864 LINE",
"653 1864 LINE",
"653 874 LINE",
"-10 874 LINE",
"-10 729 LINE",
"653 729 LINE",
"653 514 LINE",
"-10 514 LINE",
"-10 369 LINE"
);
}
);
width = 1451;
}
);
note = uni256A;
unicode = 256A;
},
{
glyphname = uni256B;
lastChange = "2019-11-18 22:49:30 +0000";
layers = (
{
layerId = "B8E4E6F7-CD69-4587-8CB0-DED49904045E";
paths = (
{
closed = 1;
nodes = (
"833 694 LINE",
"618 694 LINE",
"618 1864 LINE",
"473 1864 LINE",
"473 694 LINE",
"-10 694 LINE",
"-10 549 LINE",
"473 549 LINE",
"473 -621 LINE",
"618 -621 LINE",
"618 549 LINE",
"833 549 LINE",
"833 -621 LINE",
"978 -621 LINE",
"978 549 LINE",
"1461 549 LINE",
"1461 694 LINE",
"978 694 LINE",
"978 1864 LINE",
"833 1864 LINE"
);
}
);
width = 1451;
}
);
note = uni256B;
unicode = 256B;
},
{
glyphname = uni256C;
lastChange = "2019-11-18 22:49:30 +0000";
layers = (
{
layerId = "B8E4E6F7-CD69-4587-8CB0-DED49904045E";
paths = (
{
closed = 1;
nodes = (
"833 729 LINE",
"1461 729 LINE",
"1461 874 LINE",
"978 874 LINE",
"978 1864 LINE",
"833 1864 LINE"
);
},
{
closed = 1;
nodes = (
"618 514 LINE",
"-10 514 LINE",
"-10 369 LINE",
"473 369 LINE",
"473 -621 LINE",
"618 -621 LINE"
);
},
{
closed = 1;
nodes = (
"833 -621 LINE",
"978 -621 LINE",
"978 369 LINE",
"1461 369 LINE",
"1461 514 LINE",
"833 514 LINE"
);
},
{
closed = 1;
nodes = (
"473 874 LINE",
"-10 874 LINE",
"-10 729 LINE",
"618 729 LINE",
"618 1864 LINE",
"473 1864 LINE"
);
}
);
width = 1451;
}
);
note = uni256C;
unicode = 256C;
},
{
glyphname = upblock;
lastChange = "2019-11-18 22:49:30 +0000";
layers = (
{
layerId = "B8E4E6F7-CD69-4587-8CB0-DED49904045E";
paths = (
{
closed = 1;
nodes = (
"1451 1864 LINE",
"0 1864 LINE",
"0 621 LINE",
"1451 621 LINE"
);
}
);
width = 1451;
}
);
note = upblock;
unicode = 2580;
},
{
glyphname = dnblock;
lastChange = "2019-11-18 22:49:30 +0000";
layers = (
{
layerId = "B8E4E6F7-CD69-4587-8CB0-DED49904045E";
paths = (
{
closed = 1;
nodes = (
"1451 621 LINE",
"0 621 LINE",
"0 -621 LINE",
"1451 -621 LINE"
);
}
);
width = 1451;
}
);
note = dnblock;
unicode = 2584;
},
{
glyphname = block;
lastChange = "2019-11-18 22:49:30 +0000";
layers = (
{
layerId = "B8E4E6F7-CD69-4587-8CB0-DED49904045E";
paths = (
{
closed = 1;
nodes = (
"1451 1864 LINE",
"0 1864 LINE",
"0 -621 LINE",
"1451 -621 LINE"
);
}
);
width = 1451;
}
);
note = block;
unicode = 2588;
},
{
glyphname = lfblock;
lastChange = "2019-11-18 22:49:30 +0000";
layers = (
{
layerId = "B8E4E6F7-CD69-4587-8CB0-DED49904045E";
paths = (
{
closed = 1;
nodes = (
"726 1864 LINE",
"0 1864 LINE",
"0 -621 LINE",
"726 -621 LINE"
);
}
);
width = 1451;
}
);
note = lfblock;
unicode = 258C;
},
{
glyphname = rtblock;
lastChange = "2019-11-18 22:49:30 +0000";
layers = (
{
layerId = "B8E4E6F7-CD69-4587-8CB0-DED49904045E";
paths = (
{
closed = 1;
nodes = (
"1451 1864 LINE",
"725 1864 LINE",
"725 -621 LINE",
"1451 -621 LINE"
);
}
);
width = 1451;
}
);
note = rtblock;
unicode = 2590;
},
{
glyphname = ltshade;
lastChange = "2019-11-18 22:49:30 +0000";
layers = (
{
layerId = "B8E4E6F7-CD69-4587-8CB0-DED49904045E";
paths = (
{
closed = 1;
nodes = (
"103 1216 LINE",
"207 1216 LINE",
"207 1314 LINE",
"103 1314 LINE"
);
},
{
closed = 1;
nodes = (
"517 1216 LINE",
"621 1216 LINE",
"621 1314 LINE",
"517 1314 LINE"
);
},
{
closed = 1;
nodes = (
"933 1216 LINE",
"1036 1216 LINE",
"1036 1314 LINE",
"933 1314 LINE"
);
},
{
closed = 1;
nodes = (
"310 1023 LINE",
"414 1023 LINE",
"414 1119 LINE",
"310 1119 LINE"
);
},
{
closed = 1;
nodes = (
"725 1023 LINE",
"829 1023 LINE",
"829 1119 LINE",
"725 1119 LINE"
);
},
{
closed = 1;
nodes = (
"1140 1023 LINE",
"1244 1023 LINE",
"1244 1119 LINE",
"1140 1119 LINE"
);
},
{
closed = 1;
nodes = (
"933 831 LINE",
"1036 831 LINE",
"1036 927 LINE",
"933 927 LINE"
);
},
{
closed = 1;
nodes = (
"517 831 LINE",
"621 831 LINE",
"621 927 LINE",
"517 927 LINE"
);
},
{
closed = 1;
nodes = (
"103 831 LINE",
"207 831 LINE",
"207 927 LINE",
"103 927 LINE"
);
},
{
closed = 1;
nodes = (
"1140 636 LINE",
"1244 636 LINE",
"1244 732 LINE",
"1140 732 LINE"
);
},
{
closed = 1;
nodes = (
"725 636 LINE",
"829 636 LINE",
"829 732 LINE",
"725 732 LINE"
);
},
{
closed = 1;
nodes = (
"310 636 LINE",
"414 636 LINE",
"414 732 LINE",
"310 732 LINE"
);
},
{
closed = 1;
nodes = (
"103 444 LINE",
"207 444 LINE",
"207 540 LINE",
"103 540 LINE"
);
},
{
closed = 1;
nodes = (
"517 444 LINE",
"621 444 LINE",
"621 540 LINE",
"517 540 LINE"
);
},
{
closed = 1;
nodes = (
"933 444 LINE",
"1036 444 LINE",
"1036 540 LINE",
"933 540 LINE"
);
},
{
closed = 1;
nodes = (
"1140 249 LINE",
"1244 249 LINE",
"1244 345 LINE",
"1140 345 LINE"
);
},
{
closed = 1;
nodes = (
"725 249 LINE",
"829 249 LINE",
"829 345 LINE",
"725 345 LINE"
);
},
{
closed = 1;
nodes = (
"310 249 LINE",
"414 249 LINE",
"414 345 LINE",
"310 345 LINE"
);
},
{
closed = 1;
nodes = (
"103 56 LINE",
"207 56 LINE",
"207 153 LINE",
"103 153 LINE"
);
},
{
closed = 1;
nodes = (
"517 56 LINE",
"621 56 LINE",
"621 153 LINE",
"517 153 LINE"
);
},
{
closed = 1;
nodes = (
"933 56 LINE",
"1036 56 LINE",
"1036 153 LINE",
"933 153 LINE"
);
},
{
closed = 1;
nodes = (
"310 -136 LINE",
"414 -136 LINE",
"414 -42 LINE",
"310 -42 LINE"
);
},
{
closed = 1;
nodes = (
"725 -136 LINE",
"829 -136 LINE",
"829 -42 LINE",
"725 -42 LINE"
);
},
{
closed = 1;
nodes = (
"1140 -136 LINE",
"1244 -136 LINE",
"1244 -42 LINE",
"1140 -42 LINE"
);
},
{
closed = 1;
nodes = (
"933 -331 LINE",
"1036 -331 LINE",
"1036 -234 LINE",
"933 -234 LINE"
);
},
{
closed = 1;
nodes = (
"517 -331 LINE",
"621 -331 LINE",
"621 -234 LINE",
"517 -234 LINE"
);
},
{
closed = 1;
nodes = (
"103 -331 LINE",
"207 -331 LINE",
"207 -234 LINE",
"103 -234 LINE"
);
},
{
closed = 1;
nodes = (
"310 -523 LINE",
"414 -523 LINE",
"414 -427 LINE",
"310 -427 LINE"
);
},
{
closed = 1;
nodes = (
"725 -523 LINE",
"829 -523 LINE",
"829 -427 LINE",
"725 -427 LINE"
);
},
{
closed = 1;
nodes = (
"1140 -523 LINE",
"1244 -523 LINE",
"1244 -427 LINE",
"1140 -427 LINE"
);
},
{
closed = 1;
nodes = (
"310 1408 LINE",
"414 1408 LINE",
"414 1506 LINE",
"310 1506 LINE"
);
},
{
closed = 1;
nodes = (
"725 1408 LINE",
"829 1408 LINE",
"829 1506 LINE",
"725 1506 LINE"
);
},
{
closed = 1;
nodes = (
"1140 1408 LINE",
"1244 1408 LINE",
"1244 1506 LINE",
"1140 1506 LINE"
);
},
{
closed = 1;
nodes = (
"103 1603 LINE",
"207 1603 LINE",
"207 1699 LINE",
"103 1699 LINE"
);
},
{
closed = 1;
nodes = (
"517 1603 LINE",
"621 1603 LINE",
"621 1699 LINE",
"517 1699 LINE"
);
},
{
closed = 1;
nodes = (
"933 1603 LINE",
"1036 1603 LINE",
"1036 1699 LINE",
"933 1699 LINE"
);
},
{
closed = 1;
nodes = (
"1347 1216 LINE",
"1451 1216 LINE",
"1451 1314 LINE",
"1347 1314 LINE"
);
},
{
closed = 1;
nodes = (
"1347 831 LINE",
"1451 831 LINE",
"1451 927 LINE",
"1347 927 LINE"
);
},
{
closed = 1;
nodes = (
"1347 444 LINE",
"1451 444 LINE",
"1451 540 LINE",
"1347 540 LINE"
);
},
{
closed = 1;
nodes = (
"1347 56 LINE",
"1451 56 LINE",
"1451 153 LINE",
"1347 153 LINE"
);
},
{
closed = 1;
nodes = (
"1347 -331 LINE",
"1451 -331 LINE",
"1451 -234 LINE",
"1347 -234 LINE"
);
},
{
closed = 1;
nodes = (
"1347 1603 LINE",
"1451 1603 LINE",
"1451 1699 LINE",
"1347 1699 LINE"
);
}
);
width = 1451;
}
);
note = ltshade;
unicode = 2591;
},
{
glyphname = shade;
lastChange = "2019-11-18 22:49:30 +0000";
layers = (
{
layerId = "B8E4E6F7-CD69-4587-8CB0-DED49904045E";
paths = (
{
closed = 1;
nodes = (
"103 1216 LINE",
"207 1216 LINE",
"207 1314 LINE",
"103 1314 LINE"
);
},
{
closed = 1;
nodes = (
"310 1216 LINE",
"414 1216 LINE",
"414 1314 LINE",
"310 1314 LINE"
);
},
{
closed = 1;
nodes = (
"517 1216 LINE",
"621 1216 LINE",
"621 1314 LINE",
"517 1314 LINE"
);
},
{
closed = 1;
nodes = (
"725 1216 LINE",
"829 1216 LINE",
"829 1314 LINE",
"725 1314 LINE"
);
},
{
closed = 1;
nodes = (
"933 1216 LINE",
"1037 1216 LINE",
"1037 1314 LINE",
"933 1314 LINE"
);
},
{
closed = 1;
nodes = (
"1140 1216 LINE",
"1244 1216 LINE",
"1244 1314 LINE",
"1140 1314 LINE"
);
},
{
closed = 1;
nodes = (
"0 1023 LINE",
"103 1023 LINE",
"103 1119 LINE",
"0 1119 LINE"
);
},
{
closed = 1;
nodes = (
"207 1023 LINE",
"310 1023 LINE",
"310 1119 LINE",
"207 1119 LINE"
);
},
{
closed = 1;
nodes = (
"414 1023 LINE",
"517 1023 LINE",
"517 1119 LINE",
"414 1119 LINE"
);
},
{
closed = 1;
nodes = (
"621 1023 LINE",
"725 1023 LINE",
"725 1119 LINE",
"621 1119 LINE"
);
},
{
closed = 1;
nodes = (
"829 1023 LINE",
"933 1023 LINE",
"933 1119 LINE",
"829 1119 LINE"
);
},
{
closed = 1;
nodes = (
"1037 1023 LINE",
"1140 1023 LINE",
"1140 1119 LINE",
"1037 1119 LINE"
);
},
{
closed = 1;
nodes = (
"103 831 LINE",
"207 831 LINE",
"207 927 LINE",
"103 927 LINE"
);
},
{
closed = 1;
nodes = (
"310 831 LINE",
"414 831 LINE",
"414 927 LINE",
"310 927 LINE"
);
},
{
closed = 1;
nodes = (
"517 831 LINE",
"621 831 LINE",
"621 927 LINE",
"517 927 LINE"
);
},
{
closed = 1;
nodes = (
"725 831 LINE",
"829 831 LINE",
"829 927 LINE",
"725 927 LINE"
);
},
{
closed = 1;
nodes = (
"933 831 LINE",
"1037 831 LINE",
"1037 927 LINE",
"933 927 LINE"
);
},
{
closed = 1;
nodes = (
"1140 831 LINE",
"1244 831 LINE",
"1244 927 LINE",
"1140 927 LINE"
);
},
{
closed = 1;
nodes = (
"0 636 LINE",
"103 636 LINE",
"103 732 LINE",
"0 732 LINE"
);
},
{
closed = 1;
nodes = (
"207 636 LINE",
"310 636 LINE",
"310 732 LINE",
"207 732 LINE"
);
},
{
closed = 1;
nodes = (
"414 636 LINE",
"517 636 LINE",
"517 732 LINE",
"414 732 LINE"
);
},
{
closed = 1;
nodes = (
"621 636 LINE",
"725 636 LINE",
"725 732 LINE",
"621 732 LINE"
);
},
{
closed = 1;
nodes = (
"829 636 LINE",
"933 636 LINE",
"933 732 LINE",
"829 732 LINE"
);
},
{
closed = 1;
nodes = (
"1037 636 LINE",
"1140 636 LINE",
"1140 732 LINE",
"1037 732 LINE"
);
},
{
closed = 1;
nodes = (
"103 444 LINE",
"207 444 LINE",
"207 540 LINE",
"103 540 LINE"
);
},
{
closed = 1;
nodes = (
"310 444 LINE",
"414 444 LINE",
"414 540 LINE",
"310 540 LINE"
);
},
{
closed = 1;
nodes = (
"517 444 LINE",
"621 444 LINE",
"621 540 LINE",
"517 540 LINE"
);
},
{
closed = 1;
nodes = (
"725 444 LINE",
"829 444 LINE",
"829 540 LINE",
"725 540 LINE"
);
},
{
closed = 1;
nodes = (
"933 444 LINE",
"1037 444 LINE",
"1037 540 LINE",
"933 540 LINE"
);
},
{
closed = 1;
nodes = (
"1140 444 LINE",
"1244 444 LINE",
"1244 540 LINE",
"1140 540 LINE"
);
},
{
closed = 1;
nodes = (
"0 249 LINE",
"103 249 LINE",
"103 345 LINE",
"0 345 LINE"
);
},
{
closed = 1;
nodes = (
"414 249 LINE",
"517 249 LINE",
"517 345 LINE",
"414 345 LINE"
);
},
{
closed = 1;
nodes = (
"621 249 LINE",
"725 249 LINE",
"725 345 LINE",
"621 345 LINE"
);
},
{
closed = 1;
nodes = (
"829 249 LINE",
"933 249 LINE",
"933 345 LINE",
"829 345 LINE"
);
},
{
closed = 1;
nodes = (
"1037 249 LINE",
"1140 249 LINE",
"1140 345 LINE",
"1037 345 LINE"
);
},
{
closed = 1;
nodes = (
"207 249 LINE",
"310 249 LINE",
"310 345 LINE",
"207 345 LINE"
);
},
{
closed = 1;
nodes = (
"1140 56 LINE",
"1244 56 LINE",
"1244 153 LINE",
"1140 153 LINE"
);
},
{
closed = 1;
nodes = (
"933 56 LINE",
"1037 56 LINE",
"1037 153 LINE",
"933 153 LINE"
);
},
{
closed = 1;
nodes = (
"725 56 LINE",
"829 56 LINE",
"829 153 LINE",
"725 153 LINE"
);
},
{
closed = 1;
nodes = (
"517 56 LINE",
"621 56 LINE",
"621 153 LINE",
"517 153 LINE"
);
},
{
closed = 1;
nodes = (
"310 56 LINE",
"414 56 LINE",
"414 153 LINE",
"310 153 LINE"
);
},
{
closed = 1;
nodes = (
"103 56 LINE",
"207 56 LINE",
"207 153 LINE",
"103 153 LINE"
);
},
{
closed = 1;
nodes = (
"0 -136 LINE",
"103 -136 LINE",
"103 -42 LINE",
"0 -42 LINE"
);
},
{
closed = 1;
nodes = (
"207 -136 LINE",
"310 -136 LINE",
"310 -42 LINE",
"207 -42 LINE"
);
},
{
closed = 1;
nodes = (
"414 -136 LINE",
"517 -136 LINE",
"517 -42 LINE",
"414 -42 LINE"
);
},
{
closed = 1;
nodes = (
"621 -136 LINE",
"725 -136 LINE",
"725 -42 LINE",
"621 -42 LINE"
);
},
{
closed = 1;
nodes = (
"829 -136 LINE",
"933 -136 LINE",
"933 -42 LINE",
"829 -42 LINE"
);
},
{
closed = 1;
nodes = (
"1037 -136 LINE",
"1140 -136 LINE",
"1140 -42 LINE",
"1037 -42 LINE"
);
},
{
closed = 1;
nodes = (
"1140 -331 LINE",
"1244 -331 LINE",
"1244 -234 LINE",
"1140 -234 LINE"
);
},
{
closed = 1;
nodes = (
"933 -331 LINE",
"1037 -331 LINE",
"1037 -234 LINE",
"933 -234 LINE"
);
},
{
closed = 1;
nodes = (
"725 -331 LINE",
"829 -331 LINE",
"829 -234 LINE",
"725 -234 LINE"
);
},
{
closed = 1;
nodes = (
"517 -331 LINE",
"621 -331 LINE",
"621 -234 LINE",
"517 -234 LINE"
);
},
{
closed = 1;
nodes = (
"310 -331 LINE",
"414 -331 LINE",
"414 -234 LINE",
"310 -234 LINE"
);
},
{
closed = 1;
nodes = (
"103 -331 LINE",
"207 -331 LINE",
"207 -234 LINE",
"103 -234 LINE"
);
},
{
closed = 1;
nodes = (
"0 -523 LINE",
"103 -523 LINE",
"103 -427 LINE",
"0 -427 LINE"
);
},
{
closed = 1;
nodes = (
"207 -523 LINE",
"310 -523 LINE",
"310 -427 LINE",
"207 -427 LINE"
);
},
{
closed = 1;
nodes = (
"414 -523 LINE",
"517 -523 LINE",
"517 -427 LINE",
"414 -427 LINE"
);
},
{
closed = 1;
nodes = (
"621 -523 LINE",
"725 -523 LINE",
"725 -427 LINE",
"621 -427 LINE"
);
},
{
closed = 1;
nodes = (
"829 -523 LINE",
"933 -523 LINE",
"933 -427 LINE",
"829 -427 LINE"
);
},
{
closed = 1;
nodes = (
"1037 -523 LINE",
"1140 -523 LINE",
"1140 -427 LINE",
"1037 -427 LINE"
);
},
{
closed = 1;
nodes = (
"0 1408 LINE",
"103 1408 LINE",
"103 1506 LINE",
"0 1506 LINE"
);
},
{
closed = 1;
nodes = (
"207 1408 LINE",
"310 1408 LINE",
"310 1506 LINE",
"207 1506 LINE"
);
},
{
closed = 1;
nodes = (
"414 1408 LINE",
"517 1408 LINE",
"517 1506 LINE",
"414 1506 LINE"
);
},
{
closed = 1;
nodes = (
"621 1408 LINE",
"725 1408 LINE",
"725 1506 LINE",
"621 1506 LINE"
);
},
{
closed = 1;
nodes = (
"829 1408 LINE",
"933 1408 LINE",
"933 1506 LINE",
"829 1506 LINE"
);
},
{
closed = 1;
nodes = (
"1037 1408 LINE",
"1140 1408 LINE",
"1140 1506 LINE",
"1037 1506 LINE"
);
},
{
closed = 1;
nodes = (
"103 1603 LINE",
"207 1603 LINE",
"207 1699 LINE",
"103 1699 LINE"
);
},
{
closed = 1;
nodes = (
"310 1603 LINE",
"414 1603 LINE",
"414 1699 LINE",
"310 1699 LINE"
);
},
{
closed = 1;
nodes = (
"517 1603 LINE",
"621 1603 LINE",
"621 1699 LINE",
"517 1699 LINE"
);
},
{
closed = 1;
nodes = (
"725 1603 LINE",
"829 1603 LINE",
"829 1699 LINE",
"725 1699 LINE"
);
},
{
closed = 1;
nodes = (
"933 1603 LINE",
"1037 1603 LINE",
"1037 1699 LINE",
"933 1699 LINE"
);
},
{
closed = 1;
nodes = (
"1140 1603 LINE",
"1244 1603 LINE",
"1244 1699 LINE",
"1140 1699 LINE"
);
},
{
closed = 1;
nodes = (
"1347 1216 LINE",
"1451 1216 LINE",
"1451 1314 LINE",
"1347 1314 LINE"
);
},
{
closed = 1;
nodes = (
"1244 1023 LINE",
"1347 1023 LINE",
"1347 1119 LINE",
"1244 1119 LINE"
);
},
{
closed = 1;
nodes = (
"1347 831 LINE",
"1451 831 LINE",
"1451 927 LINE",
"1347 927 LINE"
);
},
{
closed = 1;
nodes = (
"1244 636 LINE",
"1347 636 LINE",
"1347 732 LINE",
"1244 732 LINE"
);
},
{
closed = 1;
nodes = (
"1347 444 LINE",
"1451 444 LINE",
"1451 540 LINE",
"1347 540 LINE"
);
},
{
closed = 1;
nodes = (
"1244 249 LINE",
"1347 249 LINE",
"1347 345 LINE",
"1244 345 LINE"
);
},
{
closed = 1;
nodes = (
"1347 56 LINE",
"1451 56 LINE",
"1451 153 LINE",
"1347 153 LINE"
);
},
{
closed = 1;
nodes = (
"1244 -136 LINE",
"1347 -136 LINE",
"1347 -42 LINE",
"1244 -42 LINE"
);
},
{
closed = 1;
nodes = (
"1347 -331 LINE",
"1451 -331 LINE",
"1451 -234 LINE",
"1347 -234 LINE"
);
},
{
closed = 1;
nodes = (
"1244 -523 LINE",
"1347 -523 LINE",
"1347 -427 LINE",
"1244 -427 LINE"
);
},
{
closed = 1;
nodes = (
"1244 1408 LINE",
"1347 1408 LINE",
"1347 1506 LINE",
"1244 1506 LINE"
);
},
{
closed = 1;
nodes = (
"1347 1603 LINE",
"1451 1603 LINE",
"1451 1699 LINE",
"1347 1699 LINE"
);
}
);
width = 1451;
}
);
note = shade;
unicode = 2592;
},
{
glyphname = dkshade;
lastChange = "2019-11-18 22:49:30 +0000";
layers = (
{
layerId = "B8E4E6F7-CD69-4587-8CB0-DED49904045E";
paths = (
{
closed = 1;
nodes = (
"1493 -523 LINE",
"1386 -523 LINE",
"1386 -427 LINE",
"1493 -427 LINE",
"1493 -136 LINE",
"1386 -136 LINE",
"1386 -42 LINE",
"1493 -42 LINE",
"1493 249 LINE",
"1386 249 LINE",
"1386 345 LINE",
"1493 345 LINE",
"1493 636 LINE",
"1386 636 LINE",
"1386 732 LINE",
"1493 732 LINE",
"1493 1023 LINE",
"1386 1023 LINE",
"1386 1119 LINE",
"1493 1119 LINE",
"1493 1408 LINE",
"1386 1408 LINE",
"1386 1506 LINE",
"1493 1506 LINE",
"1493 1699 LINE",
"1386 1699 LINE",
"1386 1603 LINE",
"1280 1603 LINE",
"1280 1699 LINE",
"1173 1699 LINE",
"1173 1603 LINE",
"1067 1603 LINE",
"1067 1699 LINE",
"960 1699 LINE",
"960 1603 LINE",
"853 1603 LINE",
"853 1699 LINE",
"746 1699 LINE",
"746 1603 LINE",
"639 1603 LINE",
"639 1699 LINE",
"532 1699 LINE",
"532 1603 LINE",
"426 1603 LINE",
"426 1699 LINE",
"319 1699 LINE",
"319 1603 LINE",
"213 1603 LINE",
"213 1699 LINE",
"106 1699 LINE",
"106 1603 LINE",
"0 1603 LINE",
"0 1314 LINE",
"106 1314 LINE",
"106 1216 LINE",
"0 1216 LINE",
"0 927 LINE",
"106 927 LINE",
"106 829 LINE",
"0 829 LINE",
"0 540 LINE",
"106 540 LINE",
"106 444 LINE",
"0 444 LINE",
"0 153 LINE",
"106 153 LINE",
"106 56 LINE",
"0 56 LINE",
"0 -234 LINE",
"106 -234 LINE",
"106 -331 LINE",
"0 -331 LINE",
"0 -621 LINE",
"1493 -621 LINE"
);
},
{
closed = 1;
nodes = (
"213 1119 LINE",
"213 1023 LINE",
"106 1023 LINE",
"106 1119 LINE"
);
},
{
closed = 1;
nodes = (
"426 1119 LINE",
"426 1023 LINE",
"319 1023 LINE",
"319 1119 LINE"
);
},
{
closed = 1;
nodes = (
"639 1119 LINE",
"639 1023 LINE",
"532 1023 LINE",
"532 1119 LINE"
);
},
{
closed = 1;
nodes = (
"853 1119 LINE",
"853 1023 LINE",
"746 1023 LINE",
"746 1119 LINE"
);
},
{
closed = 1;
nodes = (
"960 829 LINE",
"853 829 LINE",
"853 927 LINE",
"960 927 LINE"
);
},
{
closed = 1;
nodes = (
"746 829 LINE",
"639 829 LINE",
"639 927 LINE",
"746 927 LINE"
);
},
{
closed = 1;
nodes = (
"532 829 LINE",
"426 829 LINE",
"426 927 LINE",
"532 927 LINE"
);
},
{
closed = 1;
nodes = (
"319 829 LINE",
"213 829 LINE",
"213 927 LINE",
"319 927 LINE"
);
},
{
closed = 1;
nodes = (
"213 732 LINE",
"213 636 LINE",
"106 636 LINE",
"106 732 LINE"
);
},
{
closed = 1;
nodes = (
"426 732 LINE",
"426 636 LINE",
"319 636 LINE",
"319 732 LINE"
);
},
{
closed = 1;
nodes = (
"639 732 LINE",
"639 636 LINE",
"532 636 LINE",
"532 732 LINE"
);
},
{
closed = 1;
nodes = (
"853 732 LINE",
"853 636 LINE",
"746 636 LINE",
"746 732 LINE"
);
},
{
closed = 1;
nodes = (
"319 444 LINE",
"213 444 LINE",
"213 540 LINE",
"319 540 LINE"
);
},
{
closed = 1;
nodes = (
"532 540 LINE",
"532 444 LINE",
"426 444 LINE",
"426 540 LINE"
);
},
{
closed = 1;
nodes = (
"746 540 LINE",
"746 444 LINE",
"639 444 LINE",
"639 540 LINE"
);
},
{
closed = 1;
nodes = (
"960 540 LINE",
"960 444 LINE",
"853 444 LINE",
"853 540 LINE"
);
},
{
closed = 1;
nodes = (
"213 345 LINE",
"213 249 LINE",
"106 249 LINE",
"106 345 LINE"
);
},
{
closed = 1;
nodes = (
"639 345 LINE",
"639 249 LINE",
"532 249 LINE",
"532 345 LINE"
);
},
{
closed = 1;
nodes = (
"319 249 LINE",
"319 345 LINE",
"426 345 LINE",
"426 249 LINE"
);
},
{
closed = 1;
nodes = (
"853 345 LINE",
"853 249 LINE",
"746 249 LINE",
"746 345 LINE"
);
},
{
closed = 1;
nodes = (
"853 56 LINE",
"853 153 LINE",
"960 153 LINE",
"960 56 LINE"
);
},
{
closed = 1;
nodes = (
"639 56 LINE",
"639 153 LINE",
"746 153 LINE",
"746 56 LINE"
);
},
{
closed = 1;
nodes = (
"426 56 LINE",
"426 153 LINE",
"532 153 LINE",
"532 56 LINE"
);
},
{
closed = 1;
nodes = (
"213 56 LINE",
"213 153 LINE",
"319 153 LINE",
"319 56 LINE"
);
},
{
closed = 1;
nodes = (
"213 -42 LINE",
"213 -136 LINE",
"106 -136 LINE",
"106 -42 LINE"
);
},
{
closed = 1;
nodes = (
"426 -42 LINE",
"426 -136 LINE",
"319 -136 LINE",
"319 -42 LINE"
);
},
{
closed = 1;
nodes = (
"639 -42 LINE",
"639 -136 LINE",
"532 -136 LINE",
"532 -42 LINE"
);
},
{
closed = 1;
nodes = (
"853 -42 LINE",
"853 -136 LINE",
"746 -136 LINE",
"746 -42 LINE"
);
},
{
closed = 1;
nodes = (
"853 -331 LINE",
"853 -234 LINE",
"960 -234 LINE",
"960 -331 LINE"
);
},
{
closed = 1;
nodes = (
"639 -331 LINE",
"639 -234 LINE",
"746 -234 LINE",
"746 -331 LINE"
);
},
{
closed = 1;
nodes = (
"426 -331 LINE",
"426 -234 LINE",
"532 -234 LINE",
"532 -331 LINE"
);
},
{
closed = 1;
nodes = (
"213 -331 LINE",
"213 -234 LINE",
"319 -234 LINE",
"319 -331 LINE"
);
},
{
closed = 1;
nodes = (
"213 -427 LINE",
"213 -523 LINE",
"106 -523 LINE",
"106 -427 LINE"
);
},
{
closed = 1;
nodes = (
"426 -427 LINE",
"426 -523 LINE",
"319 -523 LINE",
"319 -427 LINE"
);
},
{
closed = 1;
nodes = (
"639 -427 LINE",
"639 -523 LINE",
"532 -523 LINE",
"532 -427 LINE"
);
},
{
closed = 1;
nodes = (
"853 -427 LINE",
"853 -523 LINE",
"746 -523 LINE",
"746 -427 LINE"
);
},
{
closed = 1;
nodes = (
"960 1216 LINE",
"853 1216 LINE",
"853 1314 LINE",
"960 1314 LINE"
);
},
{
closed = 1;
nodes = (
"746 1216 LINE",
"639 1216 LINE",
"639 1314 LINE",
"746 1314 LINE"
);
},
{
closed = 1;
nodes = (
"532 1216 LINE",
"426 1216 LINE",
"426 1314 LINE",
"532 1314 LINE"
);
},
{
closed = 1;
nodes = (
"319 1216 LINE",
"213 1216 LINE",
"213 1314 LINE",
"319 1314 LINE"
);
},
{
closed = 1;
nodes = (
"853 1408 LINE",
"746 1408 LINE",
"746 1506 LINE",
"853 1506 LINE"
);
},
{
closed = 1;
nodes = (
"639 1408 LINE",
"532 1408 LINE",
"532 1506 LINE",
"639 1506 LINE"
);
},
{
closed = 1;
nodes = (
"426 1408 LINE",
"319 1408 LINE",
"319 1506 LINE",
"426 1506 LINE"
);
},
{
closed = 1;
nodes = (
"213 1408 LINE",
"106 1408 LINE",
"106 1506 LINE",
"213 1506 LINE"
);
},
{
closed = 1;
nodes = (
"1067 1119 LINE",
"1067 1023 LINE",
"960 1023 LINE",
"960 1119 LINE"
);
},
{
closed = 1;
nodes = (
"1280 1119 LINE",
"1280 1023 LINE",
"1173 1023 LINE",
"1173 1119 LINE"
);
},
{
closed = 1;
nodes = (
"1386 829 LINE",
"1280 829 LINE",
"1280 927 LINE",
"1386 927 LINE"
);
},
{
closed = 1;
nodes = (
"1173 829 LINE",
"1067 829 LINE",
"1067 927 LINE",
"1173 927 LINE"
);
},
{
closed = 1;
nodes = (
"1067 732 LINE",
"1067 636 LINE",
"960 636 LINE",
"960 732 LINE"
);
},
{
closed = 1;
nodes = (
"1280 732 LINE",
"1280 636 LINE",
"1173 636 LINE",
"1173 732 LINE"
);
},
{
closed = 1;
nodes = (
"1173 444 LINE",
"1067 444 LINE",
"1067 540 LINE",
"1173 540 LINE"
);
},
{
closed = 1;
nodes = (
"1386 540 LINE",
"1386 444 LINE",
"1280 444 LINE",
"1280 540 LINE"
);
},
{
closed = 1;
nodes = (
"1067 345 LINE",
"1067 249 LINE",
"960 249 LINE",
"960 345 LINE"
);
},
{
closed = 1;
nodes = (
"1173 249 LINE",
"1173 345 LINE",
"1280 345 LINE",
"1280 249 LINE"
);
},
{
closed = 1;
nodes = (
"1280 56 LINE",
"1280 153 LINE",
"1386 153 LINE",
"1386 56 LINE"
);
},
{
closed = 1;
nodes = (
"1067 56 LINE",
"1067 153 LINE",
"1173 153 LINE",
"1173 56 LINE"
);
},
{
closed = 1;
nodes = (
"1067 -42 LINE",
"1067 -136 LINE",
"960 -136 LINE",
"960 -42 LINE"
);
},
{
closed = 1;
nodes = (
"1280 -42 LINE",
"1280 -136 LINE",
"1173 -136 LINE",
"1173 -42 LINE"
);
},
{
closed = 1;
nodes = (
"1280 -331 LINE",
"1280 -234 LINE",
"1386 -234 LINE",
"1386 -331 LINE"
);
},
{
closed = 1;
nodes = (
"1067 -331 LINE",
"1067 -234 LINE",
"1173 -234 LINE",
"1173 -331 LINE"
);
},
{
closed = 1;
nodes = (
"1067 -427 LINE",
"1067 -523 LINE",
"960 -523 LINE",
"960 -427 LINE"
);
},
{
closed = 1;
nodes = (
"1280 -427 LINE",
"1280 -523 LINE",
"1173 -523 LINE",
"1173 -427 LINE"
);
},
{
closed = 1;
nodes = (
"1386 1216 LINE",
"1280 1216 LINE",
"1280 1314 LINE",
"1386 1314 LINE"
);
},
{
closed = 1;
nodes = (
"1173 1216 LINE",
"1067 1216 LINE",
"1067 1314 LINE",
"1173 1314 LINE"
);
},
{
closed = 1;
nodes = (
"1280 1408 LINE",
"1173 1408 LINE",
"1173 1506 LINE",
"1280 1506 LINE"
);
},
{
closed = 1;
nodes = (
"1067 1408 LINE",
"960 1408 LINE",
"960 1506 LINE",
"1067 1506 LINE"
);
}
);
width = 1493;
}
);
note = dkshade;
unicode = 2593;
},
{
glyphname = filledbox;
lastChange = "2019-11-18 22:49:30 +0000";
layers = (
{
layerId = "B8E4E6F7-CD69-4587-8CB0-DED49904045E";
paths = (
{
closed = 1;
nodes = (
"123 117 LINE",
"1114 117 LINE",
"1114 1108 LINE",
"123 1108 LINE"
);
}
);
width = 1237;
}
);
note = filledbox;
unicode = 25A0;
},
{
glyphname = filledrect;
lastChange = "2019-11-18 22:49:30 +0000";
layers = (
{
layerId = "B8E4E6F7-CD69-4587-8CB0-DED49904045E";
paths = (
{
closed = 1;
nodes = (
"0 0 LINE",
"2048 0 LINE",
"2048 616 LINE",
"0 616 LINE"
);
}
);
width = 2048;
}
);
note = filledrect;
unicode = 25AC;
},
{
glyphname = triagup;
lastChange = "2019-11-18 22:49:30 +0000";
layers = (
{
layerId = "B8E4E6F7-CD69-4587-8CB0-DED49904045E";
paths = (
{
closed = 1;
nodes = (
"1612 0 LINE",
"1014 1198 LINE",
"414 0 LINE"
);
}
);
width = 2027;
}
);
note = triagup;
unicode = 25B2;
},
{
glyphname = triagrt;
lastChange = "2019-11-18 22:49:30 +0000";
layers = (
{
layerId = "B8E4E6F7-CD69-4587-8CB0-DED49904045E";
paths = (
{
closed = 1;
nodes = (
"401 -27 LINE",
"1626 586 LINE",
"401 1196 LINE"
);
}
);
width = 2027;
}
);
note = triagrt;
unicode = 25BA;
},
{
glyphname = triagdn;
lastChange = "2019-11-18 22:49:30 +0000";
layers = (
{
layerId = "B8E4E6F7-CD69-4587-8CB0-DED49904045E";
paths = (
{
closed = 1;
nodes = (
"414 1171 LINE",
"1014 -27 LINE",
"1612 1171 LINE"
);
}
);
width = 2027;
}
);
note = triagdn;
unicode = 25BC;
},
{
glyphname = triaglf;
lastChange = "2019-11-18 22:49:30 +0000";
layers = (
{
layerId = "B8E4E6F7-CD69-4587-8CB0-DED49904045E";
paths = (
{
closed = 1;
nodes = (
"401 586 LINE",
"1626 -27 LINE",
"1626 1196 LINE"
);
}
);
width = 2027;
}
);
note = triaglf;
unicode = 25C4;
},
{
glyphname = circle;
lastChange = "2019-11-18 22:49:30 +0000";
layers = (
{
layerId = "B8E4E6F7-CD69-4587-8CB0-DED49904045E";
paths = (
{
closed = 1;
nodes = (
"167 490 OFFCURVE",
"287 282 OFFCURVE",
"495 162 OFFCURVE",
"617 162 QCURVE SMOOTH",
"740 162 OFFCURVE",
"949 282 OFFCURVE",
"1070 491 OFFCURVE",
"1070 612 QCURVE SMOOTH",
"1070 733 OFFCURVE",
"949 944 OFFCURVE",
"739 1065 OFFCURVE",
"617 1065 QCURVE SMOOTH",
"496 1065 OFFCURVE",
"287 944 OFFCURVE",
"167 734 OFFCURVE",
"167 612 QCURVE SMOOTH"
);
},
{
closed = 1;
nodes = (
"253 712 OFFCURVE",
"351 881 OFFCURVE",
"520 979 OFFCURVE",
"617 979 QCURVE SMOOTH",
"715 979 OFFCURVE",
"886 881 OFFCURVE",
"984 710 OFFCURVE",
"984 612 QCURVE SMOOTH",
"984 514 OFFCURVE",
"884 344 OFFCURVE",
"715 248 OFFCURVE",
"617 248 QCURVE SMOOTH",
"518 248 OFFCURVE",
"351 345 OFFCURVE",
"253 514 OFFCURVE",
"253 612 QCURVE SMOOTH"
);
}
);
width = 1237;
}
);
note = circle;
unicode = 25CB;
},
{
glyphname = invbullet;
lastChange = "2019-11-18 22:49:30 +0000";
layers = (
{
layerId = "B8E4E6F7-CD69-4587-8CB0-DED49904045E";
paths = (
{
closed = 1;
nodes = (
"1196 0 LINE",
"1196 1155 LINE",
"41 1155 LINE",
"41 0 LINE"
);
},
{
closed = 1;
nodes = (
"176 695 OFFCURVE",
"293 899 OFFCURVE",
"498 1018 OFFCURVE",
"616 1018 QCURVE SMOOTH",
"735 1018 OFFCURVE",
"939 900 OFFCURVE",
"1057 695 OFFCURVE",
"1057 577 QCURVE SMOOTH",
"1057 460 OFFCURVE",
"939 255 OFFCURVE",
"734 137 OFFCURVE",
"616 137 QCURVE SMOOTH",
"497 137 OFFCURVE",
"294 255 OFFCURVE",
"176 459 OFFCURVE",
"176 577 QCURVE SMOOTH"
);
}
);
width = 1237;
}
);
note = invbullet;
unicode = 25D8;
},
{
glyphname = invcircle;
lastChange = "2019-11-18 22:49:30 +0000";
layers = (
{
layerId = "B8E4E6F7-CD69-4587-8CB0-DED49904045E";
paths = (
{
closed = 1;
nodes = (
"1196 0 LINE",
"1196 1155 LINE",
"41 1155 LINE",
"41 0 LINE"
);
},
{
closed = 1;
nodes = (
"253 480 OFFCURVE",
"351 310 OFFCURVE",
"521 212 OFFCURVE",
"618 212 QCURVE SMOOTH",
"715 212 OFFCURVE",
"885 310 OFFCURVE",
"983 480 OFFCURVE",
"983 577 QCURVE SMOOTH",
"983 674 OFFCURVE",
"885 844 OFFCURVE",
"715 942 OFFCURVE",
"618 942 QCURVE SMOOTH",
"521 942 OFFCURVE",
"351 844 OFFCURVE",
"253 674 OFFCURVE",
"253 577 QCURVE SMOOTH"
);
},
{
closed = 1;
nodes = (
"176 695 OFFCURVE",
"293 899 OFFCURVE",
"498 1018 OFFCURVE",
"616 1018 QCURVE SMOOTH",
"735 1018 OFFCURVE",
"939 900 OFFCURVE",
"1057 695 OFFCURVE",
"1057 577 QCURVE SMOOTH",
"1057 460 OFFCURVE",
"939 255 OFFCURVE",
"734 137 OFFCURVE",
"616 137 QCURVE SMOOTH",
"497 137 OFFCURVE",
"294 255 OFFCURVE",
"176 459 OFFCURVE",
"176 577 QCURVE SMOOTH"
);
}
);
width = 1237;
}
);
note = invcircle;
unicode = 25D9;
},
{
glyphname = smileface;
lastChange = "2019-11-18 22:49:30 +0000";
layers = (
{
layerId = "B8E4E6F7-CD69-4587-8CB0-DED49904045E";
paths = (
{
closed = 1;
nodes = (
"1657 833 OFFCURVE",
"1303 1196 OFFCURVE",
"1045 1196 QCURVE SMOOTH",
"787 1196 OFFCURVE",
"433 834 OFFCURVE",
"433 584 QCURVE SMOOTH",
"434 331 OFFCURVE",
"792 -27 OFFCURVE",
"1045 -27 QCURVE SMOOTH",
"1297 -26 OFFCURVE",
"1657 330 OFFCURVE",
"1657 584 QCURVE SMOOTH"
);
},
{
closed = 1;
nodes = (
"1566 369 OFFCURVE",
"1262 61 OFFCURVE",
"1045 61 QCURVE SMOOTH",
"829 62 OFFCURVE",
"523 368 OFFCURVE",
"523 584 QCURVE SMOOTH",
"523 801 OFFCURVE",
"676 954 QCURVE SMOOTH",
"827 1108 OFFCURVE",
"1045 1108 QCURVE SMOOTH",
"1261 1107 OFFCURVE",
"1567 801 OFFCURVE",
"1567 584 QCURVE SMOOTH"
);
},
{
closed = 1;
nodes = (
"889 743 OFFCURVE",
"843 788 OFFCURVE",
"811 788 QCURVE SMOOTH",
"779 788 OFFCURVE",
"734 743 OFFCURVE",
"734 711 QCURVE SMOOTH",
"734 679 OFFCURVE",
"779 633 OFFCURVE",
"811 633 QCURVE SMOOTH",
"843 633 OFFCURVE",
"889 679 OFFCURVE",
"889 711 QCURVE SMOOTH"
);
},
{
closed = 1;
nodes = (
"1356 743 OFFCURVE",
"1312 788 OFFCURVE",
"1280 788 QCURVE SMOOTH",
"1248 788 OFFCURVE",
"1201 743 OFFCURVE",
"1201 711 QCURVE SMOOTH",
"1201 679 OFFCURVE",
"1248 633 OFFCURVE",
"1280 633 QCURVE SMOOTH",
"1312 633 OFFCURVE",
"1356 679 OFFCURVE",
"1356 711 QCURVE SMOOTH"
);
},
{
closed = 1;
nodes = (
"762 387 LINE",
"860 201 OFFCURVE",
"1045 201 QCURVE SMOOTH",
"1230 201 OFFCURVE",
"1328 387 QCURVE",
"1266 422 LINE",
"1190 285 OFFCURVE",
"1045 285 QCURVE SMOOTH",
"898 285 OFFCURVE",
"822 422 QCURVE"
);
}
);
width = 2091;
}
);
note = smileface;
unicode = 263A;
},
{
glyphname = invsmileface;
lastChange = "2019-11-18 22:49:30 +0000";
layers = (
{
layerId = "B8E4E6F7-CD69-4587-8CB0-DED49904045E";
paths = (
{
closed = 1;
nodes = (
"1689 833 OFFCURVE",
"1335 1196 OFFCURVE",
"1077 1196 QCURVE SMOOTH",
"819 1196 OFFCURVE",
"465 834 OFFCURVE",
"465 584 QCURVE SMOOTH",
"466 331 OFFCURVE",
"824 -27 OFFCURVE",
"1077 -27 QCURVE SMOOTH",
"1329 -26 OFFCURVE",
"1689 330 OFFCURVE",
"1689 584 QCURVE SMOOTH"
);
},
{
closed = 1;
nodes = (
"921 679 OFFCURVE",
"875 633 OFFCURVE",
"843 633 QCURVE SMOOTH",
"811 633 OFFCURVE",
"766 679 OFFCURVE",
"766 711 QCURVE SMOOTH",
"766 743 OFFCURVE",
"811 788 OFFCURVE",
"843 788 QCURVE SMOOTH",
"875 788 OFFCURVE",
"921 743 OFFCURVE",
"921 711 QCURVE SMOOTH"
);
},
{
closed = 1;
nodes = (
"1388 679 OFFCURVE",
"1344 633 OFFCURVE",
"1312 633 QCURVE SMOOTH",
"1280 633 OFFCURVE",
"1233 679 OFFCURVE",
"1233 711 QCURVE SMOOTH",
"1233 743 OFFCURVE",
"1280 788 OFFCURVE",
"1312 788 QCURVE SMOOTH",
"1344 788 OFFCURVE",
"1388 743 OFFCURVE",
"1388 711 QCURVE SMOOTH"
);
},
{
closed = 1;
nodes = (
"854 422 LINE",
"930 285 OFFCURVE",
"1077 285 QCURVE SMOOTH",
"1222 285 OFFCURVE",
"1298 422 QCURVE",
"1360 387 LINE",
"1262 201 OFFCURVE",
"1077 201 QCURVE SMOOTH",
"892 201 OFFCURVE",
"794 387 QCURVE"
);
}
);
width = 2155;
}
);
note = invsmileface;
unicode = 263B;
},
{
glyphname = sun;
lastChange = "2019-11-18 22:49:30 +0000";
layers = (
{
layerId = "B8E4E6F7-CD69-4587-8CB0-DED49904045E";
paths = (
{
closed = 1;
nodes = (
"905 866 LINE",
"792 853 OFFCURVE",
"682 776 QCURVE",
"493 958 LINE",
"453 909 LINE",
"633 725 LINE",
"553 630 OFFCURVE",
"541 502 QCURVE",
"326 502 LINE",
"326 440 LINE",
"541 440 LINE",
"557 315 OFFCURVE",
"635 215 QCURVE",
"453 31 LINE",
"496 -14 LINE",
"684 166 LINE",
"784 93 OFFCURVE",
"905 76 QCURVE",
"905 -141 LINE",
"971 -141 LINE",
"971 76 LINE",
"1024 84 OFFCURVE",
"1086 100 OFFCURVE",
"1160 142 OFFCURVE",
"1196 168 QCURVE",
"1378 -14 LINE",
"1427 29 LINE",
"1243 217 LINE",
"1318 313 OFFCURVE",
"1335 438 QCURVE",
"1550 438 LINE",
"1550 500 LINE",
"1335 500 LINE",
"1329 616 OFFCURVE",
"1243 729 QCURVE",
"1427 913 LINE",
"1382 958 LINE",
"1196 776 LINE",
"1136 821 OFFCURVE",
"1037 860 OFFCURVE",
"971 866 QCURVE",
"971 1083 LINE",
"905 1083 LINE"
);
},
{
closed = 1;
nodes = (
"1074 805 OFFCURVE",
"1270 607 OFFCURVE",
"1270 471 QCURVE SMOOTH",
"1270 333 OFFCURVE",
"1171 236 QCURVE SMOOTH",
"1075 139 OFFCURVE",
"936 139 QCURVE SMOOTH",
"799 139 OFFCURVE",
"604 335 OFFCURVE",
"604 471 QCURVE SMOOTH",
"604 607 OFFCURVE",
"797 805 OFFCURVE",
"936 805 QCURVE SMOOTH"
);
}
);
width = 1877;
}
);
note = sun;
unicode = 263C;
},
{
glyphname = female;
lastChange = "2019-11-18 22:49:30 +0000";
layers = (
{
layerId = "B8E4E6F7-CD69-4587-8CB0-DED49904045E";
paths = (
{
closed = 1;
nodes = (
"732 412 LINE",
"474 412 LINE",
"474 342 LINE",
"732 342 LINE",
"732 80 LINE",
"806 80 LINE",
"806 342 LINE",
"1062 342 LINE",
"1062 412 LINE",
"806 412 LINE",
"806 578 LINE",
"912 591 OFFCURVE",
"1056 753 OFFCURVE",
"1056 862 QCURVE SMOOTH",
"1056 984 OFFCURVE",
"970 1067 QCURVE SMOOTH",
"887 1153 OFFCURVE",
"769 1153 QCURVE SMOOTH",
"655 1153 OFFCURVE",
"481 988 OFFCURVE",
"481 862 QCURVE SMOOTH",
"481 787 OFFCURVE",
"549 665 OFFCURVE",
"656 589 OFFCURVE",
"732 578 QCURVE"
);
},
{
closed = 1;
nodes = (
"824 1069 OFFCURVE",
"917 1017 OFFCURVE",
"974 922 OFFCURVE",
"974 864 QCURVE SMOOTH",
"974 780 OFFCURVE",
"913 719 QCURVE SMOOTH",
"854 657 OFFCURVE",
"767 657 QCURVE SMOOTH",
"685 657 OFFCURVE",
"562 778 OFFCURVE",
"562 864 QCURVE SMOOTH",
"562 921 OFFCURVE",
"619 1016 OFFCURVE",
"711 1069 OFFCURVE",
"767 1069 QCURVE SMOOTH"
);
}
);
width = 1536;
}
);
note = female;
unicode = 2640;
},
{
glyphname = male;
lastChange = "2019-11-18 22:49:30 +0000";
layers = (
{
layerId = "B8E4E6F7-CD69-4587-8CB0-DED49904045E";
paths = (
{
closed = 1;
nodes = (
"782 782 LINE",
"699 825 OFFCURVE",
"628 825 QCURVE SMOOTH",
"506 825 OFFCURVE",
"337 655 OFFCURVE",
"337 535 QCURVE SMOOTH",
"337 413 OFFCURVE",
"510 250 OFFCURVE",
"626 250 QCURVE SMOOTH",
"742 250 OFFCURVE",
"917 424 OFFCURVE",
"917 549 QCURVE SMOOTH",
"917 658 OFFCURVE",
"833 739 QCURVE",
"1070 977 LINE",
"1083 927 OFFCURVE",
"1119 837 OFFCURVE",
"1156 772 OFFCURVE",
"1175 772 QCURVE",
"1189 778 LINE",
"1193 784 OFFCURVE",
"1193 793 QCURVE",
"1189 825 LINE",
"1177 876 OFFCURVE",
"1177 954 QCURVE SMOOTH",
"1177 1052 OFFCURVE",
"1193 1112 QCURVE SMOOTH",
"1199 1139 LINE",
"1199 1153 OFFCURVE",
"1183 1153 QCURVE SMOOTH",
"1170 1153 OFFCURVE",
"1134 1141 QCURVE SMOOTH",
"1093 1128 OFFCURVE",
"1005 1128 QCURVE SMOOTH",
"946 1128 OFFCURVE",
"878 1145 QCURVE",
"845 1149 LINE",
"837 1149 OFFCURVE",
"831 1145 QCURVE",
"825 1136 OFFCURVE",
"825 1128 QCURVE SMOOTH",
"825 1115 OFFCURVE",
"833 1110 QCURVE",
"876 1067 OFFCURVE",
"1023 1024 QCURVE"
);
},
{
closed = 1;
nodes = (
"715 750 OFFCURVE",
"839 626 OFFCURVE",
"839 539 QCURVE SMOOTH",
"839 451 OFFCURVE",
"717 326 OFFCURVE",
"628 326 QCURVE SMOOTH",
"541 326 OFFCURVE",
"415 444 OFFCURVE",
"415 539 QCURVE SMOOTH",
"415 628 OFFCURVE",
"539 750 OFFCURVE",
"628 750 QCURVE SMOOTH"
);
}
);
width = 1536;
}
);
note = male;
unicode = 2642;
},
{
glyphname = spade;
lastChange = "2019-11-18 22:49:30 +0000";
layers = (
{
layerId = "B8E4E6F7-CD69-4587-8CB0-DED49904045E";
paths = (
{
closed = 1;
nodes = (
"518 1106 OFFCURVE",
"386 920 OFFCURVE",
"247 801 QCURVE SMOOTH",
"148 719 OFFCURVE",
"59 583 OFFCURVE",
"59 494 QCURVE SMOOTH",
"59 402 OFFCURVE",
"189 274 OFFCURVE",
"278 274 QCURVE SMOOTH",
"448 274 OFFCURVE",
"538 465 QCURVE",
"538 451 LINE SMOOTH",
"538 306 OFFCURVE",
"451 134 OFFCURVE",
"279 37 OFFCURVE",
"155 37 QCURVE",
"149 0 LINE",
"941 0 LINE",
"933 37 LINE",
"801 46 OFFCURVE",
"638 140 OFFCURVE",
"559 306 OFFCURVE",
"556 465 QCURVE",
"655 274 OFFCURVE",
"812 274 QCURVE SMOOTH",
"899 274 OFFCURVE",
"1029 402 OFFCURVE",
"1029 498 QCURVE SMOOTH",
"1027 569 OFFCURVE",
"957 701 OFFCURVE",
"816 827 QCURVE SMOOTH",
"665 966 OFFCURVE",
"569 1135 OFFCURVE",
"544 1231 QCURVE"
);
}
);
width = 1088;
}
);
note = spade;
unicode = 2660;
},
{
glyphname = club;
lastChange = "2019-11-18 22:49:30 +0000";
layers = (
{
layerId = "B8E4E6F7-CD69-4587-8CB0-DED49904045E";
paths = (
{
closed = 1;
nodes = (
"1086 35 LINE",
"972 56 OFFCURVE",
"845 109 OFFCURVE",
"736 229 OFFCURVE",
"687 382 OFFCURVE",
"682 508 QCURVE",
"743 403 OFFCURVE",
"838 321 OFFCURVE",
"956 272 OFFCURVE",
"1012 272 QCURVE SMOOTH",
"1128 272 OFFCURVE",
"1284 437 OFFCURVE",
"1284 553 QCURVE SMOOTH",
"1284 669 OFFCURVE",
"1211 745 QCURVE SMOOTH",
"1143 823 OFFCURVE",
"1038 823 QCURVE SMOOTH",
"999 823 OFFCURVE",
"977 815 QCURVE",
"961 812 OFFCURVE",
"877 772 QCURVE",
"946 870 OFFCURVE",
"946 956 QCURVE SMOOTH",
"946 1063 OFFCURVE",
"786 1223 OFFCURVE",
"670 1223 QCURVE SMOOTH",
"557 1223 OFFCURVE",
"395 1073 OFFCURVE",
"395 952 QCURVE SMOOTH",
"395 914 OFFCURVE",
"406 877 QCURVE",
"423 837 OFFCURVE",
"461 772 QCURVE",
"361 823 OFFCURVE",
"299 823 QCURVE SMOOTH",
"206 822 OFFCURVE",
"60 664 OFFCURVE",
"60 549 QCURVE SMOOTH",
"60 472 OFFCURVE",
"130 346 OFFCURVE",
"259 270 OFFCURVE",
"336 270 QCURVE SMOOTH",
"425 270 OFFCURVE",
"603 388 OFFCURVE",
"660 508 QCURVE",
"662 461 LINE SMOOTH",
"662 385 OFFCURVE",
"609 236 OFFCURVE",
"514 116 OFFCURVE",
"395 62 OFFCURVE",
"260 35 QCURVE",
"252 0 LINE",
"1094 0 LINE"
);
}
);
width = 1344;
}
);
note = club;
unicode = 2663;
},
{
glyphname = heart;
lastChange = "2019-11-18 22:49:30 +0000";
layers = (
{
layerId = "B8E4E6F7-CD69-4587-8CB0-DED49904045E";
paths = (
{
closed = 1;
nodes = (
"646 106 OFFCURVE",
"775 319 OFFCURVE",
"915 498 QCURVE SMOOTH",
"1026 635 OFFCURVE",
"1114 825 OFFCURVE",
"1114 911 QCURVE SMOOTH",
"1114 1009 OFFCURVE",
"971 1145 OFFCURVE",
"874 1145 QCURVE SMOOTH",
"786 1145 OFFCURVE",
"644 1028 OFFCURVE",
"610 909 QCURVE",
"572 1029 OFFCURVE",
"429 1143 OFFCURVE",
"342 1143 QCURVE SMOOTH",
"241 1143 OFFCURVE",
"102 1006 OFFCURVE",
"102 899 QCURVE SMOOTH",
"102 833 OFFCURVE",
"156 704 OFFCURVE",
"231 604 QCURVE SMOOTH",
"321 481 LINE SMOOTH",
"497 245 OFFCURVE",
"588 63 OFFCURVE",
"610 -23 QCURVE"
);
}
);
width = 1216;
}
);
note = heart;
unicode = 2665;
},
{
glyphname = diamond;
lastChange = "2019-11-18 22:49:30 +0000";
layers = (
{
layerId = "B8E4E6F7-CD69-4587-8CB0-DED49904045E";
paths = (
{
closed = 1;
nodes = (
"441 1082 OFFCURVE",
"182 737 OFFCURVE",
"66 600 QCURVE",
"151 498 OFFCURVE",
"299 307 OFFCURVE",
"484 46 OFFCURVE",
"521 -25 QCURVE",
"604 123 OFFCURVE",
"910 530 OFFCURVE",
"978 600 QCURVE",
"856 737 OFFCURVE",
"591 1098 OFFCURVE",
"519 1223 QCURVE"
);
}
);
width = 1045;
}
);
note = diamond;
unicode = 2666;
},
{
glyphname = musicalnote;
lastChange = "2019-11-18 22:49:30 +0000";
layers = (
{
layerId = "B8E4E6F7-CD69-4587-8CB0-DED49904045E";
paths = (
{
closed = 1;
nodes = (
"489 303 LINE",
"443 322 OFFCURVE",
"399 322 QCURVE SMOOTH",
"321 322 OFFCURVE",
"196 206 OFFCURVE",
"196 129 QCURVE SMOOTH",
"196 83 OFFCURVE",
"254 29 OFFCURVE",
"311 29 QCURVE SMOOTH",
"418 29 OFFCURVE",
"565 180 OFFCURVE",
"565 303 QCURVE SMOOTH",
"565 809 LINE",
"629 798 OFFCURVE",
"743 640 OFFCURVE",
"743 520 QCURVE SMOOTH",
"743 400 OFFCURVE",
"686 272 QCURVE",
"733 272 LINE",
"827 393 OFFCURVE",
"827 543 QCURVE SMOOTH",
"827 713 OFFCURVE",
"718 860 QCURVE",
"565 1053 LINE",
"565 1153 LINE",
"489 1153 LINE"
);
}
);
width = 1024;
}
);
note = musicalnote;
unicode = 266A;
},
{
glyphname = musicalnotedbl;
lastChange = "2019-11-18 22:49:30 +0000";
layers = (
{
layerId = "B8E4E6F7-CD69-4587-8CB0-DED49904045E";
paths = (
{
closed = 1;
nodes = (
"1263 1159 LINE",
"565 981 LINE",
"565 229 LINE",
"520 248 OFFCURVE",
"475 248 QCURVE SMOOTH",
"396 251 OFFCURVE",
"272 131 OFFCURVE",
"272 55 QCURVE SMOOTH",
"272 10 OFFCURVE",
"330 -43 OFFCURVE",
"387 -43 QCURVE SMOOTH",
"502 -43 OFFCURVE",
"639 112 OFFCURVE",
"639 229 QCURVE SMOOTH",
"639 623 LINE",
"1189 772 LINE",
"1189 324 LINE",
"1147 342 OFFCURVE",
"1099 342 QCURVE SMOOTH",
"1021 342 OFFCURVE",
"899 231 OFFCURVE",
"899 150 QCURVE SMOOTH",
"899 103 OFFCURVE",
"956 49 OFFCURVE",
"1013 49 QCURVE SMOOTH",
"1086 49 OFFCURVE",
"1209 133 OFFCURVE",
"1263 246 OFFCURVE",
"1263 324 QCURVE SMOOTH"
);
},
{
closed = 1;
nodes = (
"639 864 LINE",
"1189 1016 LINE",
"1189 899 LINE",
"639 750 LINE"
);
}
);
width = 1536;
}
);
note = musicalnotedbl;
unicode = 266B;
},
{
glyphname = minute;
lastChange = "2019-11-18 22:49:30 +0000";
layers = (
{
layerId = "B8E4E6F7-CD69-4587-8CB0-DED49904045E";
paths = (
{
closed = 1;
nodes = (
"284 890 LINE",
"442 1409 LINE",
"246 1409 LINE",
"182 890 LINE"
);
}
);
width = 384;
}
);
note = minute;
unicode = 2032;
},
